<svg width="271" height="245" viewBox="0 0 271 245" fill="none" xmlns="http://www.w3.org/2000/svg">
<g clip-path="url(#clip0_33_1644)">
<path opacity="0.2" d="M81.302 31.7095L81.1102 31.6464L20.2441 198.108L234.81 219.745L235.052 219.769L242.914 84.6401L242.929 84.3744L81.302 31.7095ZM142.94 138.759L21.0886 197.264L81.2904 32.62L142.94 138.759ZM143.297 139.261L233.934 219.021L21.7396 197.625L143.297 139.261ZM143.409 138.523L81.8512 32.5385L241.906 84.6906L143.409 138.523ZM234.619 218.863L143.837 138.974L242.401 85.1054L234.619 218.863Z" fill="#367CFF"/>
<path d="M270.337 87.4541C270.143 93.8624 268.764 100.114 266.318 105.675C263.873 111.236 260.433 115.94 256.292 119.387C252.152 122.833 247.434 124.919 242.543 125.466C237.651 126.012 232.731 125.004 228.202 122.526C226.079 121.364 224.064 119.885 222.199 118.121C218.635 114.759 215.668 110.431 213.502 105.433V105.429C211.192 100.083 209.863 94.111 209.618 87.9811C209.373 81.8511 210.22 75.7306 212.092 70.1004C213.964 64.4701 216.809 59.4835 220.405 55.5324C224.001 51.5812 228.25 48.7731 232.817 47.3288C237.384 45.8844 242.145 45.843 246.726 47.208C251.307 48.5729 255.584 51.307 259.22 55.1953C262.856 59.0837 265.752 64.0204 267.681 69.6176C269.61 75.2149 270.519 81.3202 270.337 87.4538L270.337 87.4541Z" fill="white"/>
<path opacity="0.09" d="M270.337 87.4541C270.143 93.8624 268.764 100.114 266.318 105.675C263.873 111.236 260.433 115.94 256.292 119.387C252.152 122.833 247.434 124.919 242.543 125.466C237.651 126.012 232.731 125.004 228.202 122.526C226.079 121.364 224.064 119.885 222.199 118.121C218.635 114.759 215.668 110.431 213.502 105.433V105.429C211.192 100.083 209.863 94.111 209.618 87.9811C209.373 81.8511 210.22 75.7306 212.092 70.1004C213.964 64.4701 216.809 59.4835 220.405 55.5324C224.001 51.5812 228.25 48.7731 232.817 47.3288C237.384 45.8844 242.145 45.843 246.726 47.208C251.307 48.5729 255.584 51.307 259.22 55.1953C262.856 59.0837 265.752 64.0204 267.681 69.6176C269.61 75.2149 270.519 81.3202 270.337 87.4538L270.337 87.4541Z" fill="#367CFF"/>
<path d="M247.154 55.6805C247.154 55.6805 254.42 55.7968 251.915 68.8769L251.233 68.9205L249.847 69.0087" fill="#0C0C0C"/>
<path d="M239.041 82.6003C239.075 82.5962 239.209 90.7548 246.468 90.4121C251.494 90.1758 253.487 83.3209 253.602 83.3266C253.067 83.1494 252.163 82.8843 251.928 82.7055C251.156 82.1119 250.196 81.4861 250.001 79.4713C249.889 78.31 250.313 72.4202 250.271 71.2491L242.512 73.1019C242.547 75.573 243.129 81.3263 240.463 82.2042C240.019 82.3495 239.541 82.4793 239.041 82.6003Z" fill="#E98862"/>
<path opacity="0.52" d="M242.201 79.9529C242.336 79.4518 242.429 78.9327 242.478 78.405C242.599 77.2013 242.618 75.9841 242.536 74.7749C244.107 74.5785 245.605 73.8102 246.859 72.5573C246.982 73.2522 247.678 76.3045 247.44 76.9484C246.993 78.1659 245.001 80.0951 242.201 79.9529Z" fill="#0C0C0C"/>
<path d="M243.962 78.5115C247.003 78.2272 250.672 75.8083 250.8 70.4243L250.915 65.5672C251.042 60.1842 248.98 55.7327 245.102 55.576C241.222 55.4181 238.218 59.6658 238.091 65.0488L238.04 67.1992C238.032 67.9382 238.063 68.677 238.132 69.4106C238.304 71.3502 238.572 74.2995 239.55 76.3134C240.472 78.2146 242.019 78.6925 243.962 78.5115Z" fill="#E98862"/>
<path d="M250.52 72.0556C251.699 72.103 252.694 70.4938 252.731 68.9537C252.767 67.4137 251.831 66.5254 250.652 66.4777L250.02 67.4851L249.506 72.0146L250.52 72.0556Z" fill="#E98862"/>
<path d="M238.29 71.0362C238.503 71.3662 238.776 71.6213 239.084 71.7783C239.392 71.9353 239.725 71.9893 240.052 71.9353C240.754 71.82 241.219 72.1959 241.804 72.1204C242.296 72.0573 242.381 71.7606 243.219 71.6959C246.457 71.4453 248.886 71.1787 249.044 65.8718L251.104 63.4813C251.104 63.4813 252.025 78.1874 245.936 80.1423C242.194 81.3427 238.685 80.9039 238.234 76.3135C237.867 72.5836 238.29 71.0362 238.29 71.0362Z" fill="#0C0C0C"/>
<path d="M239.824 67.9649C240.088 67.9649 240.302 67.6853 240.302 67.3404C240.302 66.9954 240.088 66.7158 239.824 66.7158C239.56 66.7158 239.346 66.9954 239.346 67.3404C239.346 67.6853 239.56 67.9649 239.824 67.9649Z" fill="#0C0C0C"/>
<path d="M244.095 67.8487C244.359 67.8487 244.573 67.5691 244.573 67.2242C244.573 66.8792 244.359 66.5996 244.095 66.5996C243.831 66.5996 243.617 66.8792 243.617 67.2242C243.617 67.5691 243.831 67.8487 244.095 67.8487Z" fill="#0C0C0C"/>
<path d="M249.381 69.5517C249.381 69.5517 249.089 61.9238 247.327 61.4111C246.154 61.0696 243.267 63.1842 240.631 62.4621C239.477 62.1462 238.373 62.4937 238.252 63.2057C238.203 63.4875 237.29 60.9884 239.146 57.9475C240.624 55.5263 245.428 54.8452 247.565 55.7014C253.483 58.0725 250.891 66.8191 250.891 66.8191L250.589 69.4392L249.381 69.5517Z" fill="#0C0C0C"/>
<path d="M252.071 63.401C253.813 63.401 255.225 61.5564 255.225 59.281C255.225 57.0055 253.813 55.1609 252.071 55.1609C250.329 55.1609 248.917 57.0055 248.917 59.281C248.917 61.5564 250.329 63.401 252.071 63.401Z" fill="#0C0C0C"/>
<g opacity="0.52">
<path d="M241.862 71.8752H241.854C241.474 71.861 240.839 71.782 240.846 71.4108C240.853 71.1031 241.569 67.8057 241.651 67.4304C241.658 67.3981 241.675 67.3708 241.697 67.3545C241.72 67.3382 241.746 67.3342 241.771 67.3433C241.795 67.3525 241.816 67.3741 241.829 67.4034C241.841 67.4327 241.844 67.4673 241.837 67.4995C241.519 68.96 241.044 71.2086 241.039 71.4168C241.075 71.5059 241.466 71.6063 241.86 71.6212C241.885 71.6208 241.91 71.6338 241.928 71.6572C241.947 71.6806 241.957 71.7126 241.957 71.7461C241.958 71.7796 241.948 71.8119 241.93 71.8359C241.912 71.8599 241.887 71.8735 241.862 71.8739V71.8752Z" fill="#0C0C0C"/>
</g>
<path d="M240.705 65.2185C240.313 65.0666 239.896 65.0557 239.499 65.1869C239.304 65.2496 239.117 65.3503 238.944 65.4857C238.774 65.6185 238.616 65.7788 238.476 65.9631C238.452 65.9915 238.438 66.0313 238.436 66.0738C238.434 66.1163 238.445 66.158 238.467 66.1897C238.489 66.2214 238.519 66.2406 238.552 66.2429C238.584 66.2453 238.616 66.2306 238.64 66.2022L238.648 66.194C238.778 66.0402 238.923 65.9085 239.079 65.802C239.232 65.6959 239.397 65.6207 239.567 65.5789C239.903 65.493 240.251 65.5247 240.575 65.6709L240.588 65.6769C240.61 65.6884 240.635 65.6939 240.659 65.6931C240.684 65.6922 240.708 65.6849 240.73 65.6717C240.753 65.6585 240.773 65.6396 240.79 65.6162C240.806 65.5927 240.819 65.5651 240.828 65.535C240.836 65.505 240.84 65.473 240.839 65.441C240.838 65.409 240.832 65.3775 240.821 65.3486C240.811 65.3196 240.796 65.2937 240.778 65.2723C240.76 65.2508 240.738 65.2344 240.715 65.2238L240.705 65.2185Z" fill="#0C0C0C"/>
<path d="M243.522 65.6715C243.833 65.4846 244.177 65.4088 244.519 65.4519C244.691 65.4717 244.861 65.5257 245.021 65.6121C245.184 65.6983 245.338 65.8109 245.479 65.9473L245.487 65.9542C245.513 65.9766 245.545 65.985 245.576 65.9777C245.607 65.9703 245.634 65.9478 245.653 65.9147C245.672 65.8816 245.68 65.8405 245.676 65.7998C245.672 65.7591 245.656 65.7219 245.632 65.6958C245.479 65.5302 245.31 65.3906 245.131 65.2801C244.949 65.1673 244.755 65.0907 244.556 65.0529C244.151 64.9732 243.738 65.0373 243.358 65.2384C243.314 65.2635 243.278 65.3106 243.26 65.3694C243.242 65.4281 243.242 65.4939 243.261 65.5525C243.28 65.6111 243.315 65.6577 243.36 65.6823C243.405 65.707 243.455 65.7076 243.5 65.6841L243.509 65.6791L243.522 65.6715Z" fill="#0C0C0C"/>
<path d="M262.891 102.972C262.621 105.639 262.357 109.303 262.121 113.091C261.2 114.371 260.215 115.571 259.173 116.682C258.511 117.385 257.827 118.053 257.122 118.686C253.31 122.086 248.956 124.308 244.39 125.187C239.823 126.065 235.164 125.575 230.763 123.755C230.704 120.237 230.622 115.491 230.541 111.142C230.447 106.127 230.353 101.636 230.303 100.16C230.094 94.304 228.906 90.3965 229.804 87.2014C230.073 86.2557 230.505 85.4035 231.066 84.7111C233.16 82.0351 238.359 82.0961 240.444 82.2019C240.48 82.2038 239.836 88.4907 246.697 88.4148C251.74 88.3608 252.118 82.7936 252.118 82.7936C252.118 82.7936 254.603 83.1313 256.253 83.5056C258.953 84.1232 260.708 85.4166 262.073 87.348C263.348 89.149 264.099 91.0609 262.891 102.972Z" fill="#367CFF"/>
<path d="M222.555 82.8217L222.763 76.1134C222.767 75.9658 222.749 75.8186 222.707 75.6812C222.666 75.5437 222.603 75.419 222.523 75.3149C222.443 75.2109 222.347 75.1298 222.242 75.0769C222.136 75.024 222.023 75.0005 221.91 75.0077C221.702 75.0296 221.508 75.1517 221.365 75.3501C221.222 75.5486 221.141 75.8093 221.136 76.0818L221.092 77.5204L219.642 72.9136C219.487 72.3977 219.045 71.8935 218.614 72.1579C218.442 72.2454 218.299 72.4061 218.207 72.6138C218.115 72.8215 218.079 73.0639 218.106 73.3015C218.102 73.3022 218.098 73.3033 218.094 73.305C218.091 73.307 218.088 73.3093 218.086 73.3119L217.848 72.5165C217.804 72.3691 217.735 72.2365 217.647 72.1282C217.558 72.02 217.453 71.9389 217.337 71.8908C217.222 71.8427 217.1 71.8288 216.98 71.8502C216.86 71.8716 216.745 71.9277 216.644 72.0145C216.486 72.1552 216.371 72.3623 216.316 72.6012C216.262 72.84 216.271 73.096 216.344 73.3264L216.445 73.6648C216.439 73.6732 216.434 73.6829 216.431 73.6935C216.322 73.4858 216.16 73.3354 215.974 73.2693C215.788 73.2031 215.59 73.2255 215.415 73.3324C215.227 73.4571 215.081 73.67 215.007 73.9286C214.934 74.1872 214.938 74.4726 215.018 74.7278L215.269 75.5688C215.259 75.5601 215.248 75.5547 215.236 75.5529C215.224 75.5512 215.212 75.5531 215.201 75.5586C215.188 75.5662 215.177 75.5785 215.169 75.594C215.033 75.444 214.862 75.3567 214.684 75.3456C214.506 75.3345 214.33 75.4001 214.183 75.5324C214.031 75.6756 213.921 75.8815 213.869 76.117C213.818 76.3525 213.829 76.6036 213.901 76.8298L216.023 83.9248C216.32 84.9174 216.837 85.7715 217.508 86.3777C218.179 86.9838 218.973 87.3145 219.789 87.3271C220.492 87.338 221.171 86.9902 221.682 86.3576C222.192 85.725 222.493 84.8575 222.522 83.9393L222.555 82.8217Z" fill="#E98862"/>
<g opacity="0.2">
<path d="M219.523 77.8711C219.505 77.8804 219.485 77.8799 219.467 77.8697C219.448 77.8596 219.434 77.8406 219.427 77.8168L218.052 73.4329C218.048 73.4209 218.046 73.4078 218.045 73.3944C218.045 73.3811 218.047 73.3678 218.05 73.3554C218.054 73.343 218.06 73.3317 218.067 73.3222C218.074 73.3127 218.083 73.3052 218.092 73.3002C218.101 73.2951 218.112 73.2926 218.122 73.2929C218.132 73.2931 218.142 73.296 218.151 73.3015C218.161 73.307 218.169 73.3149 218.176 73.3247C218.183 73.3345 218.188 73.3461 218.191 73.3587L219.566 77.7425C219.569 77.7544 219.571 77.7672 219.571 77.7801C219.571 77.793 219.569 77.8058 219.566 77.8176C219.562 77.8295 219.556 77.8403 219.549 77.8494C219.542 77.8584 219.534 77.8656 219.525 77.8705L219.523 77.8711Z" fill="#0C0C0C"/>
</g>
<g opacity="0.2">
<path d="M218.06 78.7165C218.042 78.7258 218.021 78.7253 218.003 78.7151C217.985 78.7049 217.971 78.6857 217.963 78.6618L216.43 73.7694C216.422 73.7455 216.423 73.7188 216.43 73.6952C216.438 73.6716 216.453 73.6528 216.471 73.643C216.489 73.6344 216.509 73.6352 216.527 73.6451C216.545 73.655 216.559 73.6733 216.568 73.6964L218.101 78.5888C218.109 78.6129 218.109 78.6399 218.101 78.6639C218.093 78.6879 218.079 78.7069 218.06 78.7168V78.7165Z" fill="#0C0C0C"/>
</g>
<g opacity="0.2">
<path d="M216.479 79.6437C216.461 79.653 216.44 79.6525 216.422 79.6423C216.404 79.6321 216.39 79.6129 216.383 79.589L215.159 75.6866C215.152 75.6626 215.152 75.6356 215.159 75.6116C215.167 75.5877 215.182 75.5687 215.2 75.5588C215.219 75.549 215.239 75.5491 215.257 75.5591C215.276 75.5692 215.29 75.5883 215.298 75.6124L216.522 79.5138C216.53 79.5379 216.529 79.5649 216.522 79.5889C216.514 79.6129 216.499 79.6319 216.481 79.6418L216.479 79.6437Z" fill="#0C0C0C"/>
</g>
<path d="M239.554 93.3389L227.056 118.44C226.602 119.352 225.993 120.116 225.277 120.673C224.212 119.906 223.184 119.053 222.199 118.121C220.1 116.142 218.203 113.821 216.555 111.215L213.93 84.6265L224.435 82.4275L225.633 95.2255L230.433 85.5862L239.554 93.3389Z" fill="#367CFF"/>
<path d="M241.02 73.2447C242.166 73.3442 243.305 72.9417 244.257 72.1008C244.29 72.0719 244.328 72.0558 244.368 72.0545C244.408 72.0532 244.447 72.0667 244.481 72.0935C244.515 72.1202 244.543 72.1591 244.561 72.2055C244.578 72.252 244.586 72.3041 244.582 72.3558C244.505 73.2403 244.171 74.8672 242.75 75.0745C241.833 75.2081 241.168 74.2879 240.833 73.6759C240.81 73.6336 240.796 73.5835 240.794 73.5315C240.792 73.4796 240.801 73.4279 240.821 73.3826C240.841 73.3373 240.87 73.3003 240.905 73.2759C240.94 73.2514 240.98 73.2406 241.02 73.2447Z" fill="white"/>
<path d="M266.28 105.793C264.433 109.953 262.025 113.642 259.173 116.682C258.511 117.385 257.827 118.053 257.122 118.686L252.24 94.4274L263.234 90.6501L266.28 105.793Z" fill="#367CFF"/>
<path d="M257.229 118.592C257.194 118.621 257.156 118.655 257.122 118.686C257.087 118.718 257.052 118.749 257.017 118.779L253.297 100.298L253.532 100.218L257.229 118.592Z" fill="#0C0C0C"/>
<path d="M230.57 112.285C230.54 112.283 230.511 112.267 230.49 112.239C230.468 112.211 230.456 112.174 230.454 112.134L230.214 105.248C230.213 105.206 230.224 105.165 230.246 105.134C230.267 105.103 230.298 105.084 230.33 105.083C230.362 105.081 230.393 105.096 230.417 105.124C230.441 105.152 230.455 105.192 230.456 105.233L230.696 112.12C230.697 112.162 230.686 112.203 230.664 112.234C230.643 112.265 230.613 112.283 230.581 112.285H230.57Z" fill="#0C0C0C"/>
<path d="M140.157 176.013C157.268 176.013 171.139 157.892 171.139 135.54C171.139 113.188 157.268 95.0677 140.157 95.0677C123.046 95.0677 109.175 113.188 109.175 135.54C109.175 157.892 123.046 176.013 140.157 176.013Z" fill="white"/>
<path opacity="0.09" d="M171.139 135.539C171.139 143.544 169.322 151.368 165.918 158.024C162.513 164.679 157.675 169.867 152.014 172.93C146.352 175.993 140.123 176.795 134.113 175.233C128.103 173.672 122.583 169.817 118.25 164.157C113.917 158.497 110.967 151.285 109.771 143.435C108.576 135.584 109.189 127.446 111.534 120.051C113.879 112.656 117.85 106.335 122.945 101.888C128.04 97.4408 134.03 95.0672 140.157 95.0672C144.23 95.0475 148.266 96.0809 152.031 98.1078C155.797 100.135 159.218 103.115 162.098 106.877C164.978 110.639 167.26 115.109 168.811 120.028C170.363 124.947 171.154 130.219 171.139 135.539Z" fill="#367CFF"/>
<path d="M126.443 111.668C126.443 111.668 126.131 117.778 125.079 119.995C122.049 126.376 121.172 133.555 124.205 137.307C127.239 141.058 146.588 141.109 148.054 132.483C149.287 125.22 146.64 124.439 145.995 118.448C145.704 115.737 144.901 110.053 144.901 110.053" fill="#0A0A0A"/>
<path d="M143.045 131.217C143.012 131.211 142.642 139.245 135.497 138.546C130.551 138.062 128.788 131.207 128.674 131.207C129.207 131.059 130.105 130.843 130.343 130.678C131.122 130.132 132.085 129.563 132.336 127.587C132.481 126.45 132.235 120.622 132.312 119.47L139.904 121.684C139.798 124.116 139.055 129.758 141.658 130.757C142.089 130.921 142.556 131.073 143.045 131.217Z" fill="#E98862"/>
<path opacity="0.5" d="M140.009 128.45C139.89 127.95 139.814 127.433 139.781 126.911C139.697 125.719 139.714 124.518 139.83 123.331C138.287 123.059 136.834 122.227 135.634 120.93C135.493 121.61 134.718 124.582 134.933 125.228C135.34 126.449 137.245 128.45 140.009 128.45Z" fill="#0C0C0C"/>
<path d="M139.027 125.947C136.034 126.327 132.161 124.762 131.359 119.554L130.635 114.856C129.833 109.649 131.276 104.877 135.029 103.89C138.782 102.904 142.238 106.386 143.04 111.594L143.361 113.674C143.669 115.673 144.368 125.272 139.027 125.947Z" fill="#E98862"/>
<path opacity="0.1" d="M137.125 119.125C137.617 119.048 137.981 118.603 137.938 118.131C137.895 117.659 137.461 117.339 136.968 117.416C136.476 117.492 136.111 117.937 136.155 118.409C136.198 118.881 136.632 119.202 137.125 119.125Z" fill="#0C0C0C"/>
<path opacity="0.1" d="M142.33 117.237C142.374 117.708 142.808 118.027 143.301 117.952C143.386 117.939 143.47 117.914 143.551 117.878C143.574 117.316 143.575 116.775 143.562 116.275C143.426 116.23 143.284 116.22 143.144 116.243C142.651 116.319 142.287 116.764 142.33 117.237Z" fill="#0C0C0C"/>
<path opacity="0.5" d="M140.153 118.694H140.16C140.312 118.652 140.463 118.599 140.61 118.536C140.831 118.441 141.118 118.281 141.079 118.021C141.033 117.724 139.918 114.687 139.791 114.341C139.779 114.313 139.759 114.291 139.735 114.282C139.712 114.272 139.686 114.274 139.664 114.288C139.642 114.302 139.624 114.327 139.615 114.357C139.607 114.387 139.607 114.42 139.617 114.45C140.092 115.746 140.859 117.871 140.889 118.071C140.865 118.164 140.5 118.346 140.122 118.445C140.098 118.452 140.077 118.471 140.064 118.498C140.05 118.525 140.044 118.557 140.048 118.589C140.052 118.62 140.065 118.649 140.085 118.669C140.104 118.688 140.129 118.697 140.153 118.694V118.694Z" fill="#0C0C0C"/>
<path d="M127.64 116.543L131.005 115.684C133.547 114.294 134.268 108.509 134.268 108.509C134.268 108.509 137.405 112.411 144.902 110.052C144.902 110.052 143.273 96.3804 132.203 100.53C128.634 101.868 126.106 106.621 126.482 112.916C126.745 117.328 127.64 116.543 127.64 116.543Z" fill="#0A0A0A"/>
<path d="M131.836 121.08C130.696 121.379 129.526 120.029 129.297 118.538C129.069 117.048 129.865 115.984 131.006 115.684L131.748 116.528L132.818 120.822L131.836 121.08Z" fill="#E98862"/>
<path d="M140.6 111.919C140.885 111.655 141.219 111.494 141.567 111.454C141.742 111.432 141.918 111.445 142.09 111.492C142.263 111.538 142.432 111.612 142.591 111.713L142.596 111.716C142.614 111.725 142.633 111.725 142.651 111.716C142.668 111.707 142.683 111.69 142.691 111.667C142.699 111.645 142.7 111.619 142.694 111.596C142.688 111.572 142.676 111.553 142.659 111.541C142.49 111.425 142.311 111.337 142.125 111.279C141.938 111.219 141.746 111.197 141.554 111.213C141.165 111.241 140.789 111.404 140.466 111.686C140.453 111.697 140.442 111.71 140.434 111.726C140.425 111.742 140.419 111.76 140.416 111.78C140.413 111.799 140.413 111.818 140.416 111.837C140.419 111.856 140.425 111.874 140.433 111.89C140.442 111.907 140.453 111.92 140.465 111.931C140.478 111.941 140.492 111.948 140.506 111.952C140.521 111.955 140.536 111.954 140.55 111.95C140.565 111.945 140.579 111.937 140.591 111.926L140.593 111.924L140.6 111.919Z" fill="#0C0C0C"/>
<path d="M137.526 112.473C137.144 112.374 136.748 112.411 136.381 112.579C136.199 112.661 136.028 112.778 135.873 112.927C135.719 113.073 135.579 113.244 135.457 113.436C135.444 113.455 135.438 113.48 135.439 113.505C135.441 113.53 135.449 113.553 135.463 113.57C135.478 113.587 135.496 113.596 135.515 113.595C135.535 113.594 135.553 113.584 135.566 113.566L135.57 113.561C135.687 113.388 135.821 113.235 135.968 113.106C136.113 112.976 136.272 112.876 136.44 112.809C136.774 112.672 137.129 112.653 137.47 112.754L137.478 112.757C137.493 112.762 137.507 112.763 137.522 112.76C137.537 112.758 137.551 112.751 137.564 112.741C137.576 112.731 137.587 112.718 137.596 112.703C137.605 112.687 137.611 112.67 137.615 112.651C137.618 112.632 137.619 112.612 137.616 112.593C137.614 112.574 137.609 112.556 137.601 112.54C137.593 112.523 137.583 112.509 137.571 112.498C137.559 112.487 137.545 112.479 137.531 112.475L137.526 112.473Z" fill="#0C0C0C"/>
<path d="M131.007 115.612C133.269 114.512 134.02 112.472 134.251 110.953C134.401 109.941 134.387 108.898 134.21 107.893L134.14 107.918C134.314 108.91 134.327 109.939 134.179 110.938C133.951 112.432 133.212 114.44 130.982 115.523L131.007 115.612Z" fill="#0C0C0C"/>
<path d="M159.604 129.617L160.959 123.614C160.988 123.483 161.039 123.36 161.107 123.255C161.175 123.15 161.259 123.065 161.353 123.005C161.448 122.944 161.551 122.91 161.656 122.905C161.761 122.899 161.866 122.923 161.964 122.973C162.142 123.074 162.286 123.257 162.367 123.488C162.448 123.719 162.46 123.981 162.401 124.223L162.111 125.51L164.446 122.01C164.7 121.615 165.205 121.343 165.526 121.745C165.657 121.889 165.747 122.087 165.78 122.306C165.814 122.526 165.79 122.753 165.712 122.953C165.716 122.955 165.719 122.957 165.722 122.961C165.724 122.963 165.726 122.966 165.727 122.97L166.119 122.36C166.192 122.248 166.283 122.157 166.386 122.096C166.489 122.036 166.601 122.005 166.713 122.008C166.826 122.011 166.937 122.046 167.038 122.112C167.139 122.178 167.228 122.272 167.297 122.388C167.404 122.574 167.459 122.802 167.452 123.034C167.445 123.266 167.378 123.488 167.261 123.663L167.094 123.922C167.098 123.932 167.1 123.943 167.101 123.954C167.244 123.813 167.422 123.743 167.601 123.758C167.781 123.772 167.951 123.87 168.08 124.032C168.218 124.216 168.298 124.461 168.304 124.718C168.309 124.975 168.241 125.225 168.111 125.419L167.697 126.063C167.707 126.059 167.719 126.059 167.73 126.062C167.741 126.065 167.751 126.071 167.759 126.08C167.769 126.092 167.776 126.107 167.779 126.124C167.934 126.045 168.105 126.035 168.265 126.096C168.425 126.156 168.565 126.283 168.664 126.458C168.765 126.643 168.815 126.868 168.807 127.096C168.798 127.324 168.73 127.541 168.615 127.713L165.118 133.146C164.628 133.906 163.976 134.458 163.245 134.731C162.514 135.003 161.738 134.985 161.015 134.677C160.392 134.412 159.872 133.84 159.567 133.082C159.261 132.325 159.194 131.441 159.379 130.62L159.604 129.617Z" fill="#E98862"/>
<g opacity="0.2">
<path d="M163.414 126.433C163.428 126.448 163.446 126.455 163.464 126.453C163.482 126.451 163.498 126.44 163.51 126.423L165.727 123.091C165.739 123.072 165.745 123.049 165.744 123.024C165.743 123 165.734 122.978 165.72 122.962C165.706 122.946 165.688 122.938 165.669 122.94C165.651 122.941 165.633 122.953 165.621 122.971L163.405 126.303C163.399 126.312 163.394 126.322 163.391 126.333C163.388 126.345 163.387 126.357 163.388 126.369C163.388 126.381 163.391 126.393 163.395 126.403C163.399 126.414 163.405 126.424 163.412 126.431L163.414 126.433Z" fill="#0C0C0C"/>
</g>
<g opacity="0.2">
<path d="M164.512 127.75C164.526 127.765 164.543 127.773 164.562 127.771C164.58 127.769 164.596 127.758 164.608 127.74L167.082 124.022C167.088 124.013 167.093 124.002 167.095 123.991C167.098 123.979 167.1 123.967 167.099 123.955C167.098 123.943 167.096 123.932 167.092 123.921C167.088 123.91 167.082 123.901 167.075 123.893C167.061 123.878 167.043 123.87 167.024 123.872C167.006 123.874 166.989 123.884 166.976 123.902L164.504 127.62C164.498 127.629 164.494 127.64 164.491 127.651C164.488 127.662 164.487 127.674 164.487 127.686C164.488 127.698 164.49 127.71 164.495 127.721C164.499 127.732 164.504 127.741 164.511 127.749L164.512 127.75Z" fill="#0C0C0C"/>
</g>
<g opacity="0.2">
<path d="M165.694 129.186C165.708 129.201 165.726 129.209 165.744 129.207C165.762 129.205 165.779 129.194 165.791 129.176L167.764 126.21C167.775 126.192 167.781 126.169 167.779 126.145C167.777 126.122 167.769 126.1 167.755 126.085C167.742 126.07 167.724 126.062 167.706 126.063C167.688 126.064 167.671 126.073 167.659 126.09L165.685 129.056C165.679 129.065 165.675 129.076 165.672 129.087C165.669 129.099 165.668 129.111 165.668 129.123C165.669 129.135 165.672 129.146 165.676 129.157C165.68 129.168 165.685 129.177 165.692 129.185L165.694 129.186Z" fill="#0C0C0C"/>
</g>
<path d="M167.846 132.237L162.611 163.265C162.598 163.335 162.586 163.407 162.572 163.477C161.396 165.084 160.122 166.564 158.763 167.902C158.49 168.168 158.216 168.43 157.936 168.683C157.762 168.708 157.588 168.721 157.414 168.721C156.48 168.721 155.564 168.4 154.756 167.79C153.947 167.181 153.276 166.304 152.809 165.249L142.831 142.695L152.045 135.742L155.167 142.8L157.455 129.244L167.846 132.237Z" fill="#0CBC8B"/>
<path d="M151.733 146.383C151.702 146.876 151.639 147.754 151.552 148.91C151.116 154.821 150.098 167.994 149.627 174.082C143.669 176.57 137.276 176.654 131.281 174.325H131.279C126.852 172.594 122.778 169.589 119.357 165.53C119.376 160.087 119.316 153.965 119.035 150.029C118.196 138.267 118.989 136.426 120.293 134.723C120.399 134.584 120.51 134.448 120.621 134.315C121.968 132.717 123.659 131.674 126.123 131.238C127.753 130.951 130.205 130.743 130.205 130.743C130.205 130.743 130.413 136.233 135.363 136.536C142.103 136.95 141.653 130.743 141.687 130.743C143.383 130.743 147.155 130.882 149.535 132.464C149.537 132.464 149.537 132.464 149.54 132.467C150.019 132.772 150.455 133.181 150.829 133.677C153.554 137.449 152.209 139.062 151.733 146.383Z" fill="#0CBC8B"/>
<path d="M141.157 119.72C140.184 120.366 139.074 120.57 138.003 120.301C137.966 120.291 137.928 120.296 137.893 120.315C137.857 120.333 137.827 120.364 137.805 120.404C137.783 120.444 137.77 120.491 137.768 120.54C137.765 120.589 137.774 120.638 137.792 120.682C138.112 121.417 138.869 122.674 140.169 122.162C141.008 121.831 141.325 120.703 141.443 120.005C141.451 119.957 141.448 119.907 141.435 119.86C141.422 119.814 141.399 119.773 141.369 119.743C141.339 119.713 141.303 119.695 141.266 119.691C141.228 119.687 141.19 119.697 141.157 119.72Z" fill="white"/>
<path d="M141.217 114.07C141.477 114.07 141.687 113.795 141.687 113.456C141.687 113.117 141.477 112.842 141.217 112.842C140.958 112.842 140.748 113.117 140.748 113.456C140.748 113.795 140.958 114.07 141.217 114.07Z" fill="#0C0C0C"/>
<path d="M136.702 115.102C136.961 115.102 137.171 114.828 137.171 114.489C137.171 114.15 136.961 113.875 136.702 113.875C136.442 113.875 136.232 114.15 136.232 114.489C136.232 114.828 136.442 115.102 136.702 115.102Z" fill="#0C0C0C"/>
<path d="M150.694 159.634C150.691 159.634 150.688 159.634 150.685 159.634C150.666 159.63 150.648 159.617 150.637 159.597C150.625 159.577 150.62 159.552 150.623 159.527L151.453 148.594C151.455 148.581 151.458 148.569 151.462 148.558C151.467 148.548 151.474 148.538 151.481 148.53C151.489 148.523 151.498 148.517 151.507 148.514C151.516 148.511 151.526 148.511 151.535 148.513C151.554 148.516 151.572 148.53 151.583 148.55C151.595 148.57 151.6 148.595 151.597 148.62L150.767 159.553C150.764 159.576 150.755 159.596 150.742 159.611C150.728 159.626 150.711 159.634 150.694 159.634Z" fill="#0C0C0C"/>
<path d="M145.666 159.107L150.206 156.458C150.306 156.401 150.414 156.37 150.523 156.37C150.632 156.369 150.74 156.398 150.84 156.455C150.94 156.512 151.03 156.596 151.104 156.7C151.178 156.805 151.235 156.929 151.27 157.063C151.33 157.315 151.316 157.587 151.231 157.826C151.146 158.065 150.996 158.254 150.811 158.357L149.837 158.926L153.526 158.975C153.938 158.971 154.442 159.309 154.415 159.911C154.416 160.143 154.357 160.369 154.247 160.552C154.137 160.735 153.983 160.864 153.81 160.917C153.811 160.922 153.812 160.927 153.812 160.933C153.812 160.937 153.811 160.94 153.81 160.944L154.443 160.939C154.56 160.938 154.676 160.971 154.782 161.035C154.888 161.1 154.981 161.195 155.056 161.313C155.13 161.431 155.184 161.569 155.212 161.718C155.24 161.866 155.243 162.021 155.22 162.171C155.179 162.406 155.078 162.616 154.934 162.765C154.789 162.915 154.609 162.995 154.425 162.992L154.156 162.995C154.152 163.005 154.147 163.014 154.141 163.022C154.323 163.075 154.485 163.212 154.597 163.407C154.71 163.602 154.765 163.842 154.754 164.086C154.736 164.352 154.642 164.599 154.49 164.778C154.339 164.957 154.141 165.055 153.937 165.052L153.268 165.058C153.278 165.067 153.285 165.078 153.291 165.092C153.296 165.105 153.299 165.12 153.299 165.135C153.299 165.153 153.294 165.17 153.286 165.185C153.439 165.292 153.56 165.461 153.632 165.666C153.703 165.872 153.721 166.102 153.682 166.322C153.638 166.552 153.536 166.756 153.393 166.9C153.249 167.045 153.073 167.122 152.891 167.119L147.25 167.172C146.46 167.179 145.687 166.878 145.03 166.308C144.372 165.738 143.86 164.924 143.559 163.971C143.299 163.149 143.295 162.227 143.547 161.402C143.799 160.576 144.288 159.911 144.909 159.548L145.666 159.107Z" fill="#E98862"/>
<g opacity="0.2">
<path d="M150.158 160.892C150.158 160.917 150.166 160.941 150.18 160.959C150.193 160.976 150.212 160.986 150.231 160.986L153.739 161.028C153.759 161.028 153.777 161.018 153.791 161C153.805 160.983 153.812 160.959 153.813 160.934C153.813 160.909 153.805 160.884 153.792 160.866C153.778 160.849 153.76 160.838 153.741 160.838L150.232 160.797C150.212 160.797 150.194 160.807 150.18 160.825C150.167 160.842 150.159 160.866 150.159 160.892H150.158Z" fill="#0C0C0C"/>
</g>
<g opacity="0.2">
<path d="M150.102 162.913C150.102 162.939 150.109 162.963 150.123 162.98C150.137 162.998 150.155 163.008 150.174 163.008L154.09 163.054C154.109 163.054 154.127 163.044 154.141 163.026C154.155 163.009 154.162 162.985 154.162 162.959C154.162 162.935 154.154 162.911 154.14 162.893C154.127 162.876 154.109 162.865 154.09 162.865L150.174 162.819C150.155 162.819 150.136 162.829 150.123 162.846C150.109 162.864 150.102 162.888 150.102 162.913Z" fill="#0C0C0C"/>
</g>
<g opacity="0.2">
<path d="M150.031 165.1C150.031 165.125 150.038 165.15 150.052 165.167C150.066 165.185 150.084 165.195 150.103 165.195L153.227 165.232C153.246 165.232 153.264 165.222 153.278 165.204C153.291 165.187 153.299 165.162 153.299 165.137C153.299 165.112 153.291 165.088 153.278 165.07C153.264 165.053 153.246 165.043 153.227 165.043L150.103 165.006C150.084 165.006 150.066 165.016 150.052 165.034C150.038 165.051 150.031 165.076 150.031 165.101V165.1Z" fill="#0C0C0C"/>
</g>
<path d="M146.966 169.669L131.281 174.325H131.279C126.852 172.594 122.778 169.589 119.357 165.53C118.989 165.094 118.63 164.648 118.278 164.19C117.665 163.392 117.079 162.561 116.52 161.698L118.716 138.624C118.955 136.764 119.751 135.105 120.927 134.011C122.103 132.917 123.564 132.478 124.988 132.791C126.412 133.104 127.682 134.143 128.519 135.68C129.357 137.216 129.693 139.124 129.453 140.984L128.065 162.649L145.554 157.477L146.966 169.669Z" fill="#0CBC8B"/>
<path d="M124.527 163.5C124.518 163.501 124.508 163.5 124.499 163.496C124.49 163.492 124.482 163.486 124.474 163.478C124.467 163.469 124.461 163.459 124.457 163.448C124.453 163.437 124.45 163.425 124.449 163.413C124.449 163.4 124.45 163.388 124.453 163.376C124.456 163.364 124.46 163.353 124.467 163.344C124.473 163.334 124.48 163.326 124.489 163.321C124.498 163.315 124.507 163.312 124.516 163.311L128.023 162.331C128.032 162.33 128.042 162.33 128.051 162.333C128.061 162.336 128.069 162.341 128.077 162.349C128.085 162.356 128.091 162.366 128.096 162.376C128.101 162.387 128.104 162.399 128.106 162.411C128.107 162.423 128.107 162.436 128.104 162.448C128.102 162.46 128.098 162.471 128.092 162.481C128.086 162.491 128.079 162.5 128.071 162.506C128.063 162.513 128.054 162.517 128.044 162.519L124.537 163.498C124.534 163.499 124.53 163.5 124.527 163.5Z" fill="#0C0C0C"/>
<path d="M146.966 169.669C146.97 169.693 146.967 169.718 146.957 169.739C146.947 169.76 146.932 169.776 146.913 169.782L131.676 174.474C131.579 174.438 131.484 174.404 131.39 174.366L146.807 169.624L145.433 157.62L128.048 162.519C128.037 162.522 128.025 162.521 128.014 162.516C128.004 162.512 127.994 162.505 127.985 162.494C127.978 162.483 127.973 162.47 127.969 162.456C127.966 162.442 127.965 162.427 127.966 162.412L128.94 150.032C128.942 150.02 128.946 150.008 128.951 149.997C128.956 149.987 128.963 149.978 128.971 149.971C128.979 149.964 128.987 149.959 128.997 149.956C129.006 149.954 129.016 149.953 129.025 149.956C129.044 149.96 129.061 149.973 129.072 149.993C129.084 150.013 129.088 150.039 129.086 150.063L128.125 162.317L145.465 157.408C145.474 157.405 145.484 157.404 145.494 157.406C145.503 157.409 145.512 157.413 145.52 157.421C145.529 157.427 145.536 157.435 145.542 157.445C145.548 157.454 145.552 157.465 145.554 157.477L146.966 169.669Z" fill="#0C0C0C"/>
<path d="M29.0486 222.644C44.7384 222.644 57.4575 206.029 57.4575 185.533C57.4575 165.037 44.7384 148.422 29.0486 148.422C13.3589 148.422 0.639832 165.037 0.639832 185.533C0.639832 206.029 13.3589 222.644 29.0486 222.644Z" fill="white"/>
<path opacity="0.09" d="M29.0486 222.644C44.7384 222.644 57.4575 206.029 57.4575 185.533C57.4575 165.037 44.7384 148.422 29.0486 148.422C13.3589 148.422 0.639832 165.037 0.639832 185.533C0.639832 206.029 13.3589 222.644 29.0486 222.644Z" fill="#367CFF"/>
<path d="M21.2252 164.484C21.2252 164.484 21.533 175.661 27.2439 176.175L28.2112 161.436L21.2252 164.484Z" fill="#0A0A0A"/>
<path d="M22.325 178.458C24.1935 178.458 25.7082 176.479 25.7082 174.038C25.7082 171.597 24.1935 169.619 22.325 169.619C20.4565 169.619 18.9418 171.597 18.9418 174.038C18.9418 176.479 20.4565 178.458 22.325 178.458Z" fill="#0A0A0A"/>
<path d="M35.5626 181.362C35.5324 181.357 35.1982 188.604 28.7529 187.973C24.2909 187.537 22.7001 181.353 22.5981 181.353C23.1079 181.242 23.6109 181.083 24.103 180.876C24.8055 180.383 25.6749 179.87 25.9012 178.088C26.0318 177.06 25.8105 171.804 25.8785 170.765L32.7276 172.762C32.6309 174.957 31.962 180.046 34.3097 180.947C34.7 181.096 35.1208 181.233 35.5626 181.362Z" fill="#E98862"/>
<path opacity="0.5" d="M32.8234 178.867C32.716 178.414 32.6469 177.948 32.6173 177.477C32.5421 176.401 32.5571 175.318 32.6621 174.247C31.27 174.002 29.9586 173.251 28.8767 172.081C28.7495 172.694 28.0501 175.375 28.2438 175.958C28.61 177.062 30.3301 178.867 32.8234 178.867Z" fill="#0C0C0C"/>
<path d="M31.7504 176.914C29.0378 176.959 25.6466 175.171 25.2263 170.411L24.8471 166.115C24.4265 161.355 25.9997 157.206 29.4307 156.69C32.8616 156.173 35.7667 159.645 36.1873 164.406L36.3551 166.307C36.5164 168.135 36.5904 176.834 31.7504 176.914Z" fill="#E98862"/>
<path d="M35.3718 166.18C35.6067 166.18 35.7972 165.931 35.7972 165.624C35.7972 165.317 35.6067 165.068 35.3718 165.068C35.1369 165.068 34.9464 165.317 34.9464 165.624C34.9464 165.931 35.1369 166.18 35.3718 166.18Z" fill="#0C0C0C"/>
<path d="M31.0239 166.829C31.2589 166.829 31.4493 166.58 31.4493 166.274C31.4493 165.967 31.2589 165.718 31.0239 165.718C30.789 165.718 30.5985 165.967 30.5985 166.274C30.5985 166.58 30.789 166.829 31.0239 166.829Z" fill="#0C0C0C"/>
<path opacity="0.5" d="M33.1815 170.504H33.1883C33.3273 170.482 33.4653 170.45 33.6016 170.408C33.8052 170.343 34.0737 170.229 34.0526 169.991C34.0284 169.72 33.2016 166.879 33.1073 166.556C33.1032 166.542 33.0971 166.529 33.0892 166.518C33.0813 166.508 33.0719 166.499 33.0615 166.493C33.051 166.487 33.0398 166.483 33.0284 166.483C33.0169 166.482 33.0055 166.485 32.9948 166.49C32.9842 166.496 32.9744 166.504 32.9661 166.514C32.9578 166.524 32.9511 166.536 32.9464 166.55C32.9417 166.564 32.9392 166.578 32.9388 166.593C32.9385 166.608 32.9405 166.623 32.9445 166.637C33.2974 167.847 33.8635 169.834 33.8795 170.017C33.6618 170.177 33.4179 170.267 33.1682 170.278C33.1452 170.281 33.1238 170.295 33.1088 170.318C33.0938 170.341 33.0863 170.37 33.0881 170.4C33.0898 170.43 33.1007 170.458 33.1182 170.478C33.1357 170.498 33.1585 170.507 33.1815 170.505V170.504Z" fill="#0C0C0C"/>
<path opacity="0.5" d="M32.5683 172.485C33.1255 172.444 33.6675 172.232 34.1505 171.866C34.1696 171.851 34.1833 171.827 34.189 171.798C34.1946 171.77 34.1917 171.74 34.1809 171.714C34.1701 171.689 34.1521 171.669 34.1307 171.661C34.1094 171.652 34.0863 171.654 34.0661 171.667C33.0229 172.421 32.0251 172.465 31.1811 171.793C31.1641 171.779 31.1465 171.766 31.1284 171.754C31.1075 171.744 31.0842 171.744 31.0635 171.755C31.0427 171.766 31.0261 171.787 31.0169 171.814C31.0078 171.841 31.007 171.871 31.0145 171.899C31.0221 171.926 31.0375 171.949 31.0575 171.962C31.0641 171.967 31.0752 171.976 31.0904 171.988C31.5342 172.342 32.0487 172.515 32.5683 172.485Z" fill="#0C0C0C"/>
<path d="M22.0576 167.336L25.132 166.896C27.4968 165.898 28.4794 160.767 28.4794 160.767C28.4794 160.767 30.5985 163.915 36.8784 162.478C36.8784 162.478 36.6351 151.902 27.0843 153.391C23.7588 153.91 21.2513 158.266 21.2254 163.962C21.2075 167.954 22.0576 167.336 22.0576 167.336Z" fill="#0A0A0A"/>
<path d="M25.5675 171.829C24.5247 171.987 23.5509 170.656 23.4307 169.294C23.3105 167.932 24.0892 167.054 25.132 166.897L25.7498 167.728L26.464 171.694L25.5675 171.829Z" fill="#E98862"/>
<path d="M33.8674 164.237C34.1749 164.015 34.5225 163.905 34.8739 163.918C35.0474 163.923 35.2193 163.962 35.3839 164.034C35.5474 164.104 35.7035 164.201 35.8484 164.322C35.863 164.334 35.8733 164.353 35.8775 164.375C35.8816 164.397 35.8791 164.42 35.8705 164.439C35.8619 164.459 35.8479 164.473 35.8314 164.479C35.8149 164.486 35.7972 164.483 35.7819 164.473L35.7776 164.47C35.6403 164.363 35.4932 164.28 35.3399 164.221C35.188 164.162 35.0302 164.133 34.8717 164.136C34.5564 164.138 34.2471 164.249 33.9752 164.458L33.9687 164.463C33.9575 164.473 33.9449 164.479 33.9316 164.482C33.9184 164.486 33.9048 164.485 33.8917 164.481C33.8786 164.477 33.8662 164.47 33.8553 164.46C33.8444 164.45 33.8352 164.437 33.8282 164.422C33.8212 164.407 33.8166 164.39 33.8146 164.373C33.8127 164.355 33.8135 164.338 33.8169 164.321C33.8203 164.304 33.8263 164.288 33.8345 164.274C33.8427 164.26 33.853 164.248 33.8647 164.24L33.8674 164.237Z" fill="#0C0C0C"/>
<path d="M31.112 164.9C30.8113 164.775 30.4908 164.757 30.1831 164.847C30.0281 164.892 29.8791 164.966 29.7413 165.069C29.6019 165.17 29.4729 165.295 29.3572 165.439L29.3536 165.443C29.3404 165.456 29.3242 165.462 29.3079 165.46C29.2916 165.458 29.2764 165.448 29.2652 165.433C29.254 165.417 29.2476 165.397 29.2472 165.375C29.2467 165.354 29.2524 165.333 29.2629 165.317C29.3835 165.156 29.519 165.016 29.6663 164.9C29.8145 164.782 29.9754 164.694 30.1437 164.638C30.4839 164.523 30.8416 164.529 31.1794 164.656C31.1925 164.66 31.2047 164.668 31.2154 164.679C31.2261 164.69 31.2351 164.703 31.2417 164.718C31.2484 164.734 31.2526 164.75 31.2541 164.768C31.2556 164.785 31.2544 164.803 31.2506 164.82C31.2467 164.837 31.2403 164.853 31.2317 164.866C31.2231 164.88 31.2125 164.891 31.2006 164.899C31.1886 164.907 31.1755 164.912 31.162 164.913C31.1486 164.914 31.1351 164.912 31.1224 164.907H31.1197L31.112 164.9Z" fill="#0C0C0C"/>
<path opacity="0.52" d="M32.6265 173.561C32.7274 173.556 32.8277 173.539 32.9264 173.512C32.9484 173.505 32.9673 173.487 32.9793 173.462C32.9914 173.437 32.9955 173.407 32.9908 173.378C32.9861 173.349 32.973 173.323 32.9543 173.307C32.9356 173.29 32.9126 173.284 32.8904 173.289C32.7362 173.348 32.5743 173.363 32.4153 173.333C32.2563 173.304 32.104 173.231 31.9685 173.118C31.9506 173.099 31.9276 173.09 31.9046 173.093C31.8817 173.096 31.8605 173.111 31.8459 173.134C31.8313 173.157 31.8244 173.187 31.8267 173.217C31.829 173.248 31.8403 173.275 31.8582 173.294C32.083 173.497 32.3545 173.591 32.6265 173.561Z" fill="#0C0C0C"/>
<path opacity="0.1" d="M30.4348 170.592C30.882 170.572 31.2353 170.208 31.2238 169.779C31.2124 169.351 30.8404 169.02 30.3932 169.04C29.9459 169.061 29.5926 169.425 29.6041 169.853C29.6156 170.282 29.9875 170.613 30.4348 170.592Z" fill="#0C0C0C"/>
<path opacity="0.1" d="M35.2216 169.409C35.2342 169.837 35.6059 170.167 36.0533 170.148C36.1306 170.145 36.2074 170.13 36.2825 170.106C36.3355 169.603 36.3679 169.117 36.3856 168.666C36.2651 168.613 36.1381 168.589 36.011 168.596C35.5645 168.616 35.2115 168.979 35.2216 169.409Z" fill="#0C0C0C"/>
<path d="M45.1887 188.996C45.1693 191.526 44.5043 194.543 44.2673 198.189C44.2044 199.162 42.6057 201.976 42.3735 205.107C42.0809 209.094 42.7317 215.311 42.8187 217.999C38.325 221.247 33.2418 222.845 28.1089 222.623C22.976 222.4 17.985 220.366 13.666 216.736C13.55 209.83 13.4121 201.303 13.2356 199.26C12.6624 192.512 12.8172 188.244 13.6443 186.247C14.9961 182.987 17.4023 181.992 19.9198 181.543C21.4578 181.272 23.7673 181.079 23.7673 181.079C23.7673 181.079 23.9632 186.251 28.6305 186.538C34.9834 186.93 34.5602 181.079 34.5916 181.079C36.8963 181.079 41.2637 181.799 42.9372 183.29C44.7123 184.867 45.2104 186.737 45.1887 188.996Z" fill="#FFC239"/>
<path d="M23.2401 192.932L14.6213 217.502C11.312 214.95 8.4328 211.549 6.1572 207.503L13.3468 187.007L23.2401 192.932Z" fill="#FFC239"/>
<path d="M52.151 207.132C50.4625 210.209 48.4246 212.932 46.1076 215.207C45.345 215.959 44.5532 216.659 43.7353 217.304L34.8891 191.899L44.7945 186.01L52.151 207.132Z" fill="#FFC239"/>
<path d="M88.1719 77.2766C104.507 77.2766 117.75 59.9776 117.75 38.6383C117.75 17.2989 104.507 0 88.1719 0C71.8364 0 58.5938 17.2989 58.5938 38.6383C58.5938 59.9776 71.8364 77.2766 88.1719 77.2766Z" fill="white"/>
<path opacity="0.09" d="M88.1719 77.2766C104.507 77.2766 117.75 59.9776 117.75 38.6383C117.75 17.2989 104.507 0 88.1719 0C71.8364 0 58.5938 17.2989 58.5938 38.6383C58.5938 59.9776 71.8364 77.2766 88.1719 77.2766Z" fill="#367CFF"/>
<path d="M93.8912 15.501C93.8912 15.501 95.7642 12.8493 95.6193 7.79853C95.5073 3.88792 93.1577 6.99423 93.1577 6.99423C93.1577 6.99423 93.0559 4.1795 91.5616 4.81447C90.0674 5.44945 89.6079 8.54028 89.6079 8.54028" fill="#0C0C0C"/>
<path d="M83.6816 7.01001C83.6816 7.01001 76.2223 9.87371 80.8379 22.6888L81.5191 22.5883L82.9019 22.3849" fill="#0C0C0C"/>
<path d="M94.2525 35.9819C94.2186 35.9762 93.8414 44.1512 86.5712 43.4373C81.5382 42.9448 79.7436 35.9692 79.6283 35.9692C80.1709 35.8185 80.8415 35.5901 81.108 35.5115C81.6889 35.3354 82.215 34.9324 82.6162 34.3562C83.0175 33.78 83.275 33.0578 83.3544 32.2858C83.5016 31.127 83.2518 25.1987 83.3287 24.0264L91.0543 26.2788C90.9464 28.7552 90.1909 34.4955 92.839 35.5115C93.2798 35.6799 93.7545 35.8347 94.2525 35.9819Z" fill="#E98862"/>
<path opacity="0.52" d="M91.1629 33.1659C91.042 32.6564 90.964 32.1312 90.9305 31.5996C90.8456 30.3865 90.8626 29.1649 90.981 27.9566C89.4108 27.6797 87.9315 26.833 86.7112 25.5127C86.5676 26.2048 85.7787 29.229 85.9971 29.8867C86.4102 31.1302 88.3504 33.1659 91.1629 33.1659Z" fill="#0C0C0C"/>
<path d="M89.9017 30.563C86.8546 30.9209 82.9213 29.2943 82.1326 23.9884L81.4209 19.2008C80.6323 13.8936 82.1264 9.05228 85.9507 8.08245C89.775 7.1123 93.2728 10.6887 94.0617 15.9947L94.376 18.1141C94.4747 18.8442 94.5349 19.5823 94.5564 20.3232C94.6246 22.2818 94.7226 25.2586 94.0019 27.4592C93.3219 29.5373 91.8489 30.3346 89.9017 30.563Z" fill="#E98862"/>
<path opacity="0.5" d="M90.3624 25.3175C90.9205 25.3038 91.4683 25.1189 91.9616 24.7779C91.9723 24.7716 91.982 24.7624 91.9899 24.7511C91.9979 24.7398 92.004 24.7265 92.0079 24.712C92.0118 24.6975 92.0135 24.6821 92.0127 24.6667C92.012 24.6514 92.0088 24.6364 92.0035 24.6226C91.9982 24.6089 91.9909 24.5967 91.9819 24.5868C91.9729 24.5769 91.9624 24.5695 91.9511 24.565C91.9399 24.5605 91.928 24.559 91.9163 24.5606C91.9046 24.5623 91.8933 24.567 91.883 24.5745C90.819 25.2761 89.8204 25.2695 88.9965 24.5574C88.9799 24.5424 88.9627 24.5284 88.945 24.5157C88.9347 24.5091 88.9236 24.5052 88.9122 24.5043C88.9007 24.5033 88.8893 24.5053 88.8784 24.5101C88.8676 24.5149 88.8576 24.5225 88.849 24.5324C88.8404 24.5423 88.8334 24.5543 88.8283 24.5677C88.8233 24.5811 88.8203 24.5957 88.8196 24.6106C88.8188 24.6255 88.8204 24.6405 88.8241 24.6546C88.8278 24.6688 88.8335 24.6819 88.8411 24.6931C88.8487 24.7043 88.8578 24.7135 88.8681 24.7201C88.8746 24.7248 88.8853 24.7343 88.9003 24.7473C89.3333 25.1232 89.8424 25.3218 90.3624 25.3175Z" fill="#0C0C0C"/>
<path opacity="0.52" d="M90.3892 26.3969C90.4902 26.3965 90.5909 26.3849 90.6903 26.3622C90.7016 26.3597 90.7124 26.3543 90.7221 26.3463C90.7317 26.3384 90.7401 26.328 90.7467 26.3158C90.7534 26.3036 90.7581 26.2898 90.7606 26.2753C90.7631 26.2607 90.7635 26.2456 90.7615 26.2309C90.7596 26.2162 90.7555 26.2021 90.7494 26.1894C90.7433 26.1768 90.7354 26.1658 90.726 26.1572C90.7167 26.1486 90.7062 26.1424 90.695 26.1391C90.6839 26.1358 90.6723 26.1354 90.6611 26.1379C90.5053 26.1888 90.343 26.1959 90.185 26.1585C90.027 26.1211 89.8769 26.0402 89.7448 25.9212C89.7274 25.9019 89.7049 25.8924 89.6822 25.8946C89.6595 25.8968 89.6383 25.9105 89.6233 25.9328C89.6082 25.9551 89.6004 25.9843 89.6016 26.014C89.6028 26.0437 89.6129 26.0716 89.6297 26.0917C89.8482 26.3052 90.1166 26.413 90.3892 26.3969Z" fill="#0C0C0C"/>
<path d="M93.1463 19.451C93.4113 19.451 93.6261 19.1704 93.6261 18.8243C93.6261 18.4781 93.4113 18.1975 93.1463 18.1975C92.8814 18.1975 92.6665 18.4781 92.6665 18.8243C92.6665 19.1704 92.8814 19.451 93.1463 19.451Z" fill="#0C0C0C"/>
<path d="M88.481 20.1634C88.7459 20.1634 88.9607 19.8828 88.9607 19.5367C88.9607 19.1905 88.7459 18.9099 88.481 18.9099C88.216 18.9099 88.0012 19.1905 88.0012 19.5367C88.0012 19.8828 88.216 20.1634 88.481 20.1634Z" fill="#0C0C0C"/>
<path d="M82.6105 25.5446C81.4483 25.8393 80.2648 24.4541 80.0389 22.9358C79.813 21.4176 80.6311 20.3416 81.7931 20.0469L82.5428 20.9121L83.6093 25.2912L82.6105 25.5446Z" fill="#E98862"/>
<path d="M83.4306 22.8253C83.4306 22.8253 82.7812 15.2072 84.4637 14.3296C85.5841 13.7449 88.7039 15.2334 91.2269 13.9647C92.3307 13.4094 93.4673 13.5225 93.6752 14.202C93.7577 14.4708 93.9139 10.2885 91.7014 7.66554C89.9399 5.5774 85.1807 5.99534 83.1687 7.29246C77.5976 10.884 81.5989 20.4342 81.5989 20.4342L82.2204 22.9665L83.4306 22.8253Z" fill="#0C0C0C"/>
<g opacity="0.52">
<path d="M91.0777 23.4309H91.0852C91.4601 23.3361 92.0806 23.1254 92.0284 22.7593C91.9836 22.4557 90.8676 19.3396 90.7409 18.9854C90.7355 18.9704 90.7278 18.9568 90.7184 18.9456C90.709 18.9344 90.6979 18.9257 90.686 18.92C90.674 18.9144 90.6612 18.9118 90.6485 18.9126C90.6358 18.9134 90.6233 18.9174 90.6117 18.9245C90.6002 18.9316 90.5898 18.9415 90.5812 18.9538C90.5726 18.9661 90.566 18.9805 90.5616 18.9962C90.5573 19.0119 90.5554 19.0285 90.556 19.0451C90.5565 19.0618 90.5596 19.0781 90.565 19.0932C91.0598 20.4731 91.8071 22.5997 91.8376 22.8067C91.8134 22.9014 91.4381 23.0843 91.0502 23.1813C91.0245 23.1863 91.0014 23.2044 90.986 23.2316C90.9705 23.2589 90.964 23.293 90.9678 23.3265C90.9716 23.36 90.9855 23.3902 91.0063 23.4103C91.0272 23.4305 91.0533 23.439 91.0789 23.4341L91.0777 23.4309Z" fill="#0C0C0C"/>
</g>
<path d="M91.3428 15.7954C91.7178 15.5605 92.1344 15.4623 92.5485 15.5111C92.7517 15.5334 92.9512 15.5954 93.1403 15.6949C93.3271 15.7919 93.5037 15.9193 93.666 16.074C93.6962 16.1013 93.7171 16.1427 93.7243 16.1896C93.7315 16.2365 93.7245 16.2853 93.7048 16.3256C93.685 16.3659 93.6541 16.3947 93.6184 16.4058C93.5828 16.4169 93.5453 16.4095 93.5137 16.3852L93.5028 16.3801C93.3556 16.2574 93.1972 16.1592 93.0312 16.0879C92.8681 16.0168 92.6976 15.9783 92.5256 15.9739C92.1865 15.9615 91.851 16.0665 91.5529 16.2781L91.5406 16.2873C91.5163 16.3054 91.4896 16.317 91.4619 16.3216C91.4342 16.3262 91.4061 16.3236 91.3792 16.314C91.3522 16.3044 91.327 16.288 91.3049 16.2656C91.2829 16.2433 91.2644 16.2155 91.2505 16.1838C91.2367 16.1521 91.2277 16.1172 91.2242 16.081C91.2207 16.0448 91.2227 16.0081 91.23 15.9729C91.2374 15.9377 91.25 15.9048 91.2671 15.8759C91.2842 15.8471 91.3055 15.823 91.3297 15.8049L91.3428 15.7954Z" fill="#0C0C0C"/>
<path d="M88.5919 16.7665C88.2653 16.6471 87.9204 16.6424 87.592 16.7529C87.4251 16.8072 87.2654 16.8942 87.1185 17.011C86.9685 17.1286 86.8304 17.2703 86.7074 17.4328L86.6996 17.4429C86.6731 17.4764 86.6377 17.495 86.6008 17.4949C86.5639 17.4947 86.5285 17.4758 86.5022 17.442C86.4758 17.4083 86.4606 17.3624 86.4598 17.3143C86.459 17.2661 86.4726 17.2194 86.4977 17.1841C86.6294 16.9857 86.7798 16.8098 86.9453 16.6607C87.1128 16.5086 87.2968 16.3901 87.4911 16.3091C87.6854 16.2254 87.8875 16.1769 88.0918 16.165C88.3011 16.15 88.5109 16.1738 88.715 16.2358C88.7699 16.2525 88.8175 16.2971 88.8473 16.3597C88.877 16.4222 88.8865 16.4977 88.8737 16.5694C88.8609 16.6411 88.8267 16.7032 88.7789 16.7421C88.731 16.7809 88.6732 16.7934 88.6183 16.7766L88.6057 16.7722L88.5919 16.7665Z" fill="#0C0C0C"/>
<path d="M90.0634 10.7483C90.893 10.3091 91.1643 8.65994 90.6694 7.0648C90.1745 5.46966 89.1009 4.53258 88.2713 4.97176C87.4417 5.41094 87.1704 7.06008 87.6652 8.65522C88.1601 10.2504 89.2338 11.1874 90.0634 10.7483Z" fill="#0C0C0C"/>
<path d="M104.301 44.4295C104.33 47.0484 103.546 49.9927 103.285 53.9794C103.232 54.7881 103.106 56.5698 102.939 58.8918C102.666 62.7363 102.279 68.0531 101.94 72.8454C97.0985 76.1651 91.6478 77.669 86.192 77.1906C80.7361 76.7122 75.4881 74.2701 71.0295 70.1349C70.9231 70.0306 70.8167 69.9295 70.7103 69.8316C70.4273 64.4138 70.0936 58.7275 69.7889 55.1356C69.2157 48.4289 68.4346 45.0898 68.8723 42.8342C68.9074 42.6421 68.9543 42.4541 69.0126 42.2719C70.2726 38.2788 74.2845 36.4971 77.0027 36.0169C78.6617 35.7231 81.1573 35.5115 81.1573 35.5115C81.1573 35.5115 81.3677 41.0967 86.4051 41.4063C93.2634 41.8296 92.8063 35.5115 92.8402 35.5115C93.9502 35.5115 99.9984 36.5666 101.51 37.8555C101.763 38.0704 102.006 38.3068 102.235 38.5631C102.892 39.2786 103.418 40.1765 103.775 41.1914C104.133 42.2063 104.312 43.3126 104.301 44.4295Z" fill="#383838"/>
<path d="M79.0486 48.4795L71.0295 70.1349C70.9231 70.0306 70.8167 69.9295 70.7103 69.8316C67.6016 66.854 64.9652 63.116 62.9475 58.8254L68.8723 42.8342L69.1069 42.1992L79.0486 48.4795Z" fill="#383838"/>
<path d="M78.2747 50.972L70.9811 70.0875C70.9327 70.0401 70.8868 69.9959 70.8384 69.9548L78.1224 50.874C78.1328 50.8475 78.1508 50.8273 78.1725 50.8179C78.1942 50.8084 78.2179 50.8104 78.2384 50.8235C78.2583 50.8369 78.2733 50.8601 78.2801 50.8879C78.2869 50.9158 78.285 50.946 78.2747 50.972Z" fill="white"/>
<path d="M115.255 54.1941C113.802 58.498 111.761 62.4202 109.231 65.769L102.939 58.8917L94.9465 50.1537L102.235 38.5631L102.257 38.5283L115.255 54.1941Z" fill="#383838"/>
<path d="M103.036 58.976C103.057 58.9747 103.076 58.9637 103.091 58.945C103.106 58.9264 103.115 58.9014 103.117 58.8746L103.532 52.5154C103.534 52.4861 103.527 52.4569 103.512 52.4343C103.498 52.4118 103.477 52.3976 103.454 52.3951C103.432 52.393 103.41 52.4023 103.393 52.4212C103.376 52.4401 103.365 52.467 103.362 52.4962L102.947 58.8557C102.945 58.885 102.952 58.9141 102.967 58.9366C102.981 58.9591 103.002 58.9732 103.025 58.9757L103.036 58.976Z" fill="white"/>
<path d="M227.447 244.591C243.028 244.591 255.658 228.092 255.658 207.739C255.658 187.385 243.028 170.886 227.447 170.886C211.867 170.886 199.236 187.385 199.236 207.739C199.236 228.092 211.867 244.591 227.447 244.591Z" fill="white"/>
<path opacity="0.09" d="M199.236 207.737C199.236 215.026 200.89 222.151 203.99 228.211C207.09 234.272 211.496 238.995 216.651 241.785C221.805 244.574 227.478 245.304 232.95 243.882C238.422 242.46 243.449 238.95 247.394 233.796C251.34 228.642 254.027 222.076 255.115 214.927C256.204 207.779 255.645 200.369 253.51 193.635C251.375 186.901 247.759 181.146 243.12 177.096C238.48 173.047 233.026 170.886 227.447 170.886C223.738 170.868 220.063 171.809 216.635 173.654C213.206 175.5 210.09 178.214 207.468 181.639C204.846 185.065 202.768 189.135 201.355 193.614C199.943 198.093 199.222 202.893 199.236 207.737Z" fill="#367CFF"/>
<path d="M240.248 187.402C239.798 194.225 240.215 196.539 242.384 200.449C244.214 203.745 233.805 200.943 229.199 199.872L233.263 184.355C233.263 184.355 240.406 185.006 240.248 187.402Z" fill="#0A0A0A"/>
<path d="M224.359 184.563C223 191.178 223.153 193.224 220.493 196.698C218.29 199.577 226.879 200.162 231.488 201.208L231.721 184.813C231.721 184.813 224.836 182.24 224.359 184.563Z" fill="#0A0A0A"/>
<path d="M224.817 203.802C224.847 203.797 225.185 211.112 231.69 210.474C236.194 210.034 237.8 203.792 237.903 203.792C237.388 203.68 236.881 203.519 236.384 203.311C235.675 202.813 234.797 202.295 234.569 200.496C234.437 199.459 234.66 194.154 234.592 193.104L227.678 195.119C227.775 197.335 228.452 202.472 226.082 203.381C225.687 203.532 225.263 203.671 224.817 203.802Z" fill="#E98862"/>
<path opacity="0.5" d="M227.581 201.283C227.69 200.827 227.76 200.357 227.789 199.881C227.866 198.796 227.85 197.702 227.744 196.621C229.15 196.373 230.473 195.616 231.565 194.434C231.694 195.054 232.4 197.76 232.204 198.348C231.835 199.461 230.098 201.283 227.581 201.283Z" fill="#0C0C0C"/>
<path d="M228.476 199.004C231.201 199.348 234.728 197.924 235.458 193.183L236.117 188.904C236.848 184.163 235.534 179.818 232.116 178.919C228.699 178.021 225.552 181.194 224.821 185.934L224.53 187.83C224.25 189.648 223.613 198.39 228.476 199.004Z" fill="#E98862"/>
<path d="M239.416 190.255L236.342 189.815C230.326 188.37 228.853 182.029 228.853 182.029C228.853 182.029 226.329 186.429 224.186 185.419C224.186 185.419 224.877 174.807 234.389 176.672C238.126 177.405 240.248 181.452 240.248 186.88C240.248 190.871 239.416 190.255 239.416 190.255Z" fill="#0A0A0A"/>
<path opacity="0.1" d="M231.09 192.137C231.129 191.707 230.797 191.302 230.349 191.232C229.9 191.162 229.505 191.454 229.465 191.884C229.426 192.314 229.758 192.719 230.207 192.789C230.655 192.859 231.05 192.567 231.09 192.137Z" fill="#0C0C0C"/>
<path opacity="0.1" d="M225.47 191.072C225.43 191.501 225.035 191.793 224.586 191.724C224.508 191.711 224.432 191.689 224.358 191.656C224.337 191.144 224.336 190.652 224.347 190.196C224.472 190.156 224.601 190.146 224.728 190.167C225.176 190.236 225.508 190.641 225.47 191.072Z" fill="#0C0C0C"/>
<path opacity="0.5" d="M227.451 192.399H227.444C227.305 192.361 227.169 192.314 227.034 192.256C226.834 192.168 226.571 192.024 226.608 191.787C226.649 191.517 227.665 188.751 227.78 188.437C227.785 188.423 227.792 188.41 227.801 188.4C227.809 188.389 227.82 188.381 227.831 188.376C227.842 188.37 227.853 188.368 227.865 188.369C227.877 188.369 227.888 188.373 227.899 188.38C227.91 188.387 227.919 188.396 227.927 188.407C227.935 188.419 227.941 188.432 227.944 188.447C227.948 188.462 227.95 188.477 227.949 188.492C227.948 188.508 227.945 188.523 227.939 188.536C227.506 189.714 226.808 191.651 226.78 191.833C226.989 192.018 227.228 192.135 227.478 192.174C227.501 192.18 227.52 192.197 227.533 192.221C227.546 192.245 227.551 192.275 227.547 192.304C227.544 192.333 227.532 192.36 227.514 192.378C227.496 192.395 227.473 192.404 227.451 192.4V192.399Z" fill="#0C0C0C"/>
<path d="M235.023 194.571C236.062 194.844 237.127 193.614 237.336 192.258C237.546 190.901 236.819 189.931 235.78 189.658L235.105 190.427L234.13 194.337L235.023 194.571Z" fill="#E98862"/>
<path d="M227.044 186.229C226.916 186.111 226.776 186.015 226.628 185.945C226.479 185.872 226.322 185.826 226.163 185.808C226.004 185.788 225.843 185.8 225.687 185.843C225.529 185.885 225.376 185.953 225.231 186.045L225.226 186.047C225.21 186.054 225.193 186.054 225.178 186.046C225.162 186.037 225.15 186.022 225.143 186.002C225.135 185.982 225.134 185.96 225.139 185.939C225.144 185.918 225.154 185.9 225.169 185.889C225.322 185.783 225.486 185.703 225.655 185.65C225.825 185.596 226 185.576 226.175 185.59C226.529 185.616 226.872 185.765 227.167 186.022C227.188 186.043 227.203 186.073 227.207 186.107C227.212 186.141 227.206 186.175 227.191 186.204C227.176 186.232 227.154 186.252 227.128 186.259C227.102 186.266 227.075 186.259 227.053 186.241L227.051 186.239L227.044 186.229Z" fill="#0C0C0C"/>
<path d="M229.843 186.735C230.191 186.645 230.551 186.678 230.885 186.831C231.051 186.906 231.207 187.012 231.349 187.147C231.489 187.28 231.617 187.436 231.728 187.611C231.74 187.628 231.746 187.651 231.745 187.674C231.744 187.697 231.736 187.719 231.723 187.735C231.71 187.75 231.693 187.759 231.675 187.758C231.657 187.757 231.64 187.746 231.628 187.729L231.625 187.724C231.518 187.567 231.396 187.428 231.262 187.31C231.13 187.192 230.985 187.101 230.832 187.04C230.528 186.915 230.205 186.898 229.894 186.99L229.887 186.992C229.861 187.001 229.833 186.995 229.81 186.977C229.787 186.959 229.771 186.93 229.764 186.896C229.758 186.862 229.762 186.826 229.776 186.796C229.79 186.766 229.812 186.744 229.838 186.736L229.843 186.735Z" fill="#0C0C0C"/>
<path d="M214.339 240.377C213.23 239.745 212.401 239.069 210.507 237.205C209.14 235.865 207.87 234.365 206.713 232.723L216.437 208.552L216.859 207.502L225.63 213.525L218.022 232.439L217.987 232.522L218.053 232.859" fill="#EA394A"/>
<path d="M246.678 220.932C246.423 224.517 246.368 230.091 246.385 235.048C242.719 239.392 238.241 242.399 233.403 243.766C228.565 245.133 223.536 244.812 218.823 242.834C218.246 235.36 217.388 224.376 216.905 217.613C216.415 210.607 214.974 208.294 218.907 204.939C221.073 203.498 224.508 203.371 226.052 203.371C225.528 210.012 236.241 210.829 236.507 203.371C244.52 204.35 248.229 204.593 246.678 220.932Z" fill="#EA394A"/>
<path d="M226.537 193.333C227.422 193.922 228.433 194.107 229.408 193.862C229.442 193.853 229.477 193.858 229.509 193.874C229.541 193.891 229.569 193.919 229.589 193.956C229.609 193.992 229.621 194.035 229.623 194.08C229.625 194.125 229.617 194.17 229.6 194.209C229.31 194.879 228.619 196.023 227.436 195.557C226.672 195.255 226.383 194.23 226.275 193.594C226.268 193.549 226.27 193.503 226.282 193.461C226.294 193.418 226.315 193.381 226.342 193.354C226.37 193.327 226.403 193.31 226.437 193.306C226.472 193.303 226.506 193.312 226.537 193.333Z" fill="white"/>
<path d="M226.481 188.188C226.718 188.188 226.909 187.938 226.909 187.63C226.909 187.321 226.718 187.071 226.481 187.071C226.245 187.071 226.054 187.321 226.054 187.63C226.054 187.938 226.245 188.188 226.481 188.188Z" fill="#0C0C0C"/>
<path d="M230.593 189.129C230.83 189.129 231.021 188.878 231.021 188.57C231.021 188.261 230.83 188.011 230.593 188.011C230.357 188.011 230.166 188.261 230.166 188.57C230.166 188.878 230.357 189.129 230.593 189.129Z" fill="#0C0C0C"/>
<path d="M217.852 229.677H217.86C217.878 229.674 217.893 229.662 217.904 229.644C217.915 229.626 217.919 229.602 217.917 229.58L217.16 219.625C217.159 219.613 217.157 219.602 217.152 219.592C217.148 219.583 217.142 219.574 217.135 219.567C217.128 219.56 217.12 219.555 217.112 219.552C217.103 219.55 217.094 219.549 217.086 219.551C217.077 219.553 217.069 219.556 217.061 219.562C217.054 219.568 217.047 219.575 217.042 219.584C217.037 219.593 217.033 219.604 217.031 219.615C217.029 219.626 217.028 219.637 217.029 219.648L217.786 229.604C217.788 229.625 217.796 229.643 217.808 229.657C217.821 229.67 217.836 229.678 217.852 229.677Z" fill="#0C0C0C"/>
<path d="M216.863 222.096H209.142V234.466H216.863V222.096Z" fill="white"/>
<path d="M213.701 228.281C213.701 227.464 213.887 226.666 214.235 225.986C214.582 225.307 215.076 224.778 215.654 224.465C216.232 224.153 216.868 224.071 217.481 224.231C218.094 224.39 218.658 224.784 219.1 225.362C219.542 225.939 219.843 226.675 219.965 227.477C220.087 228.278 220.024 229.109 219.785 229.863C219.545 230.618 219.14 231.263 218.62 231.717C218.1 232.171 217.489 232.413 216.863 232.413C216.025 232.412 215.221 231.976 214.628 231.201C214.035 230.427 213.702 229.376 213.701 228.281ZM214.996 228.281C214.996 228.763 215.106 229.235 215.311 229.636C215.516 230.037 215.808 230.35 216.149 230.534C216.49 230.719 216.865 230.767 217.228 230.673C217.59 230.579 217.922 230.347 218.183 230.006C218.445 229.665 218.622 229.23 218.694 228.757C218.766 228.284 218.729 227.793 218.588 227.348C218.447 226.902 218.208 226.521 217.901 226.253C217.593 225.985 217.233 225.842 216.863 225.842C216.368 225.843 215.894 226.1 215.544 226.557C215.194 227.015 214.997 227.635 214.996 228.281Z" fill="white"/>
<path d="M216.802 229.812C216.828 229.603 216.909 229.412 217.032 229.273C217.155 229.135 217.311 229.057 217.473 229.054C217.469 229.045 217.466 229.036 217.464 229.026L217.234 228.961C217.074 228.919 216.929 228.807 216.825 228.642C216.721 228.478 216.664 228.271 216.663 228.058C216.664 227.924 216.689 227.792 216.734 227.672C216.779 227.552 216.844 227.446 216.924 227.363C217.004 227.28 217.098 227.221 217.198 227.19C217.297 227.16 217.401 227.158 217.501 227.187L218.044 227.34C218.044 227.337 218.044 227.335 218.044 227.332C218.045 227.326 218.047 227.321 218.049 227.315C217.907 227.229 217.792 227.082 217.723 226.899C217.654 226.716 217.634 226.508 217.667 226.309C217.726 225.784 218.208 225.612 218.56 225.711L219.965 226.04L219.491 225.629C219.341 225.494 219.237 225.289 219.198 225.057C219.159 224.825 219.19 224.582 219.283 224.378C219.334 224.274 219.4 224.186 219.478 224.117C219.556 224.049 219.644 224.002 219.736 223.979C219.829 223.956 219.923 223.958 220.015 223.985C220.107 224.011 220.194 224.062 220.27 224.134L225.933 232.6L224.676 231.855C224.285 232.605 223.733 233.186 223.088 233.522C222.444 233.859 221.737 233.937 221.058 233.745L217.987 232.871C217.827 232.829 217.682 232.717 217.578 232.552C217.474 232.388 217.417 232.181 217.416 231.968C217.418 231.775 217.467 231.589 217.556 231.435C217.645 231.282 217.77 231.169 217.911 231.115C217.907 231.101 217.905 231.086 217.907 231.072C217.908 231.058 217.913 231.045 217.919 231.034C217.926 231.023 217.934 231.014 217.944 231.009L217.377 230.849C217.198 230.803 217.04 230.671 216.933 230.478C216.826 230.286 216.779 230.048 216.802 229.812Z" fill="#E98862"/>
<path opacity="0.2" d="M219.07 227.638C219.084 227.634 219.097 227.623 219.107 227.608C219.116 227.592 219.121 227.573 219.121 227.553C219.121 227.533 219.115 227.515 219.105 227.5C219.095 227.485 219.082 227.475 219.067 227.471L218.118 227.261C218.11 227.259 218.101 227.259 218.092 227.261C218.084 227.263 218.076 227.268 218.068 227.274C218.061 227.281 218.055 227.289 218.05 227.299C218.046 227.308 218.042 227.319 218.041 227.33C218.039 227.342 218.04 227.353 218.042 227.364C218.044 227.375 218.047 227.386 218.053 227.395C218.058 227.404 218.064 227.412 218.072 227.418C218.08 227.424 218.088 227.427 218.097 227.429L219.045 227.639C219.053 227.64 219.062 227.64 219.07 227.638Z" fill="#0C0C0C"/>
<path opacity="0.2" d="M218.84 229.391C218.855 229.387 218.868 229.376 218.878 229.361C218.887 229.345 218.892 229.326 218.892 229.306C218.892 229.287 218.886 229.268 218.877 229.253C218.867 229.238 218.853 229.228 218.839 229.224L217.539 228.923C217.53 228.92 217.521 228.92 217.513 228.922C217.504 228.924 217.496 228.928 217.488 228.935C217.481 228.941 217.475 228.949 217.47 228.959C217.465 228.969 217.462 228.98 217.46 228.991C217.459 229.002 217.459 229.014 217.461 229.025C217.463 229.036 217.467 229.047 217.472 229.056C217.477 229.065 217.484 229.073 217.491 229.079C217.499 229.085 217.507 229.089 217.516 229.09L218.816 229.391C218.824 229.393 218.832 229.393 218.84 229.391Z" fill="#0C0C0C"/>
<path opacity="0.2" d="M218.602 231.291C218.617 231.287 218.63 231.276 218.639 231.261C218.649 231.245 218.654 231.226 218.653 231.206C218.653 231.186 218.647 231.167 218.637 231.152C218.627 231.137 218.613 231.127 218.598 231.124L217.982 231.001C217.965 230.999 217.949 231.005 217.936 231.019C217.922 231.032 217.914 231.051 217.911 231.073C217.909 231.094 217.913 231.116 217.922 231.134C217.932 231.152 217.946 231.164 217.962 231.169L218.579 231.292C218.586 231.294 218.594 231.294 218.602 231.291Z" fill="#0C0C0C"/>
<path d="M250.612 228.765C247.138 235.292 242.144 240.182 236.374 242.708L236.372 242.705C235.09 242.377 222.863 236.071 221.246 235.657L223.016 224.872C227.56 226.053 235.847 230.607 240.417 231.792L237.193 212.697C237.076 211.853 237.089 210.988 237.23 210.151C237.371 209.314 237.638 208.521 238.015 207.82C238.393 207.119 238.873 206.522 239.428 206.065C239.983 205.608 240.602 205.3 241.249 205.157C241.896 205.015 242.558 205.042 243.197 205.237C243.836 205.432 244.44 205.79 244.972 206.292C245.504 206.793 245.955 207.428 246.298 208.158C246.641 208.889 246.869 209.702 246.97 210.549L250.612 228.765Z" fill="#EA394A"/>
<path d="M243.881 233.198C243.897 233.198 243.913 233.189 243.925 233.175C243.937 233.16 243.944 233.14 243.946 233.118C243.947 233.097 243.942 233.075 243.932 233.058C243.922 233.041 243.907 233.03 243.891 233.026L240.455 231.504C240.446 231.502 240.437 231.502 240.429 231.505C240.42 231.508 240.413 231.513 240.406 231.519C240.398 231.526 240.393 231.535 240.388 231.544C240.384 231.554 240.381 231.565 240.38 231.576C240.377 231.599 240.381 231.622 240.392 231.64C240.402 231.659 240.418 231.671 240.435 231.674L243.871 233.197C243.874 233.198 243.878 233.198 243.881 233.198Z" fill="#0C0C0C"/>
<path d="M240.508 231.577C240.509 231.604 240.503 231.631 240.49 231.652C240.482 231.661 240.473 231.668 240.463 231.672C240.453 231.676 240.443 231.677 240.433 231.675L223.126 225.002L221.391 235.616L236.295 242.739C236.248 242.759 236.2 242.779 236.154 242.8C236.121 242.814 236.088 242.828 236.052 242.84L221.294 235.761C221.278 235.756 221.263 235.742 221.254 235.722C221.245 235.703 221.242 235.68 221.246 235.658L223.016 224.873C223.018 224.862 223.022 224.852 223.027 224.843C223.032 224.834 223.039 224.827 223.046 224.821C223.054 224.815 223.062 224.81 223.071 224.808C223.08 224.806 223.089 224.807 223.097 224.81L240.362 231.491L238.408 220.964C238.405 220.942 238.41 220.919 238.42 220.901C238.43 220.882 238.446 220.87 238.463 220.866C238.471 220.864 238.48 220.864 238.489 220.867C238.497 220.869 238.505 220.873 238.512 220.88C238.52 220.886 238.526 220.894 238.531 220.904C238.535 220.913 238.538 220.924 238.54 220.935L240.508 231.577Z" fill="#0C0C0C"/>
<path d="M14.8273 217.82C14.8112 217.82 14.7953 217.816 14.7804 217.808C14.7658 217.8 14.7525 217.788 14.7413 217.773C14.7301 217.758 14.7213 217.741 14.7153 217.722C14.7093 217.703 14.7063 217.682 14.7063 217.661C14.7064 217.641 14.7097 217.62 14.7158 217.601L19.4543 202.888C19.4667 202.849 19.4904 202.819 19.5202 202.803C19.5499 202.787 19.5832 202.788 19.6128 202.804C19.6423 202.82 19.6657 202.851 19.6778 202.89C19.6899 202.929 19.6897 202.972 19.6772 203.011L14.9388 217.723C14.9296 217.752 14.9141 217.776 14.8943 217.794C14.8744 217.811 14.8511 217.82 14.8273 217.82Z" fill="#0C0C0C"/>
<path d="M42.7099 217.987H42.7046C42.6887 217.988 42.6729 217.985 42.6579 217.978C42.643 217.971 42.6293 217.96 42.6176 217.946C42.6058 217.932 42.5963 217.915 42.5896 217.896C42.5829 217.878 42.5791 217.857 42.5783 217.836L42.0502 202.789C42.0498 202.747 42.0614 202.707 42.0828 202.676C42.1042 202.646 42.1337 202.627 42.1653 202.623C42.1812 202.622 42.1971 202.625 42.212 202.633C42.227 202.64 42.2407 202.65 42.2525 202.664C42.2642 202.678 42.2737 202.695 42.2805 202.714C42.2872 202.733 42.2911 202.753 42.2918 202.774L42.8199 217.822C42.8215 217.863 42.8109 217.903 42.7904 217.934C42.7699 217.964 42.741 217.984 42.7099 217.987Z" fill="#0C0C0C"/>
</g>
<defs>
<clipPath id="clip0_33_1644">
<rect width="269.72" height="244.591" fill="white" transform="translate(0.639832)"/>
</clipPath>
</defs>
</svg>
