<svg width="270" height="251" viewBox="0 0 270 251" fill="none" xmlns="http://www.w3.org/2000/svg">
<g clip-path="url(#clip0_33_1982)">
<path d="M22.2069 250.017C14.5171 250.026 7.64737 243.48 5.03973 233.656C-0.55209 212.505 -5.47769 173.326 16.4151 130.947C40.6224 84.0889 89.0512 35.6473 123.115 30.6849C176.478 22.916 191.394 107.393 215.338 127.052C236.025 144.037 265.984 169.507 269.9 222.737C270.909 236.363 263.59 248.519 253.555 249.89C252.952 249.972 252.345 250.014 251.738 250.014L22.2069 250.017Z" fill="#F3F5FD"/>
<path d="M171.564 79.9813C171.564 79.9813 170.65 76.2054 168.818 74.699C166.987 73.1926 166.991 74.8888 167.805 76.5893C168.618 78.2898 170.538 81.8678 170.538 81.8678" fill="#E98862"/>
<path d="M170.488 78.4048C170.488 78.4048 167.281 73.1398 165.406 73.1398C165.406 73.1398 162.383 74.9523 162.426 76.1232C162.49 77.8877 167.601 84.4723 167.601 84.4723L170.488 78.4048Z" fill="#E98862"/>
<path d="M193.345 244.332C192.581 236.282 192.581 235.454 192.581 235.181H199.823C199.823 235.154 199.823 235.119 199.823 235.075C199.848 235.748 200.214 239.847 200.537 243.259L193.345 244.332Z" fill="#E98862"/>
<path d="M222.2 245.416C222.2 245.416 222.176 236.013 222.176 235.18H229.417C229.417 236.011 229.442 245.387 229.442 245.387L222.2 245.416Z" fill="#E98862"/>
<path d="M203.431 241.465L190.673 241.192C191.203 224.346 191.293 205.077 191.436 187.64C191.475 183.319 191.736 179.004 192.215 174.724C194.267 156.252 195.606 137.886 198.37 119.519L198.462 119.553L198.731 117.249L224.965 115.219L226.331 136.708C226.331 136.708 229.748 211.053 231.306 240.947L218.593 242.294C216.304 212.988 212.759 170.281 210.578 139.491C208.075 154.482 206.371 170.003 204.194 184.865C203.759 203.469 203.391 222.917 203.431 241.465Z" fill="#262626"/>
<path d="M213.397 248.929C213.202 248.928 213.01 248.877 212.832 248.778C212.654 248.679 212.494 248.536 212.362 248.356C212.23 248.177 212.129 247.965 212.065 247.734C212.001 247.503 211.976 247.259 211.991 247.015C212.012 246.678 212.11 246.355 212.272 246.084C212.435 245.814 212.655 245.608 212.908 245.489L221.337 241.949C221.5 241.882 221.673 241.859 221.844 241.883C222.015 241.906 222.18 241.976 222.327 242.087C223.486 243.096 224.872 243.611 226.282 243.557C227.38 243.46 228.434 242.977 229.323 242.164C229.401 242.084 229.496 242.033 229.597 242.017C229.697 242.002 229.799 242.023 229.89 242.077C229.982 242.131 230.059 242.217 230.113 242.325C230.167 242.432 230.195 242.556 230.195 242.683V247.851C230.195 248.003 230.171 248.154 230.124 248.295C230.077 248.436 230.009 248.564 229.923 248.671C229.837 248.779 229.735 248.864 229.622 248.922C229.51 248.98 229.389 249.009 229.268 249.009L213.397 248.929Z" fill="#C1D8ED"/>
<path d="M184.523 248.929C184.328 248.928 184.136 248.876 183.958 248.778C183.779 248.679 183.619 248.536 183.487 248.356C183.356 248.176 183.255 247.965 183.191 247.734C183.127 247.503 183.102 247.258 183.117 247.015C183.138 246.678 183.236 246.355 183.398 246.084C183.56 245.814 183.781 245.607 184.034 245.489L192.463 241.949C192.626 241.882 192.799 241.859 192.97 241.883C193.141 241.906 193.306 241.976 193.453 242.087C194.612 243.096 195.998 243.611 197.408 243.557C198.506 243.46 199.56 242.977 200.449 242.164C200.528 242.084 200.622 242.033 200.723 242.017C200.823 242.002 200.925 242.023 201.016 242.077C201.108 242.131 201.185 242.217 201.239 242.325C201.293 242.432 201.321 242.556 201.321 242.683V247.851C201.321 248.003 201.297 248.154 201.25 248.295C201.203 248.436 201.135 248.564 201.049 248.671C200.963 248.779 200.861 248.864 200.748 248.922C200.636 248.98 200.515 249.009 200.393 249.009L184.523 248.929Z" fill="#C1D8ED"/>
<path d="M189.302 105.612C188.48 105.612 187.682 105.262 187.04 104.618L166.529 84.0409L171.054 76.9499L188.307 94.2579L198.652 72.3019L204.886 76.9214L192.419 103.381C192.099 104.06 191.643 104.623 191.096 105.015C190.55 105.406 189.931 105.611 189.302 105.611V105.612Z" fill="#367CFF"/>
<path d="M197.03 118.696C198.475 122.86 226.865 124.589 227.244 117.265C227.486 112.604 224.21 108.535 224.21 99.4511C224.21 90.3669 230.875 78.7663 225.444 71.9564C223.868 69.9804 221.148 68.7049 217.83 68.7006C217.582 71.1262 205.837 71.1348 205.747 68.7568C205.299 68.7654 204.951 68.7741 204.734 68.787C193.292 69.4053 198.32 85.7318 198.43 97.726C198.564 111.761 195.54 114.407 197.03 118.696Z" fill="#367CFF"/>
<path d="M205.747 68.7568C205.837 71.1348 206.868 74.6328 210.051 74.8965C214.292 75.2467 217.582 71.1262 217.83 68.7006H217.82C213.644 68.7006 208.182 68.7092 205.747 68.7568Z" fill="#E98862"/>
<path d="M165.776 132.249L165.546 128.502C164.971 121.006 167.04 113.078 172.443 104.862C176.811 98.3767 179.684 93.3309 179.684 87.7091C179.684 81.6559 176.695 77.6192 170.258 77.4748C166.234 77.4748 161.637 79.0603 158.762 81.7985L155.313 69.1139C159.451 65.7989 166.119 63.2042 173.362 63.2042C187.617 63.2042 194.169 73.5812 194.169 85.1136C194.169 95.4906 189.111 102.699 184.169 109.762C179.686 116.393 177.846 122.301 178.076 129.222L178.191 132.248L165.776 132.249ZM162.902 152.285C162.902 145.655 166.58 141.044 171.638 141.044C176.811 141.044 180.259 145.656 180.375 152.285C180.375 158.627 176.927 163.527 171.638 163.527C166.466 163.528 162.902 158.627 162.902 152.285Z" fill="#0CBC8B"/>
<path d="M199.552 93.3987C199.552 93.3987 200.35 87.7039 197.067 87.2331C194.996 86.936 189.788 83.3257 188.8 86.3432C187.943 88.9613 192.916 92.0778 194.697 92.6559C196.292 93.17 199.552 93.3987 199.552 93.3987Z" fill="#E98862"/>
<path d="M198.187 87.6858C198.187 87.6858 193.956 84.7768 192.799 84.8447C191.774 84.9048 193.517 87.3905 193.517 87.3905L198.187 87.6858Z" fill="#E98862"/>
<path d="M213.161 111.364C212.336 111.364 211.534 111.024 210.878 110.396L193.476 93.7234L198.041 86.2321L211.666 99.286L220.263 75.1525L227.128 78.9972L216.593 108.572C216.297 109.403 215.815 110.108 215.206 110.604C214.597 111.099 213.887 111.363 213.161 111.363V111.364Z" fill="#367CFF"/>
<path d="M216.818 71.2123C216.818 71.2123 214.151 69.4396 214.747 60.335L209.237 59.0543C209.237 59.0543 209.856 67.2167 207.069 69.8084L216.818 71.2123Z" fill="#E98862"/>
<g opacity="0.15">
<path d="M208.198 68.103L212.775 63.7131L209.18 63.6664C209.076 65.209 208.743 66.7137 208.198 68.103Z" fill="black"/>
</g>
<path d="M217.872 56.8059C217.491 59.5683 216.289 62.1838 214.345 63.0753C212.227 64.1294 209.936 64.5176 207.671 64.206C201.639 63.586 202.833 46.3921 205.696 43.0516C208.559 39.7111 216.962 41.8267 217.985 47.413C218.514 50.303 218.235 54.1766 217.872 56.8059Z" fill="#E98862"/>
<path d="M202.086 49.3436C202.086 49.3436 203.268 37.1225 213.973 40.124C215.704 40.6995 217.245 41.9484 218.375 43.6911C218.8 42.6045 219.476 41.7026 220.314 41.1017C221.152 40.5009 222.115 40.2286 223.077 40.3201C224.04 40.4115 224.959 40.8624 225.715 41.6147C226.472 42.367 227.031 43.3861 227.322 44.5407C227.612 45.6954 227.619 46.9325 227.344 48.0927C227.068 49.2529 226.521 50.2829 225.774 51.0499C225.027 51.8169 224.114 52.2859 223.153 52.3962C222.191 52.5065 221.226 52.2532 220.38 51.6689C220.37 51.8418 220.36 52.0191 220.346 52.1981C219.69 59.7647 214.668 63.5532 214.668 63.5532C214.668 63.5532 213.32 62.2729 213.8 50.0479C211.475 50.2961 206.156 50.655 202.086 49.3436Z" fill="#0F1011"/>
<path d="M209.245 54.6782C209.521 54.6782 209.745 54.3977 209.745 54.0517C209.745 53.7057 209.521 53.4252 209.245 53.4252C208.969 53.4252 208.745 53.7057 208.745 54.0517C208.745 54.3977 208.969 54.6782 209.245 54.6782Z" fill="#0F1011"/>
<path d="M205.303 54.273C205.579 54.273 205.803 53.9925 205.803 53.6465C205.803 53.3005 205.579 53.02 205.303 53.02C205.027 53.02 204.804 53.3005 204.804 53.6465C204.804 53.9925 205.027 54.273 205.303 54.273Z" fill="#0F1011"/>
<path d="M204.437 52.3114C204.375 52.3118 204.315 52.2812 204.271 52.2263C204.227 52.1715 204.202 52.0967 204.201 52.0186C204.201 51.9406 204.225 51.8655 204.269 51.8099C204.313 51.7544 204.372 51.7229 204.435 51.7225L205.758 51.7021H205.761C205.822 51.7045 205.879 51.7363 205.922 51.7908C205.964 51.8453 205.988 51.9183 205.988 51.9945C205.989 52.0707 205.966 52.1441 205.924 52.1993C205.882 52.2545 205.825 52.2872 205.764 52.2906L204.44 52.3114H204.437Z" fill="#0F1011"/>
<path d="M210.323 52.9162C210.305 52.9162 210.286 52.9136 210.268 52.9084L208.963 52.5146C208.904 52.4949 208.853 52.4469 208.822 52.3809C208.79 52.3148 208.781 52.2359 208.795 52.1611C208.809 52.0863 208.846 52.0215 208.898 51.9806C208.95 51.9396 209.013 51.9258 209.073 51.9421L210.378 52.3356C210.434 52.3524 210.483 52.3944 210.516 52.4536C210.549 52.5127 210.563 52.5849 210.556 52.6564C210.55 52.7279 210.522 52.7939 210.479 52.8418C210.436 52.8897 210.381 52.9162 210.323 52.9162Z" fill="#0F1011"/>
<path d="M209.014 58.986C209.014 58.986 207.17 59.2299 205.876 58.6635C205.876 58.6635 205.886 60.1867 207.346 60.3367C208.805 60.4868 209.014 58.986 209.014 58.986Z" fill="white"/>
<path d="M211.844 55.5849C211.807 56.2813 211.99 56.9681 212.353 57.497C212.716 58.0258 213.231 58.3541 213.785 58.4109C214.34 58.4677 214.891 58.2485 215.317 57.8006C215.744 57.3526 216.013 56.7121 216.067 56.0173C216.094 55.6686 216.065 55.3164 215.982 54.9819C215.899 54.6473 215.763 54.3372 215.582 54.0699C215.401 53.8027 215.179 53.5838 214.93 53.4263C214.68 53.2688 214.408 53.176 214.129 53.1533C212.619 53.0932 211.94 54.1231 211.844 55.5849Z" fill="#E98862"/>
<g opacity="0.15">
<path d="M207.027 57.5267C207.068 57.5267 207.108 57.5082 207.14 57.4744C207.171 57.4406 207.192 57.3939 207.198 57.3427C207.204 57.2914 207.195 57.2392 207.173 57.1953C207.151 57.1515 207.117 57.119 207.078 57.1039L206.062 56.7125L206.772 54.7279C206.782 54.702 206.787 54.6739 206.788 54.6453C206.789 54.6167 206.785 54.5882 206.777 54.5614C206.769 54.5345 206.757 54.51 206.742 54.4891C206.726 54.4682 206.707 54.4514 206.687 54.4397C206.666 54.4279 206.643 54.4215 206.62 54.4207C206.598 54.42 206.575 54.4249 206.554 54.4352C206.532 54.4455 206.513 54.4611 206.496 54.4809C206.48 54.5007 206.467 54.5244 206.458 54.5507L205.667 56.7588C205.657 56.7868 205.652 56.8171 205.652 56.8477C205.652 56.8784 205.657 56.9087 205.667 56.9366C205.677 56.9645 205.692 56.9895 205.71 57.0097C205.729 57.03 205.75 57.0451 205.774 57.0541L206.976 57.5172C206.993 57.5235 207.01 57.5267 207.027 57.5267Z" fill="black"/>
</g>
<path d="M62.9686 74.3012H141.096L154.859 87.5751V0H62.9686V74.3012Z" fill="#C1D8ED"/>
<path d="M74.3033 21.989L143.525 21.989V15.9332L74.3033 15.9332V21.989Z" fill="white"/>
<path d="M74.3033 39.6918L143.525 39.6918V33.6359L74.3033 33.6359V39.6918Z" fill="white"/>
<path d="M74.3033 57.3945L143.525 57.3945V51.3387L74.3033 51.3387V57.3945Z" fill="white"/>
<path d="M93.4271 147.253H32.4612L21.721 157.611V89.2731H93.4271V147.253Z" fill="#DEE8F5"/>
<path d="M84.5825 101.706H30.566V106.432H84.5825V101.706Z" fill="white"/>
<path d="M84.5825 115.52H30.566V120.246H84.5825V115.52Z" fill="white"/>
<path d="M84.5825 129.335H30.566V134.06H84.5825V129.335Z" fill="white"/>
</g>
<defs>
<clipPath id="clip0_33_1982">
<rect width="269.72" height="250.017" fill="white" transform="translate(0.272705)"/>
</clipPath>
</defs>
</svg>
