<svg width="117" height="109" viewBox="0 0 117 109" fill="none" xmlns="http://www.w3.org/2000/svg">
<path d="M38.025 9.08325H78.975C94.575 9.08325 107.25 20.8916 107.25 35.4249V73.5749C107.25 80.5612 104.271 87.2613 98.9684 92.2013C93.6658 97.1413 86.474 99.9166 78.975 99.9166H38.025C22.425 99.9166 9.75 88.1083 9.75 73.5749V35.4249C9.75 28.4387 12.729 21.7386 18.0316 16.7985C23.3341 11.8585 30.526 9.08325 38.025 9.08325ZM37.05 18.1666C32.3954 18.1666 27.9315 19.8892 24.6403 22.9554C21.349 26.0216 19.5 30.1803 19.5 34.5166V74.4832C19.5 83.5212 27.3487 90.8332 37.05 90.8332H79.95C84.6045 90.8332 89.0685 89.1107 92.3597 86.0444C95.651 82.9782 97.5 78.8195 97.5 74.4832V34.5166C97.5 25.4787 89.6512 18.1666 79.95 18.1666H37.05ZM84.0937 24.9791C85.7099 24.9791 87.2599 25.5772 88.4027 26.6419C89.5455 27.7065 90.1875 29.1505 90.1875 30.6562C90.1875 32.1618 89.5455 33.6058 88.4027 34.6705C87.2599 35.7351 85.7099 36.3333 84.0937 36.3333C82.4776 36.3333 80.9276 35.7351 79.7848 34.6705C78.642 33.6058 78 32.1618 78 30.6562C78 29.1505 78.642 27.7065 79.7848 26.6419C80.9276 25.5772 82.4776 24.9791 84.0937 24.9791ZM58.5 31.7916C64.9646 31.7916 71.1645 34.1841 75.7357 38.4427C80.3069 42.7013 82.875 48.4773 82.875 54.4999C82.875 60.5225 80.3069 66.2985 75.7357 70.5571C71.1645 74.8158 64.9646 77.2082 58.5 77.2082C52.0353 77.2082 45.8355 74.8158 41.2643 70.5571C36.6931 66.2985 34.125 60.5225 34.125 54.4999C34.125 48.4773 36.6931 42.7013 41.2643 38.4427C45.8355 34.1841 52.0353 31.7916 58.5 31.7916ZM58.5 40.8749C54.6212 40.8749 50.9013 42.3104 48.1586 44.8656C45.4158 47.4208 43.875 50.8863 43.875 54.4999C43.875 58.1135 45.4158 61.5791 48.1586 64.1342C50.9013 66.6894 54.6212 68.1249 58.5 68.1249C62.3788 68.1249 66.0987 66.6894 68.8414 64.1342C71.5842 61.5791 73.125 58.1135 73.125 54.4999C73.125 50.8863 71.5842 47.4208 68.8414 44.8656C66.0987 42.3104 62.3788 40.8749 58.5 40.8749Z" fill="#93C6E7"/>
</svg>
