<svg width="124" height="124" viewBox="0 0 124 124" fill="none" xmlns="http://www.w3.org/2000/svg">
<path d="M19.375 31H104.625V23.25H19.375V31ZM108.5 34.875V89.125H116.25V34.875H108.5ZM104.625 93H19.375V100.75H104.625V93ZM15.5 89.125V34.875H7.75V89.125H15.5ZM19.375 93C18.3473 93 17.3617 92.5917 16.635 91.865C15.9083 91.1383 15.5 90.1527 15.5 89.125H7.75C7.75 92.2081 8.97477 95.165 11.1549 97.3451C13.335 99.5252 16.2919 100.75 19.375 100.75V93ZM108.5 89.125C108.5 90.1527 108.092 91.1383 107.365 91.865C106.638 92.5917 105.653 93 104.625 93V100.75C107.708 100.75 110.665 99.5252 112.845 97.3451C115.025 95.165 116.25 92.2081 116.25 89.125H108.5ZM104.625 31C105.653 31 106.638 31.4083 107.365 32.135C108.092 32.8617 108.5 33.8473 108.5 34.875H116.25C116.25 31.7919 115.025 28.835 112.845 26.6549C110.665 24.4748 107.708 23.25 104.625 23.25V31ZM19.375 23.25C16.2919 23.25 13.335 24.4748 11.1549 26.6549C8.97477 28.835 7.75 31.7919 7.75 34.875H15.5C15.5 33.8473 15.9083 32.8617 16.635 32.135C17.3617 31.4083 18.3473 31 19.375 31V23.25ZM9.41625 38.0602L55.3815 69.8818L59.7951 63.5112L13.8299 31.6898L9.41625 38.0602ZM68.6185 69.8818L114.58 38.0602L110.17 31.6898L64.2049 63.5112L68.6185 69.8818ZM55.3815 69.8818C57.3259 71.2283 59.6348 71.9498 62 71.9498C64.3652 71.9498 66.6741 71.2283 68.6185 69.8818L64.2049 63.5112C63.557 63.9595 62.7879 64.1997 62 64.1997C61.2121 64.1997 60.443 63.9595 59.7951 63.5112L55.3815 69.8818Z" fill="#93C6E7"/>
</svg>
