<svg width="28" height="27" viewBox="0 0 28 27" fill="none" xmlns="http://www.w3.org/2000/svg">
<path d="M0 20V1.33334C0 0.95556 0.132 0.638671 0.396 0.382671C0.66 0.126671 0.986333 -0.000884275 1.375 4.61361e-06H19.25C19.6396 4.61361e-06 19.9664 0.128005 20.2304 0.384005C20.4944 0.640005 20.6259 0.956449 20.625 1.33334V13.3333C20.625 13.7111 20.493 14.028 20.229 14.284C19.965 14.54 19.6387 14.6676 19.25 14.6667H5.5L0 20ZM6.875 21.3333C6.48542 21.3333 6.15863 21.2053 5.89463 20.9493C5.63063 20.6933 5.49908 20.3769 5.5 20V17.3333H23.375V5.33334H26.125C26.5146 5.33334 26.8414 5.46134 27.1054 5.71734C27.3694 5.97334 27.5009 6.28978 27.5 6.66667V26.6667L22 21.3333H6.875Z" fill="#4C5FA6"/>
</svg>
