<svg width="32" height="27" viewBox="0 0 32 27" fill="none" xmlns="http://www.w3.org/2000/svg">
<path d="M4.5 3.75C4.5 2.75544 4.97411 1.80161 5.81802 1.09835C6.66193 0.395088 7.80653 0 9 0C10.1935 0 11.3381 0.395088 12.182 1.09835C13.0259 1.80161 13.5 2.75544 13.5 3.75C13.5 4.74456 13.0259 5.69839 12.182 6.40165C11.3381 7.10491 10.1935 7.5 9 7.5C7.80653 7.5 6.66193 7.10491 5.81802 6.40165C4.97411 5.69839 4.5 4.74456 4.5 3.75ZM19.7528 6.72L19.8472 6.78C20.8019 7.3697 21.9977 7.62078 23.1737 7.47846C24.3497 7.33613 25.4104 6.81195 26.1243 6.02032C26.8382 5.22868 27.1474 4.23385 26.9844 3.25294C26.8214 2.27203 26.1994 1.38467 25.2542 0.784522C24.3089 0.184373 23.1172 -0.0798439 21.939 0.0495321C20.7609 0.178908 19.692 0.691373 18.9656 1.47509C18.2392 2.25881 17.9143 3.25015 18.0617 4.23277C18.2092 5.21539 18.8171 6.10951 19.7528 6.72ZM11.853 9.375C12.1356 8.92906 12.5232 8.5352 12.9927 8.21698C13.4622 7.89877 14.0039 7.66273 14.5854 7.523C15.1668 7.38327 15.7762 7.34272 16.3769 7.40376C16.9776 7.4648 17.5574 7.62619 18.0815 7.87827C18.6057 8.13035 19.0634 8.46794 19.4274 8.87085C19.7913 9.27376 20.0541 9.73371 20.1998 10.2232C20.3455 10.7126 20.3713 11.2216 20.2755 11.7195C20.1798 12.2175 19.9645 12.6942 19.6425 13.1213C19.0231 13.9427 18.0458 14.5322 16.9158 14.7658C15.7859 14.9995 14.5912 14.8591 13.5829 14.3741C12.5745 13.8892 11.831 13.0974 11.5084 12.1652C11.1858 11.233 11.3093 10.2329 11.853 9.375ZM3.375 9.375H9.3825C8.98262 10.3267 8.89567 11.3502 9.13068 12.3393C9.3657 13.3284 9.91411 14.2471 10.719 15H10.125C8.96498 14.9999 7.83326 15.2985 6.88474 15.855C5.93622 16.4115 5.21725 17.1986 4.82625 18.1087C4.071 17.8559 3.36386 17.513 2.727 17.0906C1.035 15.9562 0 14.28 0 12.1875C0 11.4416 0.355579 10.7262 0.988515 10.1988C1.62145 9.67132 2.47989 9.375 3.375 9.375ZM21.375 15C22.5347 15 23.6661 15.2987 24.6142 15.8552C25.5624 16.4117 26.2809 17.1988 26.6715 18.1087C27.4365 17.8481 28.1453 17.5087 28.773 17.0906C30.465 15.9562 31.5 14.28 31.5 12.1875C31.5 11.4416 31.1444 10.7262 30.5115 10.1988C29.8786 9.67132 29.0201 9.375 28.125 9.375H22.1175C22.365 9.96187 22.5 10.5938 22.5 11.25C22.5021 12.634 21.8898 13.9697 20.781 15H21.375ZM24.4958 18.615C24.66 18.945 24.75 19.3088 24.75 19.6875C24.75 21.78 23.7173 23.4562 22.023 24.5906C20.3558 25.7062 18.1192 26.25 15.75 26.25C13.3807 26.25 11.1442 25.7062 9.477 24.5906C7.785 23.4562 6.75 21.78 6.75 19.6875C6.74881 19.3179 6.8353 18.9517 7.00449 18.61C7.17368 18.2684 7.42223 17.9579 7.73587 17.6966C8.0495 17.4352 8.42203 17.2281 8.83204 17.0871C9.24205 16.9461 9.68146 16.874 10.125 16.875H21.375C22.0435 16.8749 22.697 17.0402 23.2526 17.35C23.8081 17.6597 24.2408 18.1 24.4958 18.615Z" fill="#4C5FA6"/>
</svg>
