<svg width="36" height="37" viewBox="0 0 36 37" fill="none" xmlns="http://www.w3.org/2000/svg">
<path d="M31.65 19.2708L33.75 21.4446L23.955 31.6042L18.75 26.2083L20.85 24.0346L23.955 27.2412L31.65 19.2708ZM16.5 6.16666C18.0913 6.16666 19.6174 6.81636 20.7426 7.97283C21.8679 9.12931 22.5 10.6978 22.5 12.3333C22.5 13.9688 21.8679 15.5373 20.7426 16.6938C19.6174 17.8503 18.0913 18.5 16.5 18.5C14.9087 18.5 13.3826 17.8503 12.2574 16.6938C11.1321 15.5373 10.5 13.9688 10.5 12.3333C10.5 10.6978 11.1321 9.12931 12.2574 7.97283C13.3826 6.81636 14.9087 6.16666 16.5 6.16666ZM16.5 9.24999C15.7044 9.24999 14.9413 9.57484 14.3787 10.1531C13.8161 10.7313 13.5 11.5156 13.5 12.3333C13.5 13.1511 13.8161 13.9353 14.3787 14.5136C14.9413 15.0918 15.7044 15.4167 16.5 15.4167C17.2956 15.4167 18.0587 15.0918 18.6213 14.5136C19.1839 13.9353 19.5 13.1511 19.5 12.3333C19.5 11.5156 19.1839 10.7313 18.6213 10.1531C18.0587 9.57484 17.2956 9.24999 16.5 9.24999ZM16.5 20.0417C17.52 20.0417 18.75 20.1804 20.115 20.4425L17.61 23.0171L16.5 22.9708C12.045 22.9708 7.35 25.2217 7.35 26.2083V27.9042H16.65L19.5 30.8333H4.5V26.2083C4.5 22.1075 12.495 20.0417 16.5 20.0417Z" fill="#4C5FA6"/>
</svg>
