<svg width="124" height="124" viewBox="0 0 124 124" fill="none" xmlns="http://www.w3.org/2000/svg">
<path d="M73.4797 18.3579C73.6086 17.8653 73.8345 17.4034 74.1441 16.9992C74.4538 16.5951 74.841 16.2568 75.2831 16.0042C75.7252 15.7515 76.2132 15.5897 76.7187 15.5281C77.2241 15.4665 77.7367 15.5064 78.2266 15.6454C85.4501 17.5828 92.0368 21.3866 97.3251 26.675C102.613 31.9633 106.417 38.55 108.355 45.7735C108.494 46.2634 108.534 46.776 108.472 47.2814C108.41 47.7868 108.249 48.2749 107.996 48.717C107.743 49.1591 107.405 49.5463 107.001 49.856C106.597 50.1656 106.135 50.3915 105.642 50.5204C105.312 50.6162 104.969 50.6651 104.625 50.6657C103.77 50.6608 102.94 50.3731 102.266 49.8474C101.591 49.3217 101.109 48.5876 100.895 47.7595C99.2839 41.8612 96.1623 36.4849 91.8387 32.1614C87.5152 27.8378 82.1389 24.7162 76.2406 23.1048C75.7437 22.9812 75.2766 22.7591 74.867 22.4517C74.4575 22.1443 74.1138 21.7579 73.8563 21.3152C73.5989 20.8726 73.4329 20.3827 73.3682 19.8748C73.3035 19.3668 73.3414 18.851 73.4797 18.3579ZM72.2203 38.072C75.499 38.9695 78.4873 40.7055 80.8909 43.1092C83.2946 45.5128 85.0306 48.5011 85.9281 51.7798C86.1343 52.612 86.6141 53.3509 87.2904 53.8779C87.9667 54.4049 88.8004 54.6895 89.6578 54.686C89.9864 54.6892 90.3134 54.6402 90.6266 54.5407C91.1235 54.4171 91.5906 54.1951 92.0002 53.8877C92.4097 53.5803 92.7534 53.1938 93.0109 52.7512C93.2683 52.3085 93.4343 51.8187 93.499 51.3107C93.5637 50.8027 93.5258 50.2869 93.3875 49.7938C92.1642 45.1899 89.7459 40.9911 86.3775 37.6226C83.009 34.2542 78.8102 31.8359 74.2062 30.6126C73.7008 30.4285 73.1625 30.3516 72.6257 30.3869C72.0889 30.4221 71.5653 30.5688 71.0883 30.8175C70.6113 31.0662 70.1913 31.4115 69.855 31.8315C69.5188 32.2514 69.2737 32.7367 69.1353 33.2566C68.9969 33.7764 68.9682 34.3194 69.0512 34.8509C69.1341 35.3825 69.3268 35.8909 69.617 36.3439C69.9072 36.7969 70.2886 37.1844 70.7368 37.482C71.185 37.7795 71.6902 37.9804 72.2203 38.072ZM112.181 84.8142C111.324 91.3552 108.121 97.3625 103.168 101.719C98.2141 106.076 91.8469 108.486 85.25 108.5C46.7906 108.5 15.5 77.2095 15.5 38.7501C15.5145 32.1532 17.9242 25.786 22.2809 20.8324C26.6376 15.8787 32.6449 12.6757 39.1859 11.8188C40.8534 11.634 42.5364 11.985 43.9908 12.8211C45.4453 13.6572 46.5956 14.9349 47.275 16.4688L57.0109 39.186C57.516 40.3652 57.7184 41.6518 57.6 42.9291C57.4816 44.2064 57.046 45.4339 56.3328 46.5001L48.2922 58.8032C51.9332 66.1923 57.9325 72.1575 65.3422 75.7563L77.5 67.6673C78.5651 66.9493 79.7957 66.5147 81.0754 66.4045C82.3552 66.2944 83.6419 66.5122 84.8141 67.0376L107.531 76.7251C109.065 77.4045 110.343 78.5548 111.179 80.0093C112.015 81.4637 112.366 83.1467 112.181 84.8142ZM104.48 83.8454L81.7625 74.1579L69.6531 82.247C68.5389 82.9836 67.2532 83.4197 65.9208 83.5131C64.5884 83.6064 63.2545 83.3538 62.0484 82.7798C53.0243 78.4145 45.7247 71.1491 41.3172 62.1454C40.7361 60.9435 40.4753 59.6118 40.5602 58.2794C40.645 56.9471 41.0727 55.6592 41.8016 54.5407L49.8906 42.2376L40.1547 19.5204C35.4802 20.1213 31.1851 22.4054 28.0734 25.9451C24.9617 29.4847 23.2469 34.0372 23.25 38.7501C23.2628 55.1896 29.7991 70.9521 41.4235 82.5766C53.048 94.201 68.8105 100.737 85.25 100.75C89.9629 100.753 94.5154 99.0384 98.055 95.9267C101.595 92.815 103.879 88.5199 104.48 83.8454Z" fill="#93C6E7"/>
</svg>
