<svg width="108" height="100" viewBox="0 0 108 100" fill="none" xmlns="http://www.w3.org/2000/svg">
<path d="M1.11275 99.3664C1.49695 99.4701 1.90513 99.4128 2.2488 99.2069C2.59248 99.001 2.84397 98.6631 2.94875 98.2665C6.03875 86.3258 18.5967 83.231 26.1027 81.3792C27.9837 80.9162 29.4687 80.5496 30.4347 80.1177C38.9847 76.2742 41.7717 70.0909 42.6057 65.5794C42.6553 65.3109 42.6357 65.0337 42.5488 64.7757C42.4619 64.5177 42.3108 64.2879 42.1107 64.1097C37.6587 60.1294 33.9027 54.1544 31.5327 47.2814C31.4659 47.0843 31.3607 46.9035 31.2237 46.7501C28.0887 43.2204 26.2887 39.4887 26.2887 36.5151C26.2887 34.7783 26.9217 33.6131 28.3467 32.7338C28.5602 32.6016 28.7386 32.4165 28.8658 32.1953C28.9931 31.974 29.0652 31.7234 29.0757 31.466C29.7387 15.6383 40.6227 3.17861 53.9727 3.09782L54.2937 3.11957C67.7097 3.31221 78.5247 16.0391 78.9117 32.0906C78.9172 32.31 78.9676 32.5257 79.0596 32.7234C79.1517 32.921 79.2833 33.0962 79.4457 33.2371C80.3847 34.0605 80.8227 35.1045 80.8227 36.5214C80.8227 39.0102 79.5417 42.0707 77.2197 45.1344C77.1091 45.2818 77.0238 45.4478 76.9677 45.6253C74.5677 53.505 70.2597 60.4619 65.1537 64.7187C64.9422 64.8956 64.7809 65.1286 64.6869 65.3928C64.5929 65.657 64.5697 65.9427 64.6197 66.2194C65.4537 70.7279 68.2407 76.908 76.7907 80.7578C77.8017 81.2114 79.3707 81.5656 81.3597 82.0099C88.7907 83.6754 101.226 86.4687 104.277 98.2665C104.328 98.4636 104.416 98.6483 104.536 98.8101C104.656 98.9719 104.806 99.1076 104.977 99.2094C105.148 99.3112 105.336 99.3773 105.532 99.4037C105.727 99.4301 105.925 99.4164 106.116 99.3633C106.306 99.3103 106.484 99.2189 106.641 99.0945C106.797 98.9701 106.928 98.815 107.026 98.6382C107.124 98.4613 107.188 98.2661 107.214 98.0637C107.239 97.8613 107.226 97.6557 107.175 97.4587C103.65 83.8276 89.5617 80.6677 81.9957 78.9712C80.2407 78.5766 78.7257 78.2379 77.9877 77.9023C72.4077 75.3917 68.9697 71.5668 67.7547 66.5146C72.9357 61.9067 77.2707 54.7976 79.7487 46.8246C82.3797 43.2825 83.8257 39.6347 83.8257 36.5183C83.8257 34.4396 83.1777 32.7058 81.8937 31.3511C81.1797 13.9386 69.1827 0.226821 54.2937 0.00621429L53.8467 0C39.2277 0.0807857 27.1797 13.4322 26.1267 30.5432C24.2487 31.9725 23.2947 33.9766 23.2947 36.5214C23.2947 40.1971 25.3017 44.5937 28.8147 48.6268C31.2417 55.534 35.0037 61.6022 39.4827 65.8497C38.2737 70.9205 34.8327 74.7579 29.2407 77.2715C28.5177 77.5978 27.0777 77.9551 25.4097 78.3653C17.7867 80.242 3.60275 83.7375 0.0507468 97.4649C-0.0518338 97.8629 0.00241891 98.2868 0.201574 98.6434C0.400729 99 0.728479 99.2601 1.11275 99.3664Z" fill="black"/>
</svg>
