<svg width="647" height="644" viewBox="0 0 647 644" fill="none" xmlns="http://www.w3.org/2000/svg">
<path d="M85.7218 552.478C85.5586 552.478 85.402 552.406 85.2864 552.277C84.4188 551.31 83.0044 533.571 79.1953 480.754C77.6369 459.142 76.1646 438.73 75.0901 426.324C75.0137 425.438 74.7052 425.335 74.6042 425.301C73.1338 424.806 68.6609 428.737 66.164 432.179C66.0613 432.32 65.9123 432.411 65.7498 432.43C65.5874 432.449 65.4247 432.396 65.2976 432.281C65.1706 432.167 65.0895 432.001 65.0723 431.819C65.0551 431.638 65.1032 431.457 65.2059 431.315C66.8574 429.04 72.2391 423.074 74.9583 423.986C75.5069 424.17 76.1898 424.701 76.3167 426.192C77.3918 438.608 78.8641 459.027 80.4232 480.644C82.7378 512.74 85.3603 549.101 86.2218 551.391C86.2878 551.494 86.3272 551.615 86.3356 551.741C86.344 551.866 86.3211 551.992 86.2694 552.105C86.2177 552.217 86.1392 552.311 86.0426 552.377C85.946 552.443 85.835 552.478 85.7218 552.478Z" fill="#494949"/>
<path d="M73.5099 449.089C83.7277 439.961 87.1143 425.753 81.0741 417.355C75.0339 408.957 61.8541 409.549 51.6363 418.677C41.4185 427.805 38.0319 442.013 44.0722 450.411C50.1124 458.809 63.2921 458.217 73.5099 449.089Z" fill="#0CBC8B"/>
<path opacity="0.2" d="M73.5099 449.089C83.7277 439.961 87.1143 425.753 81.0741 417.355C75.0339 408.957 61.8541 409.549 51.6363 418.677C41.4185 427.805 38.0319 442.013 44.0722 450.411C50.1124 458.809 63.2921 458.217 73.5099 449.089Z" fill="white"/>
<path d="M46.9351 452.545C46.8767 452.545 46.8195 452.527 46.7703 452.492C46.721 452.457 46.6817 452.407 46.6569 452.348C46.6321 452.289 46.6229 452.223 46.6303 452.159C46.6377 452.094 46.6614 452.033 46.6986 451.983L75.8185 412.848C75.8712 412.78 75.9458 412.737 76.0262 412.73C76.1066 412.722 76.1865 412.75 76.2485 412.808C76.3106 412.865 76.3499 412.948 76.3581 413.037C76.3662 413.127 76.3425 413.216 76.292 413.286L47.1721 452.422C47.1432 452.461 47.1069 452.492 47.066 452.513C47.025 452.534 46.9803 452.545 46.9351 452.545Z" fill="white"/>
<path d="M92.0734 544.088C91.9751 544.088 91.8782 544.062 91.7908 544.012C91.7034 543.962 91.6281 543.889 91.5712 543.8C91.5142 543.71 91.4772 543.607 91.4634 543.499C91.4495 543.39 91.4592 543.28 91.4915 543.176L102.43 508.118C102.752 507.088 103.301 506.164 104.026 505.432C104.751 504.699 105.63 504.181 106.581 503.925C107.533 503.669 108.527 503.684 109.472 503.967C110.417 504.25 111.284 504.793 111.992 505.546L117.775 511.703C117.893 511.829 117.961 512.001 117.965 512.183C117.968 512.365 117.907 512.542 117.794 512.673C117.681 512.805 117.526 512.881 117.363 512.885C117.2 512.889 117.042 512.821 116.924 512.695L111.141 506.539C110.582 505.945 109.898 505.516 109.152 505.293C108.406 505.069 107.621 505.058 106.87 505.26C106.119 505.462 105.426 505.871 104.853 506.449C104.281 507.027 103.847 507.756 103.593 508.569L92.6547 543.627C92.6127 543.762 92.5342 543.878 92.4301 543.961C92.3259 544.044 92.2012 544.088 92.0734 544.088Z" fill="#494949"/>
<path d="M133.93 531.111C141.503 524.431 141.053 509.739 132.925 498.296C124.798 486.852 112.071 482.991 104.498 489.671C96.926 496.351 97.376 511.043 105.503 522.486C113.631 533.929 126.358 537.791 133.93 531.111Z" fill="#0CBC8B"/>
<path d="M80.7526 550.243C80.6142 550.242 80.4799 550.19 80.3713 550.095C80.2627 549.999 80.1862 549.866 80.1541 549.716L61.7983 464.179C61.6728 463.596 61.4054 463.063 61.0257 462.638C60.6459 462.214 60.1684 461.914 59.6457 461.772C59.123 461.63 58.5753 461.652 58.0628 461.834C57.5504 462.017 57.093 462.353 56.741 462.807L51.0828 470.094C51.0299 470.162 50.9654 470.218 50.8931 470.259C50.8208 470.299 50.7421 470.323 50.6614 470.33C50.5807 470.336 50.4997 470.325 50.4229 470.296C50.3462 470.268 50.2752 470.223 50.214 470.164C50.1528 470.105 50.1027 470.033 50.0664 469.953C50.0301 469.872 50.0085 469.784 50.0026 469.694C49.9968 469.605 50.0069 469.514 50.0324 469.429C50.0579 469.343 50.0983 469.264 50.1512 469.196L55.8094 461.908C56.3098 461.264 56.96 460.786 57.6885 460.527C58.4169 460.267 59.1954 460.237 59.9383 460.439C60.6812 460.641 61.3597 461.068 61.8992 461.672C62.4386 462.276 62.8181 463.034 62.9959 463.863L81.3517 549.4C81.3897 549.577 81.363 549.763 81.2776 549.918C81.1921 550.074 81.0549 550.184 80.8961 550.227C80.849 550.238 80.8008 550.244 80.7526 550.243Z" fill="#494949"/>
<path d="M73.9796 489.096C76.211 474.715 70.3055 461.57 60.7893 459.736C51.2731 457.902 41.7497 468.073 39.5183 482.454C37.2869 496.835 43.1924 509.98 52.7086 511.814C62.2248 513.648 71.7481 503.477 73.9796 489.096Z" fill="#0CBC8B"/>
<path d="M85.723 552.478C85.6975 552.478 85.672 552.476 85.6467 552.473C85.5664 552.462 85.4888 552.433 85.4183 552.389C85.3479 552.345 85.286 552.285 85.2362 552.214C85.1864 552.143 85.1497 552.062 85.1281 551.975C85.1065 551.888 85.1004 551.797 85.1103 551.708L96.8326 445.643C96.9602 444.488 97.3845 443.398 98.0545 442.505C98.7246 441.612 99.6118 440.953 100.61 440.609C101.607 440.264 102.673 440.248 103.679 440.563C104.685 440.877 105.588 441.509 106.279 442.381L119.677 459.292C119.73 459.36 119.771 459.439 119.798 459.524C119.824 459.609 119.835 459.7 119.83 459.79C119.825 459.88 119.804 459.968 119.768 460.049C119.733 460.13 119.683 460.202 119.623 460.262C119.562 460.322 119.492 460.367 119.415 460.397C119.338 460.426 119.257 460.438 119.177 460.433C119.096 460.427 119.017 460.404 118.944 460.364C118.872 460.325 118.807 460.269 118.753 460.202L105.357 443.291C104.822 442.616 104.125 442.128 103.347 441.885C102.57 441.642 101.746 441.654 100.975 441.92C100.204 442.186 99.5181 442.695 99.0002 443.385C98.4823 444.075 98.1542 444.917 98.0555 445.81L86.3332 551.876C86.3148 552.042 86.2426 552.194 86.1302 552.305C86.0179 552.416 85.8731 552.477 85.723 552.478Z" fill="#494949"/>
<path d="M133.418 468.691C138.092 459.273 132.592 445.911 121.133 438.847C109.674 431.783 96.5953 433.691 91.9208 443.11C87.2463 452.528 92.7463 465.889 104.205 472.953C115.664 480.017 128.743 478.109 133.418 468.691Z" fill="#0CBC8B"/>
<path opacity="0.2" d="M133.93 531.111C141.503 524.431 141.053 509.739 132.925 498.296C124.798 486.852 112.071 482.991 104.498 489.671C96.926 496.351 97.376 511.043 105.503 522.486C113.631 533.929 126.358 537.791 133.93 531.111Z" fill="white"/>
<path opacity="0.5" d="M73.9796 489.096C76.211 474.715 70.3055 461.57 60.7893 459.736C51.2731 457.902 41.7497 468.073 39.5183 482.454C37.2869 496.835 43.1924 509.98 52.7086 511.814C62.2248 513.648 71.7481 503.477 73.9796 489.096Z" fill="white"/>
<path opacity="0.5" d="M133.418 468.691C138.092 459.273 132.592 445.911 121.133 438.847C109.674 431.783 96.5953 433.691 91.9208 443.11C87.2463 452.528 92.7463 465.889 104.205 472.953C115.664 480.017 128.743 478.109 133.418 468.691Z" fill="white"/>
<path d="M100.714 642.474H70.7293L65.7601 535.553H105.683L100.714 642.474Z" fill="#292A2E"/>
<path opacity="0.3" d="M100.714 642.474H70.7293L65.7601 535.553H105.683L100.714 642.474Z" fill="white"/>
<path d="M133.932 531.452C133.886 531.452 133.84 531.441 133.798 531.418C133.756 531.396 133.719 531.363 133.69 531.322L104.257 489.882C104.232 489.847 104.213 489.806 104.202 489.763C104.191 489.72 104.188 489.674 104.192 489.629C104.197 489.585 104.209 489.541 104.229 489.502C104.249 489.463 104.275 489.428 104.307 489.4C104.339 489.372 104.375 489.351 104.414 489.339C104.453 489.327 104.493 489.323 104.534 489.328C104.574 489.333 104.613 489.347 104.648 489.369C104.683 489.391 104.714 489.421 104.74 489.456L134.173 530.896C134.209 530.946 134.231 531.007 134.238 531.071C134.244 531.135 134.234 531.2 134.209 531.258C134.184 531.316 134.145 531.365 134.096 531.4C134.047 531.434 133.99 531.452 133.932 531.452Z" fill="white"/>
<path d="M131.46 472.011C131.395 472.011 131.331 471.987 131.279 471.943L93.6153 441.294C93.5826 441.267 93.555 441.233 93.5339 441.195C93.5128 441.156 93.4988 441.114 93.4926 441.069C93.4863 441.025 93.488 440.979 93.4976 440.935C93.5071 440.892 93.5243 440.85 93.5482 440.814C93.572 440.777 93.6021 440.747 93.6366 440.723C93.6711 440.7 93.7095 440.684 93.7495 440.677C93.7894 440.67 93.8302 440.672 93.8695 440.683C93.9089 440.693 93.9459 440.712 93.9786 440.739L131.642 471.389C131.694 471.432 131.732 471.492 131.751 471.561C131.771 471.63 131.77 471.704 131.749 471.772C131.729 471.84 131.69 471.9 131.637 471.942C131.585 471.984 131.522 472.007 131.457 472.007L131.46 472.011Z" fill="white"/>
<path d="M51.1808 511.366C51.1539 511.366 51.1273 511.362 51.1013 511.355C51.0224 511.331 50.9552 511.274 50.9143 511.195C50.8734 511.116 50.8623 511.023 50.8833 510.935L62.8734 460.871C62.8823 460.825 62.8993 460.783 62.9234 460.745C62.9476 460.707 62.9784 460.675 63.0139 460.651C63.0495 460.627 63.0891 460.611 63.1303 460.604C63.1715 460.598 63.2135 460.6 63.2538 460.612C63.294 460.624 63.3317 460.645 63.3644 460.674C63.3972 460.703 63.4244 460.738 63.4444 460.779C63.4643 460.82 63.4767 460.865 63.4807 460.911C63.4847 460.957 63.4803 461.004 63.4676 461.048L51.4775 511.112C51.4601 511.185 51.4215 511.249 51.3679 511.295C51.3142 511.341 51.2485 511.366 51.1808 511.366Z" fill="white"/>
<path d="M277.801 545.172H173.65L157.333 558.792V486.694C157.333 484.001 158.293 481.417 160.002 479.513C161.711 477.608 164.029 476.538 166.446 476.538H277.801C280.218 476.538 282.536 477.608 284.245 479.513C285.954 481.417 286.915 484.001 286.915 486.694V535.014C286.915 536.348 286.679 537.669 286.221 538.901C285.763 540.133 285.092 541.253 284.246 542.197C283.4 543.14 282.395 543.888 281.289 544.399C280.183 544.909 278.998 545.172 277.801 545.172Z" fill="#F4F4F4"/>
<path d="M275.399 491.811H168.851C168.8 491.813 168.749 491.804 168.701 491.784C168.653 491.764 168.609 491.733 168.572 491.693C168.535 491.654 168.506 491.606 168.486 491.554C168.466 491.501 168.455 491.444 168.455 491.387C168.455 491.33 168.466 491.274 168.486 491.221C168.506 491.169 168.535 491.121 168.572 491.081C168.609 491.042 168.653 491.011 168.701 490.991C168.749 490.971 168.8 490.961 168.851 490.964H275.399C275.45 490.961 275.501 490.971 275.549 490.991C275.597 491.011 275.641 491.042 275.678 491.081C275.715 491.121 275.744 491.169 275.764 491.221C275.784 491.274 275.794 491.33 275.794 491.387C275.794 491.444 275.784 491.501 275.764 491.554C275.744 491.606 275.715 491.654 275.678 491.693C275.641 491.733 275.597 491.764 275.549 491.784C275.501 491.804 275.45 491.813 275.399 491.811Z" fill="white"/>
<path d="M275.399 505.48H168.851C168.8 505.482 168.749 505.473 168.701 505.453C168.653 505.432 168.609 505.401 168.572 505.362C168.535 505.322 168.506 505.275 168.486 505.222C168.466 505.17 168.455 505.113 168.455 505.056C168.455 504.999 168.466 504.942 168.486 504.89C168.506 504.837 168.535 504.79 168.572 504.75C168.609 504.711 168.653 504.68 168.701 504.66C168.749 504.639 168.8 504.63 168.851 504.632H275.399C275.45 504.63 275.501 504.639 275.549 504.66C275.597 504.68 275.641 504.711 275.678 504.75C275.715 504.79 275.744 504.837 275.764 504.89C275.784 504.942 275.794 504.999 275.794 505.056C275.794 505.113 275.784 505.17 275.764 505.222C275.744 505.275 275.715 505.322 275.678 505.362C275.641 505.401 275.597 505.432 275.549 505.453C275.501 505.473 275.45 505.482 275.399 505.48Z" fill="white"/>
<path d="M275.399 519.148H168.851C168.75 519.148 168.654 519.103 168.583 519.024C168.511 518.944 168.471 518.837 168.471 518.724C168.471 518.612 168.511 518.504 168.583 518.425C168.654 518.346 168.75 518.301 168.851 518.301H275.399C275.499 518.301 275.596 518.346 275.667 518.425C275.739 518.504 275.779 518.612 275.779 518.724C275.779 518.837 275.739 518.944 275.667 519.024C275.596 519.103 275.499 519.148 275.399 519.148Z" fill="white"/>
<path d="M252.589 532.817H168.851C168.8 532.819 168.749 532.81 168.701 532.789C168.653 532.769 168.609 532.738 168.572 532.699C168.535 532.659 168.506 532.612 168.486 532.559C168.466 532.506 168.455 532.45 168.455 532.393C168.455 532.336 168.466 532.279 168.486 532.227C168.506 532.174 168.535 532.127 168.572 532.087C168.609 532.047 168.653 532.017 168.701 531.996C168.749 531.976 168.8 531.967 168.851 531.969H252.589C252.64 531.967 252.691 531.976 252.739 531.996C252.787 532.017 252.831 532.047 252.868 532.087C252.905 532.127 252.934 532.174 252.954 532.227C252.975 532.279 252.985 532.336 252.985 532.393C252.985 532.45 252.975 532.506 252.954 532.559C252.934 532.612 252.905 532.659 252.868 532.699C252.831 532.738 252.787 532.769 252.739 532.789C252.691 532.81 252.64 532.819 252.589 532.817Z" fill="white"/>
<path d="M181.163 357.441H22.2905L2.16254 374.243V285.3C2.1627 281.976 3.34751 278.789 5.45634 276.439C7.56517 274.089 10.4253 272.768 13.4075 272.768H181.163C184.145 272.768 187.005 274.089 189.114 276.439C191.222 278.789 192.407 281.976 192.407 285.3V344.909C192.407 348.233 191.222 351.42 189.114 353.77C187.005 356.12 184.145 357.441 181.163 357.441Z" fill="#F4F4F4"/>
<path d="M178.201 291.612H16.3718C16.2474 291.612 16.128 291.557 16.04 291.459C15.952 291.361 15.9026 291.228 15.9026 291.089C15.9026 290.951 15.952 290.818 16.04 290.719C16.128 290.621 16.2474 290.566 16.3718 290.566H178.201C178.325 290.566 178.445 290.621 178.533 290.719C178.621 290.818 178.67 290.951 178.67 291.089C178.67 291.228 178.621 291.361 178.533 291.459C178.445 291.557 178.325 291.612 178.201 291.612Z" fill="white"/>
<path d="M178.201 308.474H16.3718C16.3088 308.477 16.246 308.465 16.1871 308.44C16.1282 308.415 16.0745 308.377 16.0291 308.328C15.9837 308.279 15.9476 308.221 15.923 308.156C15.8983 308.091 15.8856 308.022 15.8856 307.951C15.8856 307.881 15.8983 307.812 15.923 307.747C15.9476 307.682 15.9837 307.624 16.0291 307.575C16.0745 307.526 16.1282 307.488 16.1871 307.463C16.246 307.438 16.3088 307.426 16.3718 307.429H178.201C178.322 307.434 178.437 307.491 178.522 307.588C178.606 307.686 178.653 307.816 178.653 307.951C178.653 308.087 178.606 308.217 178.522 308.314C178.437 308.412 178.322 308.469 178.201 308.474Z" fill="white"/>
<path d="M178.201 325.336H16.3718C16.3088 325.338 16.246 325.327 16.1871 325.302C16.1282 325.277 16.0745 325.238 16.0291 325.19C15.9837 325.141 15.9476 325.082 15.923 325.018C15.8983 324.953 15.8856 324.884 15.8856 324.813C15.8856 324.743 15.8983 324.673 15.923 324.609C15.9476 324.544 15.9837 324.486 16.0291 324.437C16.0745 324.388 16.1282 324.35 16.1871 324.325C16.246 324.3 16.3088 324.288 16.3718 324.291H178.201C178.322 324.296 178.437 324.353 178.522 324.45C178.606 324.548 178.653 324.678 178.653 324.813C178.653 324.949 178.606 325.079 178.522 325.176C178.437 325.274 178.322 325.331 178.201 325.336Z" fill="white"/>
<path d="M150.061 342.198H16.3718C16.2474 342.198 16.128 342.143 16.04 342.045C15.952 341.947 15.9026 341.814 15.9026 341.675C15.9026 341.537 15.952 341.404 16.04 341.306C16.128 341.208 16.2474 341.153 16.3718 341.153H150.061C150.185 341.153 150.304 341.208 150.392 341.306C150.48 341.404 150.53 341.537 150.53 341.675C150.53 341.814 150.48 341.947 150.392 342.045C150.304 342.143 150.185 342.198 150.061 342.198Z" fill="white"/>
<path d="M282.184 414.701H471.602L495.602 434.739V328.692C495.602 324.729 494.189 320.93 491.675 318.128C489.16 315.327 485.751 313.753 482.196 313.753H282.184C278.629 313.754 275.22 315.328 272.706 318.129C270.193 320.931 268.78 324.73 268.779 328.692V399.761C268.78 403.723 270.192 407.522 272.706 410.324C275.22 413.126 278.629 414.7 282.184 414.701Z" fill="#F4F4F4"/>
<path d="M285.718 336.217H478.661C478.806 336.212 478.944 336.144 479.045 336.027C479.146 335.911 479.202 335.755 479.202 335.594C479.202 335.432 479.146 335.276 479.045 335.16C478.944 335.044 478.806 334.975 478.661 334.97H285.718C285.573 334.975 285.435 335.044 285.334 335.16C285.233 335.276 285.177 335.432 285.177 335.594C285.177 335.755 285.233 335.911 285.334 336.027C285.435 336.144 285.573 336.212 285.718 336.217Z" fill="white"/>
<path d="M285.718 356.321H478.661C478.806 356.316 478.944 356.248 479.045 356.132C479.146 356.015 479.202 355.86 479.202 355.698C479.202 355.536 479.146 355.381 479.045 355.264C478.944 355.148 478.806 355.08 478.661 355.074H285.718C285.573 355.08 285.435 355.148 285.334 355.264C285.233 355.381 285.177 355.536 285.177 355.698C285.177 355.86 285.233 356.015 285.334 356.132C285.435 356.248 285.573 356.316 285.718 356.321Z" fill="white"/>
<path d="M285.718 376.426H478.661C478.806 376.42 478.944 376.352 479.045 376.236C479.146 376.12 479.202 375.964 479.202 375.802C479.202 375.64 479.146 375.485 479.045 375.369C478.944 375.252 478.806 375.184 478.661 375.179H285.718C285.573 375.184 285.435 375.252 285.334 375.369C285.233 375.485 285.177 375.64 285.177 375.802C285.177 375.964 285.233 376.12 285.334 376.236C285.435 376.352 285.573 376.42 285.718 376.426Z" fill="white"/>
<path d="M319.267 396.53H478.661C478.806 396.525 478.944 396.457 479.045 396.34C479.146 396.224 479.202 396.069 479.202 395.907C479.202 395.745 479.146 395.589 479.045 395.473C478.944 395.357 478.806 395.289 478.661 395.283H319.267C319.122 395.289 318.984 395.357 318.884 395.473C318.783 395.589 318.726 395.745 318.726 395.907C318.726 396.069 318.783 396.224 318.884 396.34C318.984 396.457 319.122 396.525 319.267 396.53Z" fill="white"/>
<path d="M433.901 233.035H592.771L612.9 249.838V160.895C612.9 157.572 611.716 154.385 609.608 152.035C607.5 149.685 604.641 148.364 601.659 148.363H433.901C430.919 148.364 428.059 149.684 425.951 152.034C423.842 154.384 422.658 157.571 422.658 160.895V220.503C422.658 223.826 423.842 227.014 425.951 229.364C428.059 231.714 430.919 233.035 433.901 233.035Z" fill="#F4F4F4"/>
<path d="M436.864 167.207H598.692C598.816 167.207 598.936 167.152 599.024 167.054C599.112 166.956 599.161 166.823 599.161 166.684C599.161 166.545 599.112 166.412 599.024 166.314C598.936 166.216 598.816 166.161 598.692 166.161H436.864C436.74 166.161 436.621 166.216 436.533 166.314C436.445 166.412 436.395 166.545 436.395 166.684C436.395 166.823 436.445 166.956 436.533 167.054C436.621 167.152 436.74 167.207 436.864 167.207Z" fill="white"/>
<path d="M436.864 184.069H598.692C598.813 184.064 598.928 184.007 599.012 183.909C599.097 183.812 599.144 183.681 599.144 183.546C599.144 183.411 599.097 183.281 599.012 183.183C598.928 183.086 598.813 183.028 598.692 183.023H436.864C436.743 183.028 436.628 183.086 436.544 183.183C436.459 183.281 436.412 183.411 436.412 183.546C436.412 183.681 436.459 183.812 436.544 183.909C436.628 184.007 436.743 184.064 436.864 184.069Z" fill="white"/>
<path d="M436.864 200.934H598.692C598.813 200.929 598.928 200.872 599.012 200.774C599.097 200.677 599.144 200.547 599.144 200.411C599.144 200.276 599.097 200.146 599.012 200.048C598.928 199.951 598.813 199.894 598.692 199.889H436.864C436.743 199.894 436.628 199.951 436.544 200.048C436.459 200.146 436.412 200.276 436.412 200.411C436.412 200.547 436.459 200.677 436.544 200.774C436.628 200.872 436.743 200.929 436.864 200.934Z" fill="white"/>
<path d="M465.003 217.793H598.692C598.813 217.788 598.928 217.731 599.012 217.633C599.097 217.536 599.144 217.406 599.144 217.27C599.144 217.135 599.097 217.005 599.012 216.907C598.928 216.81 598.813 216.753 598.692 216.748H465.003C464.94 216.745 464.878 216.757 464.819 216.782C464.76 216.807 464.706 216.845 464.661 216.894C464.615 216.943 464.579 217.001 464.555 217.066C464.53 217.131 464.517 217.2 464.517 217.27C464.517 217.341 464.53 217.41 464.555 217.475C464.579 217.54 464.615 217.598 464.661 217.647C464.706 217.696 464.76 217.734 464.819 217.759C464.878 217.784 464.94 217.796 465.003 217.793Z" fill="white"/>
<path d="M56.7694 331.023L374.233 331.023C382.634 331.023 389.444 323.433 389.444 314.07L389.444 34.9328C389.444 25.5703 382.634 17.9804 374.233 17.9804L56.7694 17.9804C48.3685 17.9804 41.5583 25.5703 41.5583 34.9328L41.5583 314.07C41.5583 323.433 48.3685 331.023 56.7694 331.023Z" fill="white"/>
<path d="M41.0508 314.07V34.9335C41.0556 30.2891 42.7131 25.8364 45.6599 22.5523C48.6067 19.2682 52.602 17.4209 56.7694 17.4156H374.233C378.4 17.4211 382.396 19.2685 385.342 22.5525C388.289 25.8366 389.947 30.2892 389.952 34.9335V314.07C389.947 318.715 388.289 323.167 385.343 326.452C382.396 329.736 378.4 331.583 374.233 331.588H56.7694C52.6019 331.583 48.6065 329.736 45.6597 326.452C42.7129 323.168 41.0554 318.715 41.0508 314.07ZM56.7694 18.5459C52.8709 18.5508 49.1333 20.2789 46.3767 23.3511C43.62 26.4234 42.0694 30.5888 42.065 34.9335V314.07C42.0694 318.415 43.62 322.581 46.3767 325.653C49.1333 328.725 52.8709 330.453 56.7694 330.458H374.233C378.132 330.453 381.869 328.725 384.626 325.653C387.383 322.581 388.933 318.415 388.937 314.07V34.9335C388.933 30.5887 387.383 26.4232 384.626 23.3509C381.869 20.2787 378.132 18.5506 374.233 18.5459H56.7694Z" fill="#292A2E"/>
<path d="M41.5582 34.9301V51.9896H389.442V34.9301C389.442 30.4346 387.84 26.1232 384.988 22.9444C382.135 19.7656 378.267 17.9798 374.233 17.9798H56.7693C54.7719 17.9795 52.7939 18.4177 50.9484 19.2694C49.103 20.1211 47.4261 21.3697 46.0136 22.9437C44.6011 24.5177 43.4806 26.3864 42.7161 28.443C41.9517 30.4997 41.5582 32.704 41.5582 34.9301Z" fill="#292A2E"/>
<path d="M318.845 108.912C318.944 108.489 319.119 108.093 319.359 107.749C319.6 107.404 319.901 107.117 320.244 106.907C320.587 106.696 320.966 106.565 321.356 106.523C321.746 106.48 322.14 106.527 322.513 106.66C323.227 106.944 323.818 107.521 324.166 108.272C324.514 109.024 324.593 109.895 324.387 110.709L323.401 114.91L331.961 103.238C332.892 101.922 334.793 100.97 336.047 102.233C336.558 102.683 336.917 103.313 337.066 104.021C337.214 104.728 337.143 105.47 336.864 106.126C336.878 106.133 336.892 106.142 336.904 106.153C336.912 106.162 336.919 106.171 336.926 106.181L338.363 104.151C338.627 103.778 338.963 103.474 339.346 103.263C339.729 103.051 340.149 102.937 340.576 102.928C341.004 102.92 341.427 103.017 341.817 103.213C342.206 103.408 342.552 103.698 342.829 104.061C343.26 104.649 343.495 105.385 343.495 106.144C343.495 106.904 343.26 107.64 342.829 108.228L342.217 109.092C342.232 109.124 342.242 109.159 342.245 109.195C342.774 108.722 343.435 108.472 344.113 108.489C344.791 108.506 345.441 108.789 345.951 109.287C346.503 109.868 346.837 110.66 346.884 111.504C346.932 112.348 346.691 113.181 346.209 113.834L344.706 115.958C344.738 115.945 344.772 115.94 344.806 115.943C344.84 115.946 344.873 115.957 344.903 115.974C344.933 115.992 344.96 116.017 344.981 116.046C345.002 116.076 345.017 116.11 345.026 116.147C345.592 115.877 346.22 115.816 346.82 115.973C347.419 116.13 347.958 116.496 348.357 117.019C348.788 117.607 349.023 118.343 349.023 119.102C349.023 119.861 348.788 120.597 348.357 121.186L335.545 139.287C333.752 141.819 331.322 143.696 328.566 144.679C325.81 145.662 322.853 145.706 320.075 144.804L311.128 141.899L318.845 108.912Z" fill="#E98862"/>
<g opacity="0.2">
<path d="M328.446 117.73C328.501 117.777 328.571 117.799 328.64 117.79C328.709 117.781 328.772 117.743 328.816 117.683L336.944 106.57C336.988 106.509 337.009 106.431 337.002 106.353C336.995 106.275 336.96 106.203 336.906 106.153C336.851 106.104 336.781 106.08 336.711 106.088C336.64 106.096 336.576 106.135 336.531 106.196L328.403 117.308C328.359 117.369 328.338 117.447 328.345 117.526C328.352 117.604 328.387 117.676 328.441 117.725L328.446 117.73Z" fill="#0C0C0C"/>
</g>
<g opacity="0.2">
<path d="M332.748 121.861C332.802 121.908 332.872 121.93 332.941 121.921C333.01 121.913 333.073 121.874 333.117 121.814L342.19 109.413C342.234 109.352 342.255 109.274 342.248 109.195C342.241 109.117 342.206 109.045 342.151 108.995C342.096 108.948 342.026 108.926 341.957 108.934C341.887 108.942 341.823 108.979 341.777 109.038L332.704 121.439C332.66 121.5 332.639 121.578 332.646 121.657C332.653 121.735 332.688 121.807 332.743 121.857L332.748 121.861Z" fill="#0C0C0C"/>
</g>
<g opacity="0.2">
<path d="M337.38 126.365C337.435 126.412 337.504 126.434 337.573 126.425C337.642 126.416 337.705 126.378 337.749 126.318L344.987 116.426C345.028 116.364 345.046 116.288 345.037 116.212C345.029 116.136 344.994 116.067 344.941 116.018C344.888 115.97 344.82 115.947 344.751 115.953C344.683 115.959 344.619 115.994 344.574 116.051L337.337 125.943C337.315 125.973 337.298 126.008 337.288 126.046C337.278 126.083 337.275 126.122 337.278 126.161C337.282 126.199 337.292 126.237 337.309 126.271C337.325 126.306 337.348 126.336 337.375 126.361L337.38 126.365Z" fill="#0C0C0C"/>
</g>
<path d="M152.005 84.5405C152.005 84.5405 148.659 103.329 144.031 109.65C130.705 127.849 124.914 149.659 134.587 162.89C144.259 176.12 214.594 186.486 223.047 160.498C230.164 138.62 220.818 134.801 220.646 115.876C220.568 107.313 219.71 89.2564 219.71 89.2564" fill="#0A0A0A"/>
<path d="M208.563 150.109C208.44 150.091 207.082 175.226 180.886 173.03C162.75 171.516 156.284 150.072 155.869 150.072C157.824 149.609 161.116 148.935 161.985 148.419C164.84 146.709 168.374 144.929 169.295 138.749C169.825 135.186 168.925 116.962 169.202 113.357L197.039 120.282C196.651 127.894 193.928 145.541 203.47 148.664C205.058 149.182 206.768 149.657 208.563 150.109Z" fill="#E98862"/>
<path opacity="0.5" d="M197.43 141.454C196.994 139.888 196.713 138.273 196.592 136.638C196.287 132.909 196.349 129.154 196.777 125.44C191.119 124.588 185.789 121.985 181.391 117.927C180.875 120.055 178.032 129.351 178.819 131.373C180.304 135.195 187.296 141.454 197.43 141.454Z" fill="#0C0C0C"/>
<path d="M192.593 135.469C181.571 135.065 168.056 128.171 167.025 111.595L166.094 96.6349C165.063 80.0593 172.038 66.0179 186.045 64.9357C200.049 63.8535 211.353 76.4818 212.384 93.0575L212.796 99.6791C213.189 106.043 212.256 136.19 192.593 135.469Z" fill="#E98862"/>
<path d="M191.458 116.681C192.998 117.532 196.2 118.671 200.643 116.948C201.128 116.76 201.497 117.375 201.251 117.984C200.309 120.317 198.155 123.01 194.374 122.088C193.403 121.901 192.512 121.369 191.835 120.572C191.158 119.774 190.731 118.754 190.618 117.663C190.516 117.039 191.026 116.442 191.458 116.681Z" fill="white"/>
<path d="M208.898 100.962C209.853 100.962 210.627 100.1 210.627 99.0354C210.627 97.9712 209.853 97.1084 208.898 97.1084C207.943 97.1084 207.169 97.9712 207.169 99.0354C207.169 100.1 207.943 100.962 208.898 100.962Z" fill="#0C0C0C"/>
<path d="M191.152 100.962C192.107 100.962 192.881 100.1 192.881 99.0354C192.881 97.9712 192.107 97.1084 191.152 97.1084C190.197 97.1084 189.423 97.9712 189.423 99.0354C189.423 100.1 190.197 100.962 191.152 100.962Z" fill="#0C0C0C"/>
<path opacity="0.5" d="M199.313 113.561H199.34C199.908 113.513 200.473 113.43 201.032 113.312C201.868 113.13 202.974 112.791 202.922 111.962C202.861 111.017 199.908 101.006 199.571 99.8678C199.539 99.7723 199.475 99.6943 199.393 99.6502C199.31 99.6061 199.215 99.5994 199.128 99.6314C199.041 99.6635 198.969 99.7317 198.926 99.822C198.883 99.9122 198.873 100.017 198.898 100.116C200.16 104.379 202.176 111.381 202.216 112.017C202.092 112.291 200.699 112.664 199.291 112.771C199.2 112.78 199.116 112.826 199.055 112.902C198.994 112.978 198.962 113.076 198.965 113.178C198.968 113.279 199.006 113.375 199.07 113.447C199.135 113.518 199.222 113.559 199.313 113.561V113.561Z" fill="#0C0C0C"/>
<path d="M154.595 100.292L167.14 99.3998C176.884 96.4325 181.602 78.8624 181.602 78.8624C181.602 78.8624 191.594 92.6217 219.708 89.2536C219.708 89.2536 218.737 45.9863 176.985 53.0231C163.522 55.2918 152.608 68.7018 151.696 88.4281C151.056 102.251 154.595 100.292 154.595 100.292Z" fill="#0A0A0A"/>
<path d="M168.209 116.578C163.953 116.907 160.187 112.1 159.893 107.356C159.598 102.613 162.885 99.7313 167.14 99.4026L169.531 102.411L171.871 116.295L168.209 116.578Z" fill="#E98862"/>
<path d="M202.951 91.9328C204.243 91.2231 205.682 90.9136 207.118 91.0365C207.826 91.0917 208.523 91.2654 209.185 91.5519C209.842 91.8322 210.465 92.2039 211.038 92.6581C211.106 92.7092 211.152 92.7876 211.169 92.8765C211.185 92.9655 211.17 93.058 211.126 93.1346C211.082 93.2112 211.013 93.2657 210.934 93.2867C210.855 93.3077 210.771 93.2934 210.701 93.2469L210.68 93.2332C210.14 92.8401 209.558 92.524 208.948 92.2924C208.343 92.0602 207.711 91.9309 207.071 91.9087C205.802 91.855 204.543 92.1768 203.421 92.8413L203.39 92.8606C203.281 92.9278 203.152 92.9439 203.032 92.9054C202.912 92.8669 202.811 92.7768 202.75 92.655C202.69 92.5333 202.676 92.3898 202.71 92.2561C202.745 92.1225 202.826 92.0096 202.935 91.9424L202.951 91.9328Z" fill="#0C0C0C"/>
<path d="M191.68 93.7849C190.488 93.294 189.202 93.1628 187.95 93.4047C187.32 93.5214 186.708 93.744 186.137 94.0649C185.56 94.3849 185.02 94.7847 184.532 95.2549L184.514 95.2713C184.483 95.301 184.447 95.3235 184.407 95.3375C184.368 95.3514 184.327 95.3567 184.286 95.3529C184.245 95.3491 184.205 95.3364 184.168 95.3154C184.132 95.2944 184.099 95.2655 184.072 95.2305C184.046 95.1955 184.026 95.155 184.013 95.1113C184.001 95.0676 183.996 95.0216 183.999 94.9759C184.003 94.9301 184.014 94.8856 184.033 94.8448C184.052 94.804 184.078 94.7678 184.109 94.7381C184.623 94.2027 185.196 93.7415 185.814 93.3656C186.435 92.9834 187.105 92.7075 187.8 92.5469C189.208 92.212 190.672 92.3047 192.037 92.8153C192.155 92.8608 192.252 92.9566 192.307 93.0818C192.361 93.207 192.369 93.3511 192.328 93.4826C192.287 93.6141 192.201 93.7222 192.089 93.783C191.977 93.8438 191.847 93.8524 191.729 93.8069L191.714 93.8007L191.68 93.7849Z" fill="#0C0C0C"/>
<path d="M181.482 76.9451C181.482 76.9451 183.721 94.7711 167.144 99.0354" stroke="#0C0C0C" stroke-width="0.5" stroke-miterlimit="10"/>
<path opacity="0.1" d="M191.465 110.645C191.479 109.158 190.016 107.935 188.197 107.914C186.378 107.892 184.892 109.08 184.878 110.567C184.864 112.054 186.327 113.276 188.146 113.298C189.965 113.319 191.451 112.132 191.465 110.645Z" fill="#0C0C0C"/>
<path opacity="0.1" d="M207.757 110.19C207.748 111.675 209.21 112.896 211.029 112.92C211.343 112.924 211.657 112.892 211.965 112.823C212.252 111.091 212.453 109.415 212.589 107.856C212.107 107.645 211.595 107.537 211.078 107.536C209.256 107.511 207.77 108.702 207.757 110.19Z" fill="#0C0C0C"/>
<path d="M120.95 299.427L116.209 331.634H234.44L230.021 299.232L120.95 299.427Z" fill="#262626"/>
<path d="M180.285 166.785C162.136 165.832 161.372 148.668 161.372 148.668C161.372 148.668 152.382 149.316 146.403 150.217C136.616 151.693 130.16 155.391 125.022 161.117C120.243 166.444 117.333 172.206 120.412 209C122.642 235.642 120.95 299.43 120.95 299.43L230.021 299.236C230.021 299.236 240.198 217.435 241.113 205.441C242.86 182.547 239.137 163.193 234.872 158.44C226.103 148.668 211.009 148.668 203.468 148.669C203.347 148.666 204.999 168.083 180.285 166.785Z" fill="#367CFF"/>
<path d="M310.005 124.094L274.735 196.145L232.648 156.385L206.768 190.411L267.592 247.873L268.027 248.29C270.317 250.426 273.013 251.953 275.911 252.755C278.81 253.556 281.834 253.611 284.754 252.915C287.674 252.219 290.414 250.791 292.765 248.739C295.116 246.687 297.016 244.064 298.322 241.071L341.401 142.114L310.005 124.094Z" fill="#367CFF"/>
<path d="M131.491 269.72L138.13 330.458H98.1103L91.4354 265.932C91.4133 263.167 91.8517 260.421 92.7285 257.834L121.712 166.646L159.76 181.064L131.491 269.72Z" fill="#367CFF"/>
<path d="M137.825 330.5L131.176 269.675L131.204 269.594L149.495 217.86L150.069 218.113L131.806 269.765L138.436 330.417L137.825 330.5Z" fill="#0C0C0C"/>
<path d="M241.276 202.735L239.068 222.288L239.597 222.362L241.804 202.809L241.276 202.735Z" fill="#0C0C0C"/>
<path d="M631.509 644H15.4907C15.3763 644 15.2667 643.949 15.1859 643.859C15.105 643.769 15.0596 643.647 15.0596 643.52C15.0596 643.392 15.105 643.27 15.1859 643.18C15.2667 643.09 15.3763 643.039 15.4907 643.039H631.509C631.624 643.039 631.733 643.09 631.814 643.18C631.895 643.27 631.94 643.392 631.94 643.52C631.94 643.647 631.895 643.769 631.814 643.859C631.733 643.949 631.624 644 631.509 644Z" fill="#292A2E"/>
<g opacity="0.65">
<path d="M631.509 644H15.4907C15.3763 644 15.2667 643.949 15.1859 643.859C15.105 643.769 15.0596 643.647 15.0596 643.52C15.0596 643.392 15.105 643.27 15.1859 643.18C15.2667 643.09 15.3763 643.039 15.4907 643.039H631.509C631.624 643.039 631.733 643.09 631.814 643.18C631.895 643.27 631.94 643.392 631.94 643.52C631.94 643.647 631.895 643.769 631.814 643.859C631.733 643.949 631.624 644 631.509 644Z" fill="#292A2E"/>
</g>
<path opacity="0.49" d="M215.501 315.181C231.427 315.181 244.337 300.793 244.337 283.044C244.337 265.296 231.427 250.907 215.501 250.907C199.576 250.907 186.665 265.296 186.665 283.044C186.665 300.793 199.576 315.181 215.501 315.181Z" fill="white"/>
<path d="M215.501 306.844C227.295 306.844 236.856 296.188 236.856 283.044C236.856 269.9 227.295 259.245 215.501 259.245C203.707 259.245 194.147 269.9 194.147 283.044C194.147 296.188 203.707 306.844 215.501 306.844Z" fill="white"/>
<path d="M229.893 290.877C230.141 291.061 230.316 291.345 230.381 291.67C230.446 291.994 230.397 292.334 230.244 292.62L228.846 295.216C228.476 295.918 227.877 296.434 227.174 296.657C224.85 297.368 219.727 297.511 211.515 288.359C203.304 279.208 203.432 273.497 204.07 270.908C204.27 270.124 204.733 269.457 205.363 269.043L207.693 267.486C207.949 267.315 208.254 267.26 208.545 267.333C208.836 267.406 209.091 267.602 209.256 267.878L212.97 274.087C213.133 274.359 213.197 274.69 213.15 275.012C213.103 275.334 212.948 275.625 212.717 275.826L210.631 277.633C210.411 277.821 210.26 278.09 210.203 278.392C210.147 278.695 210.189 279.009 210.323 279.28C210.935 280.507 211.516 281.953 214.387 285.158C217.259 288.363 218.562 289.006 219.663 289.687C219.904 289.836 220.186 289.884 220.457 289.821C220.728 289.758 220.969 289.589 221.137 289.344L222.76 287.02C222.94 286.763 223.2 286.59 223.49 286.538C223.779 286.485 224.076 286.557 224.32 286.738L229.893 290.877Z" fill="#0CBC8B"/>
<path d="M544.221 357.061C513.56 357.061 488.706 366.383 488.706 377.882V402.67H599.737V377.882C599.737 366.383 574.881 357.061 544.221 357.061Z" fill="#367CFF"/>
<path opacity="0.49" d="M544.221 357.061C513.56 357.061 488.706 366.383 488.706 377.882V402.67H599.737V377.882C599.737 366.383 574.881 357.061 544.221 357.061Z" fill="white"/>
<path opacity="0.49" d="M584.613 377.885V402.669H488.705V377.885C488.705 367.344 509.579 358.635 536.659 357.259C563.741 358.634 584.613 367.344 584.613 377.885Z" fill="white"/>
<path d="M599.736 643.526L601.583 641.449L599.736 400.471L597.889 402.547L599.207 572.328L533.435 573.574L532.108 402.53L530.261 402.547L531.588 573.609L491.884 574.361L490.552 402.53L488.705 400.488L490.552 641.467L492.399 643.508L491.9 576.42L531.604 575.668L532.108 643.526L533.956 643.508L533.451 575.633L599.223 574.387L599.736 643.526Z" fill="#292A2E"/>
<path d="M430.127 607.128C430.127 607.128 426.826 626.202 410.802 627.265C394.779 628.328 398.253 642.555 398.253 642.555H459.487V608.459L430.127 607.128Z" fill="#367CFF"/>
<path d="M465.064 549.761C465.064 549.761 469.656 568.5 455.699 577.337C441.741 586.174 450.494 597.229 450.494 597.229L505.44 567.103L491.936 536.51L465.064 549.761Z" fill="#367CFF"/>
<path d="M459.251 562.146L417.849 388.052C414.708 368.819 419.437 360.483 426.722 352.384C439.521 338.156 492.557 307.873 492.557 307.873L556.183 307.68C573.055 307.68 589.639 326.22 589.639 345.022C589.639 363.824 572.488 379.771 555.618 379.771L477.267 388.486L498.505 547.893L459.251 562.146Z" fill="#262626"/>
<path d="M498.505 547.89L490.144 485.134L447.785 513.932L459.251 562.146L498.505 547.89Z" fill="#0C0C0C"/>
<path d="M508.107 343.103C508.107 343.103 481.361 349.746 454.871 379.268C438.81 397.168 440.126 429.559 442.536 491.859L468.845 448.55L497.702 390.545L508.107 343.103Z" fill="#0C0C0C"/>
<path d="M600.716 307.659L557.506 307.432L557.489 308.066H544.406C544.406 308.066 511.632 341.678 485.245 362.857C466.051 378.262 454.343 392.949 453.329 408.957C450.859 447.978 423.004 614.399 423.004 614.399L464.926 621.475L501.713 422.591C501.713 422.591 559.241 393.036 572.547 382.75C585.076 373.065 593.926 369.321 598.072 358.751C605.234 340.493 600.716 307.659 600.716 307.659Z" fill="#262626"/>
<path d="M519.089 96.8786C519.089 96.8786 512.301 88.6799 512.826 73.0657C513.232 60.976 521.747 70.5794 521.747 70.5794C521.747 70.5794 522.116 61.8771 527.531 63.8404C532.946 65.8038 534.613 75.3591 534.613 75.3591" fill="#0C0C0C"/>
<path d="M556.087 70.6261C556.087 70.6261 583.119 79.4787 566.391 119.1L563.923 118.79L558.912 118.161" fill="#0C0C0C"/>
<path d="M517.778 160.196C517.902 160.178 519.268 185.45 545.614 183.249C563.853 181.726 570.356 160.16 570.774 160.16C568.808 159.694 566.377 158.988 565.411 158.745C563.306 158.201 561.4 156.955 559.946 155.173C558.492 153.392 557.559 151.159 557.271 148.773C556.738 145.19 557.641 126.862 557.364 123.237L529.369 130.201C529.76 137.857 532.498 155.604 522.903 158.745C521.302 159.265 519.584 159.742 517.778 160.196Z" fill="#E98862"/>
<path opacity="0.52" d="M528.975 151.492C529.414 149.917 529.696 148.293 529.817 146.649C530.124 142.899 530.062 139.122 529.632 135.386C535.323 134.53 540.683 131.913 545.106 127.831C545.626 129.971 548.485 139.32 547.692 141.35C546.199 145.197 539.167 151.492 528.975 151.492Z" fill="#0C0C0C"/>
<path d="M533.546 143.445C544.59 144.552 558.842 139.522 561.699 123.118L564.278 108.316C567.137 91.9149 561.722 76.9416 547.863 73.9427C534.004 70.9438 521.329 82 518.471 98.4041L517.33 104.957C516.973 107.215 516.754 109.497 516.676 111.787C516.429 117.839 516.074 127.045 518.686 133.849C521.152 140.269 526.489 142.74 533.546 143.445Z" fill="#E98862"/>
<path d="M525.334 125.817C529.446 126.346 533.599 125.333 537.137 122.938C537.26 122.856 537.401 122.814 537.544 122.818C537.687 122.822 537.827 122.871 537.946 122.96C538.065 123.048 538.159 123.173 538.216 123.319C538.274 123.465 538.293 123.627 538.272 123.784C537.877 126.485 536.454 131.414 531.313 131.772C527.995 132.004 525.727 129.049 524.602 127.106C524.523 126.971 524.481 126.814 524.481 126.654C524.48 126.493 524.521 126.336 524.598 126.2C524.675 126.064 524.785 125.956 524.916 125.888C525.046 125.82 525.192 125.796 525.334 125.817Z" fill="white"/>
<path d="M521.788 109.09C522.748 109.09 523.527 108.223 523.527 107.152C523.527 106.082 522.748 105.214 521.788 105.214C520.827 105.214 520.049 106.082 520.049 107.152C520.049 108.223 520.827 109.09 521.788 109.09Z" fill="#0C0C0C"/>
<path d="M538.694 111.293C539.654 111.293 540.433 110.426 540.433 109.355C540.433 108.285 539.654 107.417 538.694 107.417C537.734 107.417 536.955 108.285 536.955 109.355C536.955 110.426 537.734 111.293 538.694 111.293Z" fill="#0C0C0C"/>
<path d="M559.968 127.929C564.18 128.841 568.469 124.558 569.287 119.864C570.104 115.171 567.141 111.844 562.93 110.932L560.211 113.608L556.347 127.147L559.968 127.929Z" fill="#E98862"/>
<path d="M556.996 119.523C556.996 119.523 559.349 95.9693 553.252 93.2558C549.192 91.4489 537.886 96.0509 528.745 92.1283C524.743 90.4127 520.627 90.7613 519.873 92.8613C519.574 93.693 519.011 80.7634 527.025 72.6539C533.409 66.1977 550.656 67.4899 557.947 71.5004C578.135 82.6039 563.635 112.133 563.635 112.133L561.383 119.962L556.996 119.523Z" fill="#0C0C0C"/>
<g opacity="0.52">
<path d="M529.284 121.398L529.256 121.393C527.902 121.103 525.65 120.448 525.843 119.316C526.005 118.378 530.048 108.744 530.509 107.65C530.528 107.602 530.555 107.558 530.589 107.522C530.623 107.485 530.664 107.457 530.708 107.438C530.752 107.42 530.799 107.411 530.846 107.413C530.893 107.415 530.94 107.428 530.982 107.45C531.025 107.472 531.063 107.504 531.095 107.543C531.126 107.582 531.15 107.628 531.166 107.678C531.181 107.728 531.187 107.78 531.184 107.833C531.181 107.885 531.168 107.937 531.147 107.983C529.353 112.249 526.645 118.826 526.535 119.465C526.623 119.761 527.983 120.323 529.389 120.623C529.477 120.643 529.556 120.7 529.608 120.783C529.66 120.865 529.681 120.967 529.668 121.067C529.655 121.167 529.607 121.257 529.536 121.319C529.464 121.38 529.374 121.409 529.284 121.399V121.398Z" fill="#0C0C0C"/>
</g>
<path d="M528.322 97.7906C526.963 97.0649 525.454 96.7612 523.953 96.9115C523.217 96.9806 522.494 97.1724 521.809 97.4804C521.132 97.7812 520.491 98.1762 519.903 98.6559C519.789 98.7378 519.709 98.867 519.68 99.015C519.651 99.163 519.676 99.3177 519.749 99.4451C519.823 99.5725 519.939 99.6622 520.072 99.6944C520.204 99.7265 520.343 99.6986 520.458 99.6167L520.493 99.5927C521.027 99.2134 521.601 98.9103 522.202 98.6903C522.793 98.4702 523.411 98.3513 524.035 98.3375C525.263 98.3 526.479 98.6243 527.559 99.2777L527.605 99.3065C527.693 99.3624 527.789 99.3985 527.89 99.4127C527.99 99.4269 528.092 99.4189 528.19 99.3892C528.287 99.3595 528.379 99.3087 528.459 99.2396C528.539 99.1706 528.606 99.0846 528.656 98.9867C528.706 98.8888 528.738 98.7808 528.751 98.669C528.764 98.5571 528.757 98.4435 528.73 98.3348C528.703 98.226 528.658 98.1241 528.596 98.035C528.534 97.9459 528.457 97.8712 528.369 97.8153C528.353 97.8091 528.337 97.7995 528.322 97.7906Z" fill="#0C0C0C"/>
<path d="M538.292 100.791C539.475 100.421 540.725 100.407 541.916 100.748C542.52 100.916 543.099 101.185 543.632 101.546C544.174 101.91 544.673 102.348 545.118 102.85L545.146 102.881C545.242 102.987 545.371 103.047 545.506 103.047C545.641 103.048 545.771 102.989 545.867 102.884C545.963 102.779 546.019 102.635 546.021 102.485C546.023 102.335 545.971 102.19 545.878 102.081C545.4 101.468 544.855 100.924 544.255 100.462C543.649 99.9921 542.982 99.6259 542.278 99.3758C540.845 98.8574 539.313 98.7789 537.844 99.1487C537.645 99.2005 537.473 99.3384 537.365 99.5319C537.257 99.7254 537.223 99.9587 537.269 100.18C537.316 100.402 537.44 100.594 537.613 100.714C537.787 100.835 537.996 100.873 538.195 100.821C538.211 100.817 538.226 100.813 538.241 100.807L538.292 100.791Z" fill="#0C0C0C"/>
<path d="M541.651 75.7153C543.444 70.7836 542.461 65.685 539.454 64.3271C536.448 62.9692 532.557 65.8663 530.764 70.7979C528.97 75.7295 529.954 80.8282 532.96 82.1861C535.967 83.544 539.858 80.6469 541.651 75.7153Z" fill="#0C0C0C"/>
<path d="M485.045 215.839C485.875 226.704 491.757 294.49 492.558 307.873H600.669C601.29 295.802 604.079 243.022 606.435 219.419C608.683 196.895 611.835 186.645 609.245 179.646C604.676 167.301 590.138 161.788 580.292 160.302C574.28 159.395 565.238 158.745 565.238 158.745C565.238 158.745 564.472 176.007 546.216 176.967C521.364 178.271 523.023 158.745 522.9 158.745C518.874 158.745 496.96 162.008 491.48 165.989C483.74 171.61 481.453 179.272 481.362 186.311C481.259 194.415 484.103 203.516 485.045 215.839Z" fill="#367CFF"/>
<path d="M389.82 157.725C389.642 157.336 389.395 156.991 389.094 156.711C388.793 156.432 388.444 156.223 388.068 156.099C387.692 155.975 387.298 155.937 386.909 155.989C386.52 156.04 386.144 156.179 385.804 156.398C385.161 156.846 384.694 157.55 384.499 158.368C384.303 159.185 384.393 160.054 384.75 160.801L386.516 164.671L375.914 155.307C374.751 154.243 372.712 153.766 371.727 155.298C371.314 155.859 371.084 156.561 371.074 157.287C371.065 158.013 371.277 158.722 371.675 159.296C371.662 159.306 371.651 159.318 371.641 159.331C371.635 159.342 371.63 159.353 371.625 159.365L369.832 157.724C369.502 157.422 369.116 157.206 368.701 157.09C368.287 156.974 367.854 156.963 367.435 157.056C367.016 157.149 366.621 157.345 366.278 157.629C365.935 157.913 365.653 158.278 365.452 158.699C365.144 159.376 365.056 160.151 365.202 160.893C365.348 161.634 365.719 162.297 366.253 162.769L367.016 163.467C367.007 163.502 367.005 163.539 367.008 163.574C366.401 163.239 365.707 163.152 365.048 163.33C364.389 163.508 363.808 163.939 363.406 164.547C362.978 165.246 362.804 166.099 362.919 166.935C363.034 167.772 363.429 168.528 364.026 169.051L365.901 170.767C365.858 170.763 365.816 170.771 365.777 170.79C365.738 170.808 365.703 170.836 365.676 170.873C365.646 170.918 365.628 170.972 365.625 171.028C365.02 170.899 364.394 170.989 363.838 171.286C363.283 171.582 362.827 172.069 362.537 172.675C362.229 173.352 362.141 174.127 362.287 174.869C362.433 175.611 362.804 176.273 363.338 176.745L379.324 191.377C381.561 193.424 384.295 194.68 387.176 194.984C390.057 195.288 392.954 194.626 395.495 193.084L403.678 188.116L389.82 157.725Z" fill="#E98862"/>
<g opacity="0.2">
<path d="M382.128 168.626C382.083 168.685 382.02 168.723 381.951 168.731C381.882 168.739 381.813 168.716 381.758 168.669L371.686 159.747C371.659 159.723 371.636 159.693 371.619 159.659C371.602 159.625 371.591 159.587 371.587 159.549C371.583 159.51 371.586 159.471 371.596 159.433C371.606 159.396 371.622 159.361 371.643 159.33C371.665 159.3 371.692 159.274 371.723 159.256C371.753 159.237 371.787 159.225 371.822 159.22C371.856 159.216 371.892 159.219 371.925 159.23C371.959 159.24 371.99 159.258 372.018 159.283L382.09 168.204C382.117 168.228 382.14 168.258 382.157 168.292C382.174 168.326 382.184 168.364 382.189 168.402C382.193 168.441 382.19 168.48 382.18 168.518C382.17 168.555 382.154 168.59 382.133 168.62L382.128 168.626Z" fill="#0C0C0C"/>
</g>
<g opacity="0.2">
<path d="M378.721 173.685C378.676 173.744 378.613 173.782 378.544 173.79C378.475 173.798 378.406 173.775 378.351 173.728L367.11 163.773C367.083 163.749 367.06 163.719 367.043 163.685C367.026 163.651 367.015 163.613 367.011 163.574C367.007 163.536 367.01 163.496 367.02 163.459C367.029 163.422 367.046 163.387 367.067 163.356C367.113 163.297 367.176 163.259 367.246 163.25C367.315 163.241 367.385 163.262 367.441 163.308L378.682 173.263C378.709 173.287 378.732 173.317 378.749 173.351C378.766 173.385 378.777 173.423 378.781 173.461C378.785 173.5 378.782 173.539 378.772 173.577C378.762 173.614 378.746 173.649 378.724 173.68L378.721 173.685Z" fill="#0C0C0C"/>
</g>
<g opacity="0.2">
<path d="M375.059 179.189C375.015 179.248 374.951 179.285 374.882 179.293C374.813 179.301 374.744 179.278 374.69 179.231L365.722 171.288C365.667 171.239 365.631 171.168 365.623 171.089C365.615 171.011 365.635 170.933 365.679 170.871C365.723 170.809 365.787 170.77 365.857 170.761C365.928 170.752 365.998 170.774 366.053 170.823L375.02 178.763C375.075 178.812 375.111 178.884 375.119 178.962C375.127 179.04 375.106 179.119 375.062 179.18L375.059 179.189Z" fill="#0C0C0C"/>
</g>
<path d="M542.932 333.09C542.55 333.19 542.191 333.375 541.876 333.635C541.561 333.895 541.296 334.223 541.099 334.601C540.902 334.978 540.775 335.396 540.728 335.83C540.68 336.263 540.713 336.703 540.823 337.122C541.061 337.925 541.563 338.598 542.229 339.004C542.895 339.41 543.675 339.518 544.41 339.308L548.203 338.315L537.525 347.572C536.321 348.578 535.422 350.67 536.524 352.101C536.916 352.682 537.472 353.097 538.103 353.28C538.734 353.462 539.402 353.401 539.998 353.106C540.003 353.122 540.011 353.137 540.02 353.152C540.028 353.16 540.036 353.169 540.045 353.176L538.19 354.728C537.848 355.014 537.567 355.381 537.368 355.802C537.169 356.223 537.057 356.689 537.039 357.165C537.02 357.64 537.097 358.115 537.263 358.553C537.43 358.992 537.681 359.384 538 359.701C538.517 360.195 539.172 360.475 539.853 360.493C540.534 360.511 541.2 360.266 541.738 359.8L542.528 359.14C542.556 359.157 542.587 359.168 542.619 359.173C542.182 359.751 541.942 360.482 541.941 361.237C541.94 361.993 542.178 362.725 542.613 363.304C543.12 363.933 543.823 364.324 544.579 364.398C545.335 364.472 546.088 364.223 546.686 363.701L548.627 362.078C548.614 362.123 548.61 362.171 548.617 362.218C548.624 362.264 548.64 362.309 548.666 362.347C548.698 362.39 548.74 362.422 548.789 362.439C548.533 363.064 548.463 363.763 548.589 364.434C548.716 365.106 549.031 365.715 549.49 366.173C550.007 366.666 550.662 366.946 551.343 366.964C552.024 366.982 552.69 366.737 553.228 366.271L569.775 352.434C572.09 350.498 573.834 347.836 574.782 344.789C575.731 341.742 575.841 338.449 575.099 335.331L572.71 325.293L542.932 333.09Z" fill="#E98862"/>
<g opacity="0.2">
<path d="M550.609 344.004C550.65 344.066 550.668 344.144 550.659 344.221C550.649 344.298 550.613 344.368 550.558 344.416L540.391 353.203C540.363 353.227 540.332 353.245 540.298 353.255C540.264 353.265 540.229 353.268 540.194 353.263C540.16 353.258 540.126 353.246 540.096 353.226C540.066 353.207 540.039 353.181 540.018 353.151C539.996 353.12 539.98 353.085 539.971 353.047C539.962 353.009 539.959 352.97 539.964 352.932C539.968 352.893 539.979 352.856 539.997 352.822C540.014 352.788 540.037 352.758 540.065 352.734L550.231 343.948C550.287 343.9 550.358 343.879 550.428 343.889C550.498 343.898 550.562 343.939 550.605 344.001L550.609 344.004Z" fill="#0C0C0C"/>
</g>
<g opacity="0.2">
<path d="M554.211 348.893C554.252 348.956 554.27 349.034 554.261 349.111C554.251 349.188 554.215 349.258 554.159 349.305L542.816 359.114C542.76 359.163 542.689 359.184 542.619 359.174C542.549 359.164 542.486 359.124 542.442 359.062C542.401 358.999 542.383 358.921 542.392 358.844C542.401 358.766 542.436 358.696 542.489 358.646L553.833 348.838C553.889 348.79 553.96 348.768 554.03 348.778C554.1 348.788 554.163 348.828 554.207 348.89L554.211 348.893Z" fill="#0C0C0C"/>
</g>
<g opacity="0.2">
<path d="M558.138 354.163C558.18 354.225 558.198 354.304 558.189 354.381C558.179 354.458 558.143 354.527 558.088 354.575L549.036 362.398C548.98 362.443 548.911 362.461 548.843 362.45C548.775 362.439 548.713 362.399 548.671 362.338C548.629 362.278 548.609 362.201 548.616 362.125C548.624 362.048 548.657 361.978 548.71 361.929L557.762 354.105C557.817 354.057 557.888 354.035 557.958 354.045C558.028 354.055 558.091 354.095 558.135 354.157L558.138 354.163Z" fill="#0C0C0C"/>
</g>
<path d="M645.07 262.734L644.867 262.266L608.907 179.415L572.876 198.839L602.655 267.449L551.264 324.91L576.071 353.801L640.687 288.09C643.766 284.951 645.856 280.789 646.645 276.221C647.435 271.654 646.883 266.924 645.07 262.734Z" fill="#367CFF"/>
<path d="M566.499 308.216C566.438 308.216 566.379 308.196 566.328 308.158C566.278 308.12 566.238 308.066 566.215 308.003C566.192 307.94 566.186 307.871 566.198 307.805C566.21 307.738 566.24 307.677 566.283 307.629L602.891 267.379L575.674 206.545C575.653 206.504 575.641 206.459 575.636 206.413C575.631 206.367 575.635 206.32 575.648 206.275C575.66 206.231 575.68 206.19 575.707 206.154C575.734 206.119 575.767 206.089 575.805 206.069C575.842 206.048 575.883 206.036 575.925 206.033C575.967 206.031 576.008 206.038 576.048 206.054C576.087 206.07 576.123 206.094 576.153 206.126C576.184 206.158 576.208 206.197 576.225 206.239L603.544 267.294C603.572 267.359 603.582 267.432 603.571 267.504C603.56 267.575 603.529 267.64 603.482 267.691L566.713 308.115C566.656 308.179 566.58 308.215 566.499 308.216Z" fill="#0C0C0C"/>
<path d="M488.772 168.07L438.469 219.8L401.443 168.224L376.751 195.9L418.101 259.758C421.82 268.042 429.829 273.057 438.057 271.742C441.243 271.233 444.266 269.848 446.853 267.713L447.786 266.944L515.268 204.008L488.772 168.07Z" fill="#367CFF"/>
<path d="M486.498 230.86C486.423 230.861 486.351 230.831 486.294 230.776C486.237 230.721 486.2 230.645 486.191 230.562L483.851 211.004C483.841 210.914 483.864 210.824 483.913 210.753C483.963 210.682 484.035 210.635 484.115 210.623C484.196 210.611 484.277 210.635 484.341 210.689C484.406 210.743 484.449 210.824 484.461 210.913L486.801 230.471C486.806 230.516 486.804 230.561 486.793 230.605C486.783 230.648 486.765 230.689 486.74 230.725C486.716 230.761 486.685 230.791 486.65 230.814C486.615 230.837 486.576 230.851 486.536 230.857C486.524 230.859 486.511 230.86 486.498 230.86Z" fill="#0C0C0C"/>
<path d="M444.68 230.207C444.624 230.207 444.57 230.19 444.523 230.159C444.475 230.128 444.436 230.083 444.409 230.029L438.199 219.966C438.16 219.886 438.151 219.792 438.173 219.705C438.196 219.617 438.249 219.543 438.32 219.499C438.392 219.455 438.476 219.445 438.555 219.47C438.633 219.496 438.699 219.554 438.739 219.634L444.948 229.698C444.974 229.75 444.987 229.809 444.986 229.869C444.985 229.928 444.971 229.986 444.944 230.038C444.916 230.089 444.878 230.132 444.831 230.161C444.785 230.191 444.733 230.206 444.68 230.207Z" fill="#0C0C0C"/>
</svg>
