<svg width="113" height="93" viewBox="0 0 113 93" fill="none" xmlns="http://www.w3.org/2000/svg">
<path d="M88.077 43.25C85.7883 30.1137 72.1962 20 55.7082 20C39.2202 20 25.6281 30.1137 23.3394 43.25H9V51H23.3394C25.6281 64.1362 39.2202 74.25 55.7082 74.25C72.1962 74.25 85.7883 64.1362 88.077 51H102.416V43.25H88.077ZM69.7206 56.8125C69.7206 58.9437 67.6188 60.6875 65.0498 60.6875H46.3665C43.7976 60.6875 41.6957 58.9437 41.6957 56.8125V45.1875C41.6957 43.0562 43.7976 41.3125 46.3665 41.3125V37.4375C46.3671 36.3085 46.6651 35.1933 47.2394 34.1698C47.8138 33.1463 48.6508 32.2393 49.6918 31.5122C50.7329 30.7851 51.9528 30.2555 53.2663 29.9604C54.5799 29.6653 55.9552 29.6118 57.2963 29.8038C61.8737 30.4238 65.0498 33.9887 65.0498 37.8637V41.3125C67.6188 41.3125 69.7206 43.0562 69.7206 45.1875V56.8125ZM59.2113 51C59.2113 52.5887 57.6232 53.9062 55.7082 53.9062C53.7931 53.9062 52.2051 52.5887 52.2051 51C52.2051 49.4112 53.7931 48.0938 55.7082 48.0938C57.6232 48.0938 59.2113 49.4112 59.2113 51ZM60.379 37.4375V41.3125H51.0374V37.4375C51.0374 35.3062 53.1392 33.5625 55.7082 33.5625C58.2771 33.5625 60.379 35.3062 60.379 37.4375Z" fill="white"/>
</svg>
