<svg width="270" height="250" viewBox="0 0 270 250" fill="none" xmlns="http://www.w3.org/2000/svg">
<g clip-path="url(#clip0_302_1583)">
<mask id="mask0_302_1583" style="mask-type:luminance" maskUnits="userSpaceOnUse" x="0" y="0" width="270" height="250">
<path d="M270 0H0V250H270V0Z" fill="white"/>
</mask>
<g mask="url(#mask0_302_1583)">
<path d="M177.228 47.1103V-89.5947H244.863V65.0303" stroke="#CCDDE2" stroke-width="4.82" stroke-miterlimit="10"/>
<path d="M183.951 2.00033V10.0003H192.591V-4.67969H183.951V2.00033ZM185.371 -3.36969H191.16V2.00033H185.371V-3.36969ZM185.371 3.31281H191.16V8.68784H185.371V3.31281Z" fill="#D7E8F0"/>
<path d="M199.184 2.00033V10.0003H207.824V-4.67969H199.184V2.00033ZM200.61 -3.36469H206.41V2.00033H200.61V-3.36469ZM200.61 3.31781H206.41V8.68784H200.61V3.31781Z" fill="#D7E8F0"/>
<path d="M214.002 2.00033V10.0003H222.642V-4.67969H214.002V2.00033ZM215.422 -3.36969H221.222V2.00033H215.422V-3.36969ZM215.422 3.31281H221.222V8.68784H215.422V3.31281Z" fill="#D7E8F0"/>
<path d="M227.95 2.00033V10.0003H236.59V-4.67969H227.95V2.00033ZM229.368 -3.36969H235.17V2.00033H229.368V-3.36969ZM229.368 3.31281H235.17V8.68784H229.368V3.31281Z" fill="#D7E8F0"/>
<path d="M174.245 170.282C171.963 172.412 169.703 174.782 167.295 176.935C166.632 177.533 165.955 178.112 165.262 178.67C164.492 179.29 163.698 179.88 162.886 180.42C162.827 180.262 162.754 180.11 162.67 179.962C161.306 177.462 157.607 175.88 157.148 173.045C156.73 170.397 159.308 167.965 158.887 165.37C158.412 162.435 154.513 160.692 153.792 157.825C153.333 156.045 153.743 153.992 153.576 152.157C153.385 150.106 153.01 148.072 152.456 146.077C152.726 146.06 152.996 146.052 153.266 146.045C158.747 145.96 164.141 148.81 165.915 152.815C167.343 156.065 166.617 159.792 168.515 162.83C168.629 163.026 168.758 163.215 168.901 163.395C169.153 163.714 169.423 164.019 169.711 164.31L170.313 164.89C170.413 164.982 170.524 165.067 170.624 165.167C170.724 165.267 170.832 165.355 170.932 165.455C171.877 166.292 172.841 167.135 173.467 168.135C173.524 168.222 173.574 168.312 173.618 168.405C173.675 168.498 173.726 168.594 173.769 168.692C173.826 168.8 173.869 168.902 173.91 169.002C173.95 169.102 174.002 169.252 174.045 169.357C174.104 169.545 174.161 169.722 174.204 169.907C174.204 169.955 174.204 169.995 174.22 170.032C174.236 170.07 174.22 170.062 174.22 170.08C174.224 170.095 174.224 170.11 174.22 170.125C174.22 170.157 174.22 170.18 174.236 170.202V170.217C174.232 170.239 174.235 170.262 174.245 170.282Z" fill="white"/>
<path d="M174.28 170.438H174.288L174.28 170.445V170.438Z" fill="white"/>
<path d="M174.296 170.423C174.363 170.368 174.42 170.331 174.488 170.276C174.431 170.323 174.363 170.376 174.304 170.431C174.304 170.431 174.304 170.431 174.288 170.431L174.296 170.423Z" fill="white"/>
<path d="M193.485 158.115C193.427 158.987 193.427 159.861 193.485 160.732C191.838 161.105 190.215 161.515 188.625 162.01C187.636 162.312 186.667 162.645 185.698 163.025C183.009 164.035 180.476 165.372 178.168 167C178.671 166.206 179.025 165.338 179.215 164.435C179.215 164.397 179.231 164.357 179.239 164.312C179.658 162.44 179.69 160.472 180.643 158.682C182.417 155.382 187.604 152.99 193.034 152.835H193.134C193.628 152.835 194.13 152.835 194.632 152.857C194.07 154.572 193.686 156.333 193.485 158.115Z" fill="white"/>
<path d="M191.017 155.705L188.609 162C187.62 162.302 186.651 162.635 185.682 163.015C187.229 160.23 189 157.712 191.017 155.705Z" fill="white"/>
<path d="M174.307 170.447C174.307 170.397 174.298 170.348 174.282 170.3C174.299 170.392 174.307 170.447 174.307 170.447Z" fill="white"/>
<path d="M155.993 149.378C161.393 155.861 164.978 166.878 167.295 176.936C166.632 177.534 165.955 178.112 165.262 178.671L155.993 149.378Z" fill="white"/>
<path d="M175.06 160.307C173.98 163.36 173.939 166.443 174.066 168.395C174.099 169.026 174.171 169.654 174.282 170.277L175.06 160.307Z" fill="white"/>
<path d="M174.245 170.282C171.963 172.412 169.703 174.782 167.295 176.935C166.632 177.533 165.955 178.112 165.262 178.67C164.492 179.29 163.698 179.88 162.886 180.42C162.827 180.262 162.754 180.11 162.67 179.962C161.306 177.462 157.607 175.88 157.148 173.045C156.73 170.397 159.308 167.965 158.887 165.37C158.412 162.435 154.513 160.692 153.792 157.825C153.333 156.045 153.743 153.992 153.576 152.157C153.385 150.106 153.01 148.072 152.456 146.077C152.726 146.06 152.996 146.052 153.266 146.045C158.747 145.96 164.141 148.81 165.915 152.815C167.343 156.065 166.617 159.792 168.515 162.83C168.629 163.026 168.758 163.215 168.901 163.395C169.153 163.714 169.423 164.019 169.711 164.31L170.313 164.89C170.413 164.982 170.524 165.067 170.624 165.167C170.724 165.267 170.832 165.355 170.932 165.455C171.877 166.292 172.841 167.135 173.467 168.135C173.524 168.222 173.574 168.312 173.618 168.405C173.675 168.498 173.726 168.594 173.769 168.692C173.826 168.8 173.869 168.902 173.91 169.002C173.95 169.102 174.002 169.252 174.045 169.357C174.104 169.545 174.161 169.722 174.204 169.907C174.204 169.955 174.204 169.995 174.22 170.032C174.236 170.07 174.22 170.062 174.22 170.08C174.224 170.095 174.224 170.11 174.22 170.125C174.22 170.157 174.22 170.18 174.236 170.202V170.217C174.232 170.239 174.235 170.262 174.245 170.282Z" stroke="#CCDDE2" stroke-width="4.65" stroke-miterlimit="10"/>
<path d="M179.215 164.443C179.024 165.344 178.67 166.208 178.168 167" stroke="#CCDDE2" stroke-width="4.65" stroke-miterlimit="10"/>
<path d="M193.477 160.732C193.419 159.861 193.419 158.986 193.477 158.115C193.678 156.335 194.062 154.577 194.624 152.865C194.122 152.835 193.62 152.835 193.126 152.842H193.026C187.596 152.997 182.409 155.39 180.635 158.69C179.682 160.48 179.65 162.44 179.231 164.32" stroke="#CCDDE2" stroke-width="4.65" stroke-miterlimit="10"/>
<path d="M179.218 164.445C179.218 164.405 179.234 164.368 179.242 164.32" stroke="#CCDDE2" stroke-width="4.65" stroke-miterlimit="10"/>
<path d="M179.239 164.309C179.239 164.354 179.223 164.394 179.215 164.432C179.025 165.336 178.671 166.205 178.168 166.999" stroke="#CCDDE2" stroke-width="4.65" stroke-miterlimit="10"/>
<path d="M179.218 164.445C179.218 164.405 179.234 164.368 179.242 164.32" stroke="#CCDDE2" stroke-width="4.65" stroke-miterlimit="10"/>
<path d="M174.28 170.401V170.438" stroke="#CCDDE2" stroke-width="4.65" stroke-miterlimit="10"/>
<path d="M191.017 155.705C189 157.705 187.237 160.23 185.682 163.025" stroke="#CCDDE2" stroke-width="4.65" stroke-miterlimit="10"/>
<path d="M174.307 170.447C174.307 170.397 174.298 170.348 174.282 170.3C174.299 170.392 174.307 170.447 174.307 170.447Z" stroke="#CCDDE2" stroke-width="4.65" stroke-miterlimit="10"/>
<path d="M155.993 149.378C161.393 155.861 164.978 166.878 167.295 176.936" stroke="#CCDDE2" stroke-width="4.65" stroke-miterlimit="10"/>
<path d="M175.06 160.307C173.98 163.36 173.939 166.443 174.066 168.395C174.099 169.026 174.171 169.654 174.282 170.277" stroke="#CCDDE2" stroke-width="4.65" stroke-miterlimit="10"/>
<path d="M232.492 88.3447C235.929 100.265 239.474 113.107 239.182 125.36C238.872 138.272 231.771 149.11 219.048 154.61C210.767 158.187 201.866 158.845 193.477 160.727C191.83 161.1 190.207 161.51 188.617 162.005C187.628 162.307 186.659 162.64 185.69 163.02C183.003 164.032 180.473 165.37 178.168 167" stroke="#CCDDE2" stroke-width="4.65" stroke-miterlimit="10"/>
<path d="M95.1129 20.4999C95.1129 20.4999 79.0857 17.1124 65.745 21.2874C64.0832 21.7944 62.4729 22.4369 60.9336 23.2074C53.3736 26.995 47.6685 34.1125 48.087 47.04C48.3111 53.79 47.8845 60.4475 46.4481 66.9075C45.9783 69.004 45.3978 71.079 44.7066 73.1325C43.0135 78.153 40.5697 82.9292 37.4463 87.3225C27.4995 101.287 29.0061 115.802 40.0383 129.262C40.6161 129.967 41.2101 130.665 41.8203 131.347" stroke="#CCDDE2" stroke-width="4.65" stroke-miterlimit="10"/>
<path d="M211.893 14.3154H113.246C101.869 14.3154 92.6451 22.8556 92.6451 33.3905V119.476C92.6451 130.01 101.869 138.551 113.246 138.551H211.893C223.271 138.551 232.494 130.01 232.494 119.476V33.3905C232.494 22.8556 223.271 14.3154 211.893 14.3154Z" fill="#3FBDF1"/>
<path d="M210.524 12.5H112.574C100.44 12.5 90.6039 21.6076 90.6039 32.8425V118.208C90.6039 129.442 100.44 138.55 112.574 138.55H210.524C222.658 138.55 232.494 129.442 232.494 118.208V32.8425C232.494 21.6076 222.658 12.5 210.524 12.5Z" stroke="black" stroke-width="4.65" stroke-miterlimit="10"/>
<path d="M209.142 16.7578H115.997C104.62 16.7578 95.3964 25.298 95.3964 35.8328V117.03C95.3964 127.565 104.62 136.105 115.997 136.105H209.142C220.52 136.105 229.743 127.565 229.743 117.03V35.8328C229.743 25.298 220.52 16.7578 209.142 16.7578Z" fill="#3FBDF1"/>
<path d="M213.87 23.0225H185.738C181.915 23.0225 178.813 26.1125 178.813 29.915V90.205C178.813 94.015 181.915 97.1125 185.738 97.1125H213.87C217.701 97.1125 220.814 94.015 220.814 90.205V29.915C220.814 26.1125 217.701 23.0225 213.87 23.0225ZM218.822 90.4675C218.817 91.7348 218.27 92.949 217.302 93.845C216.334 94.741 215.023 95.246 213.654 95.25H185.973C184.603 95.246 183.289 94.7405 182.319 93.8438C181.349 92.947 180.801 91.7318 180.795 90.4625V29.6675C180.801 28.3983 181.349 27.1828 182.319 26.286C183.289 25.3893 184.603 24.8839 185.973 24.88H213.654C215.023 24.8839 216.336 25.3898 217.304 26.2868C218.272 27.1838 218.818 28.3993 218.822 29.6675V90.4675Z" fill="#D7E8F0"/>
<path d="M213.5 104.188H185.369C181.548 104.188 178.443 107.278 178.443 111.08V120.25C178.443 124.062 181.548 127.16 185.369 127.16H213.5C217.331 127.16 220.444 124.062 220.444 120.25V111.08C220.444 107.278 217.331 104.188 213.5 104.188ZM218.452 120.515C218.448 121.783 217.902 122.998 216.934 123.895C215.966 124.792 214.653 125.297 213.284 125.3H185.603C184.233 125.297 182.919 124.792 181.949 123.896C180.979 122.999 180.431 121.784 180.425 120.515V110.832C180.431 109.563 180.979 108.348 181.949 107.451C182.919 106.554 184.233 106.049 185.603 106.045H213.284C214.654 106.049 215.966 106.555 216.934 107.452C217.902 108.349 218.448 109.564 218.452 110.832V120.515Z" fill="#D7E8F0"/>
<path d="M150.458 110.853L109.234 110.293C108.79 110.286 108.368 110.117 108.059 109.822C107.75 109.527 107.58 109.131 107.587 108.72C107.586 108.578 107.608 108.437 107.652 108.3C107.758 107.977 107.975 107.695 108.269 107.496C108.564 107.296 108.92 107.191 109.285 107.195L150.509 107.75C150.2 108.194 150.028 108.706 150.009 109.233C149.987 109.802 150.143 110.364 150.458 110.853Z" fill="#3FBDF1"/>
<path d="M160.453 109.852C160.348 110.175 160.134 110.458 159.842 110.658C159.551 110.859 159.197 110.968 158.833 110.967L155.863 110.927C156.182 110.467 156.355 109.933 156.364 109.385C156.373 108.838 156.217 108.3 155.914 107.83L158.884 107.87C159.327 107.878 159.748 108.048 160.057 108.343C160.365 108.637 160.536 109.032 160.531 109.442C160.526 109.582 160.5 109.72 160.453 109.852Z" fill="#D7E8F0"/>
<path d="M160.356 116C160.251 116.322 160.037 116.604 159.745 116.803C159.453 117.003 159.099 117.11 158.736 117.107L117.763 116.552C118.146 116.13 118.391 115.615 118.471 115.069C118.551 114.522 118.462 113.966 118.214 113.465L158.774 114C159.217 114.008 159.638 114.177 159.947 114.472C160.255 114.766 160.426 115.162 160.421 115.572C160.422 115.717 160.4 115.861 160.356 116Z" fill="#D7E8F0"/>
<path d="M112.833 116.483L109.139 116.433C108.697 116.427 108.275 116.259 107.966 115.965C107.657 115.672 107.485 115.277 107.49 114.868C107.492 114.723 107.514 114.579 107.557 114.44C107.661 114.118 107.875 113.837 108.168 113.638C108.46 113.44 108.815 113.335 109.177 113.34L112.469 113.388C112.276 113.757 112.167 114.16 112.15 114.57C112.123 115.263 112.365 115.942 112.833 116.483Z" fill="#3FBDF1"/>
<path d="M147.542 123.17L109.291 122.655C108.848 122.646 108.427 122.476 108.119 122.182C107.811 121.887 107.64 121.492 107.644 121.082C107.645 120.943 107.668 120.805 107.714 120.672C107.817 120.35 108.032 120.067 108.323 119.866C108.616 119.665 108.97 119.557 109.334 119.558L147.528 120.077C147.216 120.542 147.051 121.077 147.051 121.624C147.051 122.17 147.216 122.706 147.528 123.17H147.542Z" fill="#3FBDF1"/>
<path d="M160.515 122.217C160.411 122.539 160.197 122.821 159.905 123.021C159.612 123.22 159.258 123.326 158.895 123.322L152.885 123.25L147.542 123.182C147.23 122.718 147.064 122.183 147.064 121.636C147.064 121.089 147.23 120.554 147.542 120.09L152.985 120.165L158.925 120.245C159.367 120.251 159.788 120.42 160.097 120.713C160.405 121.006 160.576 121.4 160.572 121.81C160.574 121.947 160.555 122.085 160.515 122.217Z" fill="#D7E8F0"/>
<path d="M155.847 110.928C155.431 111.528 154.795 111.969 154.056 112.168C153.316 112.367 152.523 112.311 151.825 112.01C151.127 111.709 150.57 111.184 150.259 110.531C149.947 109.879 149.902 109.144 150.131 108.463C150.361 107.782 150.849 107.202 151.506 106.829C152.163 106.457 152.943 106.317 153.703 106.437C154.462 106.557 155.148 106.928 155.635 107.481C156.121 108.035 156.373 108.732 156.346 109.445C156.327 109.972 156.154 110.484 155.847 110.928Z" fill="white"/>
<g opacity="0.72">
<path opacity="0.72" d="M154.651 109.127C154.579 109.479 154.4 109.805 154.135 110.065C154.006 110.197 153.865 110.319 153.714 110.43C153.63 110.485 153.195 110.807 153.112 110.767C152.539 110.5 151.818 109.827 151.729 109.17C151.714 109.067 151.714 108.963 151.729 108.86C151.761 108.683 151.86 108.522 152.009 108.407C152.157 108.292 152.345 108.23 152.539 108.232C152.666 108.237 152.79 108.269 152.901 108.325C153.013 108.382 153.108 108.463 153.179 108.56C153.26 108.469 153.362 108.397 153.478 108.348C153.593 108.299 153.719 108.275 153.846 108.277C153.96 108.281 154.073 108.306 154.176 108.352C154.279 108.397 154.372 108.461 154.447 108.541C154.522 108.621 154.579 108.714 154.614 108.815C154.65 108.916 154.662 109.022 154.651 109.127Z" fill="#3FBDF1"/>
</g>
<path d="M117.758 116.553C117.455 116.888 117.076 117.157 116.647 117.34C116.217 117.522 115.75 117.613 115.277 117.606C114.805 117.6 114.341 117.495 113.918 117.301C113.495 117.106 113.124 116.827 112.833 116.483C112.367 115.941 112.126 115.262 112.155 114.57C112.173 114.16 112.281 113.758 112.474 113.388C112.745 112.878 113.17 112.451 113.697 112.16C114.224 111.868 114.831 111.724 115.444 111.745C116.035 111.763 116.608 111.934 117.099 112.239C117.589 112.545 117.977 112.972 118.217 113.473C118.464 113.974 118.554 114.53 118.474 115.077C118.394 115.623 118.149 116.138 117.766 116.56L117.758 116.553Z" fill="white"/>
<g opacity="0.72">
<path opacity="0.72" d="M116.799 114.46C116.726 114.811 116.546 115.136 116.281 115.395C116.154 115.53 116.013 115.652 115.86 115.76C115.779 115.815 115.341 116.14 115.26 116.098C114.688 115.833 113.967 115.16 113.875 114.5C113.86 114.397 113.86 114.293 113.875 114.19C113.903 114.044 113.977 113.908 114.088 113.801C114.199 113.694 114.343 113.62 114.499 113.588C114.656 113.556 114.82 113.568 114.969 113.622C115.119 113.676 115.247 113.771 115.339 113.893C115.446 113.755 115.6 113.655 115.777 113.609C115.953 113.563 116.141 113.574 116.31 113.64C116.479 113.706 116.619 113.823 116.707 113.972C116.795 114.121 116.826 114.293 116.794 114.46H116.799Z" fill="#3FBDF1"/>
</g>
<path d="M152.885 123.25C152.504 123.783 151.945 124.186 151.294 124.399C150.642 124.612 149.934 124.622 149.276 124.429C148.618 124.235 148.046 123.848 147.647 123.326C147.247 122.804 147.043 122.176 147.064 121.537C147.084 121.025 147.246 120.526 147.536 120.09C147.758 119.761 148.049 119.476 148.39 119.251C148.732 119.027 149.119 118.868 149.527 118.782C149.936 118.697 150.359 118.687 150.772 118.754C151.185 118.821 151.579 118.963 151.932 119.171C152.285 119.38 152.591 119.651 152.83 119.97C153.069 120.288 153.238 120.647 153.327 121.027C153.415 121.406 153.422 121.798 153.346 122.179C153.27 122.561 153.113 122.925 152.885 123.25Z" fill="white"/>
<g opacity="0.72">
<path opacity="0.72" d="M151.71 121.415C151.638 121.767 151.458 122.092 151.192 122.352C151.065 122.487 150.924 122.609 150.771 122.717C150.69 122.772 150.252 123.095 150.171 123.055C149.599 122.787 148.878 122.117 148.786 121.457C148.771 121.354 148.771 121.25 148.786 121.147C148.814 121.001 148.888 120.865 148.999 120.758C149.11 120.651 149.254 120.577 149.41 120.545C149.567 120.513 149.731 120.525 149.88 120.579C150.03 120.633 150.158 120.728 150.25 120.85C150.357 120.712 150.511 120.613 150.687 120.567C150.863 120.521 151.051 120.532 151.22 120.597C151.388 120.663 151.528 120.779 151.616 120.928C151.704 121.076 151.736 121.248 151.705 121.415H151.71Z" fill="#3FBDF1"/>
</g>
<path d="M107.271 30.3398L107.341 39.3873C107.359 40.9653 108.035 42.476 109.229 43.603C110.422 44.73 112.039 45.3865 113.743 45.4348L123.414 45.5898C124.246 45.6015 125.072 45.4585 125.843 45.1693C126.614 44.8798 127.314 44.45 127.902 43.9053C128.49 43.3608 128.954 42.7123 129.266 41.9983C129.578 41.2845 129.732 40.5198 129.719 39.7498L129.646 30.7023C129.629 29.1243 128.954 27.6138 127.761 26.4868C126.568 25.36 124.95 24.7043 123.247 24.6572L113.576 24.4997C112.744 24.4879 111.918 24.6309 111.147 24.9202C110.376 25.2095 109.676 25.6393 109.088 26.184C108.5 26.7288 108.036 27.3773 107.724 28.091C107.412 28.805 107.258 29.5698 107.271 30.3398Z" fill="white"/>
<path d="M108.759 32.6103L108.81 39.1603C108.826 40.5305 109.413 41.842 110.45 42.8203C111.486 43.7988 112.89 44.3685 114.369 44.4103L122.769 44.5453C123.491 44.5555 124.209 44.4313 124.878 44.18C125.548 43.929 126.156 43.556 126.667 43.0833C127.178 42.6105 127.582 42.0475 127.853 41.4278C128.125 40.808 128.26 40.1443 128.25 39.4753V39.0328C127.07 36.7978 124.772 33.4528 122.31 35.4528C118.776 38.3278 117.158 36.1403 115.098 33.3178C113.378 30.9553 110.762 29.2303 108.759 32.6103Z" fill="#3FBDF1"/>
<path d="M124.562 31.7055C125.629 31.0493 125.904 29.6948 125.176 28.6805C124.448 27.6663 122.993 27.376 121.926 28.0323C120.859 28.6888 120.584 30.043 121.312 31.0573C122.04 32.0715 123.495 32.3618 124.562 31.7055Z" fill="#3FBDF1"/>
<path d="M163.453 34.0003C161.941 33.9998 160.466 34.4325 159.231 35.2392C157.996 36.0457 157.061 37.1867 156.554 38.5052C156.047 39.8237 155.994 41.2552 156.401 42.603C156.808 43.9507 157.655 45.149 158.828 46.0327L139.658 82.2103C139.54 82.193 139.42 82.1823 139.301 82.1777C138.995 82.1815 138.692 82.2252 138.399 82.3077L125.928 67.9603C126.485 67.2488 126.8 66.3997 126.834 65.5217C126.867 64.6435 126.618 63.776 126.116 63.03C125.615 62.2837 124.886 61.6927 124.02 61.3322C123.155 60.9715 122.193 60.858 121.258 61.0055C120.322 61.1532 119.456 61.5555 118.768 62.1612C118.08 62.767 117.603 63.5485 117.398 64.4062C117.192 65.264 117.267 66.1592 117.613 66.9772C117.959 67.7955 118.56 68.4998 119.34 69.0003L110.6 92.0303C109.838 92.0725 109.115 92.3577 108.555 92.8372C107.994 93.317 107.63 93.9618 107.525 94.6618C107.419 95.3618 107.578 96.0742 107.976 96.6777C108.373 97.2812 108.984 97.7388 109.704 97.9725C110.425 98.2063 111.21 98.202 111.928 97.9603C112.645 97.7185 113.25 97.2542 113.64 96.6465C114.029 96.0385 114.18 95.3245 114.065 94.6257C113.95 93.9267 113.578 93.2863 113.011 92.8128L121.751 69.7803C121.859 69.7803 121.964 69.7952 122.072 69.7952C122.722 69.7952 123.365 69.6727 123.962 69.4352L136.431 83.7777C136.168 84.219 136.029 84.714 136.026 85.2178C136.013 85.6263 136.089 86.0327 136.249 86.4135C136.409 86.7942 136.65 87.1413 136.958 87.4342C137.265 87.7272 137.633 87.96 138.04 88.1192C138.446 88.2782 138.883 88.3603 139.324 88.3603C139.765 88.3603 140.202 88.2782 140.608 88.1192C141.015 87.96 141.383 87.7272 141.69 87.4342C141.998 87.1413 142.239 86.7942 142.399 86.4135C142.559 86.0327 142.635 85.6263 142.622 85.2178C142.62 84.5385 142.371 83.8797 141.915 83.3477L161.085 47.1702C162.092 47.4987 163.165 47.619 164.229 47.5227C165.292 47.4265 166.319 47.1158 167.239 46.6128C168.159 46.1095 168.948 45.426 169.553 44.6102C170.157 43.7945 170.561 42.8662 170.736 41.8905C170.912 40.9147 170.854 39.9152 170.568 38.9622C170.282 38.0092 169.774 37.1257 169.08 36.374C168.386 35.622 167.522 35.02 166.55 34.6097C165.578 34.1997 164.521 33.9918 163.453 34.0003Z" fill="#D7E8F0"/>
<path d="M186.619 47.037H212.269" stroke="white" stroke-width="4.65" stroke-miterlimit="10"/>
<path d="M186.619 50.705H212.269" stroke="white" stroke-width="4.65" stroke-miterlimit="10"/>
<path d="M186.619 54.37H212.269" stroke="white" stroke-width="4.65" stroke-miterlimit="10"/>
<path d="M186.619 58.0353H212.269" stroke="white" stroke-width="4.65" stroke-miterlimit="10"/>
<path d="M186.619 61.7023H212.269" stroke="white" stroke-width="4.65" stroke-miterlimit="10"/>
<path d="M186.619 83.1123H212.269" stroke="white" stroke-width="4.65" stroke-miterlimit="10"/>
<path d="M186.619 86.3478H212.269" stroke="white" stroke-width="4.65" stroke-miterlimit="10"/>
<path d="M206.879 111.12C207.137 111.318 207.344 111.567 207.484 111.848C207.624 112.13 207.694 112.437 207.689 112.747L207.63 120.08C207.628 120.356 207.567 120.63 207.45 120.885C207.334 121.14 207.164 121.371 206.951 121.565C206.737 121.759 206.485 121.912 206.208 122.015C205.93 122.118 205.634 122.17 205.335 122.167L193.455 122.072C192.853 122.067 192.277 121.84 191.855 121.442C191.432 121.044 191.198 120.508 191.203 119.95L191.273 112.612C191.296 112.059 191.546 111.536 191.972 111.148C192.398 110.76 192.968 110.538 193.566 110.527L205.446 110.622C205.972 110.626 206.48 110.803 206.879 111.12Z" fill="white"/>
<path d="M205.2 112.461L199.66 116.868C199.589 116.924 199.499 116.954 199.406 116.954C199.313 116.954 199.223 116.924 199.152 116.868L193.512 112.368C193.449 112.319 193.405 112.254 193.385 112.181C193.365 112.108 193.371 112.031 193.4 111.961C193.43 111.891 193.483 111.831 193.551 111.79C193.62 111.749 193.7 111.729 193.782 111.733L204.962 111.826C205.041 111.828 205.117 111.852 205.18 111.896C205.243 111.939 205.291 111.999 205.317 112.067C205.343 112.136 205.345 112.211 205.324 112.281C205.303 112.351 205.26 112.414 205.2 112.461Z" fill="#3FBDF1"/>
<path d="M199.816 67.5947C198.633 67.5937 197.475 67.9177 196.491 68.526C195.506 69.134 194.738 69.999 194.284 71.0112C193.831 72.0235 193.712 73.1375 193.942 74.2125C194.172 75.2875 194.742 76.275 195.578 77.0502C196.415 77.8255 197.481 78.3537 198.641 78.568C199.802 78.782 201.006 78.6727 202.099 78.2535C203.193 77.8342 204.128 77.1242 204.785 76.213C205.443 75.302 205.794 74.2307 205.794 73.1347C205.794 72.4075 205.64 71.6875 205.34 71.0155C205.04 70.3435 204.599 69.7327 204.044 69.2185C203.489 68.704 202.83 68.2957 202.105 68.0172C201.379 67.7385 200.602 67.595 199.816 67.5947ZM199.816 77.3447C199.584 77.3447 199.362 77.2595 199.198 77.1075C199.033 76.9555 198.941 76.7495 198.941 76.5347C198.941 76.32 199.033 76.1137 199.198 75.962C199.362 75.81 199.584 75.7247 199.816 75.7247C200.048 75.7247 200.271 75.81 200.435 75.962C200.599 76.1137 200.691 76.32 200.691 76.5347C200.691 76.7495 200.599 76.9555 200.435 77.1075C200.271 77.2595 200.048 77.3447 199.816 77.3447ZM200.915 71.1147C200.732 72.3172 200.575 73.5797 200.189 74.7447C200.153 74.808 200.099 74.8612 200.033 74.8982C199.967 74.9352 199.891 74.9547 199.814 74.9547C199.736 74.9547 199.66 74.9352 199.594 74.8982C199.528 74.8612 199.474 74.808 199.438 74.7447C199.164 73.8672 198.955 72.9735 198.812 72.0697C198.69 71.4147 198.272 70.3472 198.674 69.7122C199.022 69.1397 200.008 69.0722 200.564 69.3697C201.274 69.7222 200.999 70.4997 200.915 71.1047V71.1147Z" fill="white"/>
<path d="M163.558 45.8825C166.525 45.8825 168.931 43.6552 168.931 40.9075C168.931 38.16 166.525 35.9325 163.558 35.9325C160.591 35.9325 158.185 38.16 158.185 40.9075C158.185 43.6552 160.591 45.8825 163.558 45.8825Z" fill="white"/>
<path d="M199.773 33.7801C200.765 33.7801 201.569 33.0358 201.569 32.1176C201.569 31.1996 200.765 30.4551 199.773 30.4551C198.781 30.4551 197.978 31.1996 197.978 32.1176C197.978 33.0358 198.781 33.7801 199.773 33.7801Z" fill="white"/>
<path d="M194.759 39.6348C194.759 38.4036 195.288 37.2226 196.228 36.3521C197.168 35.4813 198.443 34.9923 199.773 34.9923C201.103 34.9923 202.378 35.4813 203.318 36.3521C204.259 37.2226 204.787 38.4036 204.787 39.6348H194.759Z" fill="white"/>
<path d="M165.24 198.547C165.239 198.925 165.113 199.293 164.88 199.603C164.648 199.913 164.318 200.15 163.936 200.282L145.13 206.782C145.13 206.782 144.234 205.242 142.671 202.67L131.93 186.032C129.028 199.857 125.79 213.7 123.784 222.327L121.851 230.917L129.6 233.277C130.066 233.381 130.48 233.627 130.777 233.975C131.075 234.323 131.237 234.754 131.239 235.197C131.238 235.498 131.164 235.795 131.021 236.066C130.878 236.336 130.671 236.573 130.414 236.758C130.158 236.943 129.86 237.072 129.542 237.135C129.224 237.197 128.895 237.192 128.579 237.12L110.619 232.905V228.84L110.192 228.762L110.562 181.345L93.0123 177.502C90.8118 178.137 88.4871 178.72 86.1111 179.192C86.0855 179.196 86.0603 179.201 86.0355 179.207C80.2686 180.607 74.2449 180.848 68.3694 179.912C68.3181 179.912 68.2587 179.89 68.2101 179.88C67.7835 179.805 67.3569 179.717 66.9384 179.63C66.8115 179.607 66.6873 179.585 66.5604 179.552C66.1932 179.475 65.826 179.375 65.4588 179.282C65.2563 179.227 65.0565 179.182 64.8648 179.127C64.6731 179.072 64.53 179.027 64.3626 178.972C61.2004 178.053 58.2798 176.533 55.7874 174.51C53.8763 173.024 52.2561 171.245 50.9976 169.25C50.4576 168.46 49.9527 167.63 49.4829 166.777C46.6317 161.565 46.0377 159.792 46.8666 159.745C45.0411 159.149 43.2729 158.414 41.58 157.545C41.58 157.545 37.8486 137.382 45.9864 117.09C45.8306 115.835 45.8587 114.566 46.0701 113.317C47.7846 101.932 57.2211 90.23 68.4801 85.49C74.5119 82.95 84.348 79.0525 81.1701 71.2925C80.1657 68.8375 78.7401 66.7225 78.4701 64.175C78.4458 63.925 78.4134 63.7025 78.3945 63.455C77.9436 57.455 81.7155 51.7575 87.8229 49.705C89.8212 49.0082 91.9571 48.7147 94.088 48.8442C96.2188 48.9735 98.2951 49.5227 100.178 50.455C100.829 50.7727 101.412 51.1962 101.901 51.705C103.758 51.75 106.091 52.0525 107.187 52.525C109.045 53.33 110.533 54.74 111.645 56.3275C113.697 59.2865 114.521 62.834 113.964 66.3125C113.645 68.2375 112.904 70.0817 111.788 71.7325C111.238 72.5595 110.599 73.3335 109.882 74.0425C109.253 74.6525 108.359 75.5425 107.498 75.87C107.508 75.877 107.519 75.881 107.532 75.881C107.544 75.881 107.556 75.877 107.565 75.87L107.314 79.5875C112.471 78.5 126.249 74.02 136.35 55.5225C137.079 54.09 137.83 52.665 138.618 51.255C140.951 47.0575 143.451 42.8825 146.764 39.2725C147.574 38.3975 148.773 37.6075 150.061 37.9875C151.189 38.32 151.951 39.4875 151.165 40.4675L145.743 47.3275L147.474 47.12C147.663 47.1622 147.839 47.242 147.991 47.3537C148.143 47.4657 148.267 47.6067 148.353 47.7675C148.44 47.9282 148.488 48.1045 148.494 48.284C148.5 48.4637 148.463 48.6422 148.387 48.8075L147.29 51.2175L147.809 50.6525C148.165 50.2625 148.671 50.0152 149.22 49.9625C149.769 49.9097 150.318 50.0555 150.754 50.3692C151.189 50.6832 151.477 51.1407 151.557 51.6465C151.636 52.152 151.502 52.6665 151.181 53.0825L148.325 56.5C147.942 56.9512 147.456 57.3185 146.902 57.575L141.248 60.1C142.92 62.0032 144.475 63.9922 145.905 66.0575C142.801 71.567 139.162 76.8035 135.032 81.7025C128.072 90.005 118.049 99.285 105.813 103.165C105.543 110.027 104.234 116.827 102.2 123.48C108.548 123.48 114.604 123.48 120.728 123.48L125.345 111.815C125.557 111.277 125.943 110.812 126.45 110.484C126.957 110.155 127.561 109.979 128.18 109.98H146.634C146.955 109.981 147.273 110.039 147.571 110.15C148.023 110.323 148.41 110.616 148.683 110.992C148.955 111.369 149.101 111.812 149.102 112.265C149.099 112.543 149.042 112.818 148.935 113.077L147.712 116.022H147.671H142.468L140.351 121.637L140.954 120.22H143.556C143.964 120.22 144.365 120.313 144.725 120.491C145.084 120.669 145.39 120.927 145.616 121.241C145.842 121.556 145.98 121.917 146.019 122.292C146.058 122.668 145.995 123.047 145.838 123.395L143.621 128.305C142.953 129.783 141.893 131.082 140.54 132.081C139.186 133.081 137.583 133.748 135.878 134.022L135.643 134.06L135.208 135.25L135.432 134.84C135.359 135.002 135.275 135.18 135.2 135.375H141.037C141.037 135.375 139.741 138.875 137.357 139.085C137.164 139.099 136.971 139.093 136.779 139.067H124.683C125.361 139.765 126.122 140.61 126.935 141.602C130.445 141.555 135.551 141.902 136.814 144.172C137.032 144.398 137.23 144.639 137.408 144.892C137.892 145.642 138.051 147.392 137.935 149.92C137.969 152.526 137.733 155.13 137.23 157.695C137.842 158.758 138.431 159.827 138.996 160.902C140.225 163.029 141.334 165.214 142.317 167.447C142.351 167.507 142.379 167.568 142.401 167.632C145.348 173.891 147.934 180.29 150.147 186.802L150.271 187.205C151.945 191.775 153.309 195.927 153.827 198.455L162.602 196.79C162.903 196.697 163.223 196.672 163.537 196.717C163.851 196.761 164.148 196.874 164.406 197.045C164.663 197.217 164.873 197.442 165.018 197.703C165.163 197.964 165.239 198.254 165.24 198.547Z" fill="white"/>
<path d="M134.96 135.675H140.797C140.557 136.285 140.253 136.871 139.887 137.425C139.166 138.47 138.054 139.562 136.582 139.377H118.873C118.184 139.382 117.514 139.174 116.967 138.787C116.845 138.268 116.88 137.727 117.067 137.225C124.219 136.21 131.547 135.117 134.825 134.49L135.443 134.39L134.96 135.675Z" fill="#3FBDF1"/>
<path d="M148.862 112.595C148.859 112.873 148.802 113.148 148.694 113.407L147.474 116.35H142.268L140.13 122L139.352 123.805H122.386L126.317 113.89C126.53 113.352 126.917 112.887 127.424 112.559C127.932 112.231 128.536 112.055 129.155 112.055H147.606C147.928 112.055 148.246 112.113 148.543 112.225C148.647 112.264 148.748 112.308 148.846 112.357C148.854 112.432 148.862 112.517 148.862 112.595Z" fill="#3FBDF1"/>
<path d="M148.865 112.592C148.861 112.87 148.804 113.145 148.697 113.405L147.474 116.347H142.271L144.08 111.802C144.28 111.298 144.665 110.876 145.168 110.608C145.671 110.341 146.259 110.246 146.83 110.34C147.401 110.435 147.918 110.712 148.289 111.124C148.661 111.535 148.865 112.055 148.865 112.592Z" fill="#3FBDF1"/>
<path d="M140.794 135.675C140.794 135.675 139.12 140.23 136.08 139.25C134.19 138.648 134.474 136.905 134.968 135.665L140.794 135.675Z" fill="#3FBDF1"/>
<path d="M136.517 116.348H128.031" stroke="white" stroke-width="4.65" stroke-linecap="round" stroke-linejoin="round"/>
<path d="M135.473 119.307H126.986" stroke="white" stroke-width="4.65" stroke-linecap="round" stroke-linejoin="round"/>
<path d="M142.12 167.75C140.65 164.46 138.936 161.268 136.99 158.197C137.778 154.33 138.316 147.555 136.607 144.48C135.343 142.207 130.243 141.862 126.722 141.91C124.003 138.582 121.805 136.867 121.805 136.867C121.805 136.867 105.438 139.322 101.701 139.342C97.9641 139.362 97.9668 141.28 97.9668 141.28C97.9668 141.28 95.364 148.552 92.421 152.165C89.478 155.777 81.5616 160.165 70.1541 161.855C58.7466 163.545 49.7745 161.462 47.7171 160.402C45.6597 159.342 45.5922 160.365 49.275 167.082C52.9578 173.8 58.6278 178.63 68.1507 180.222C74.0243 181.159 80.0466 180.918 85.8114 179.517C85.8114 179.517 100.88 176 105.3 173.317C109.72 170.635 110.411 174.282 110.411 174.282L109.979 229.077L121.643 231.232L131.72 186.35L142.466 203L153.63 198.75C152.315 192.357 145.562 175.5 142.12 167.75Z" fill="#2E2E2E"/>
<path d="M111.637 94.4827C111.398 96.0047 110.699 97.433 109.62 98.6027C108.791 99.583 107.737 100.38 106.534 100.935C106.251 101.061 105.958 101.165 105.656 101.245C105.656 100.378 105.64 99.4952 105.589 98.6352C105.397 95.4127 104.695 92.0577 102.479 89.5802C101.412 88.3965 100.066 87.4557 98.5446 86.8302C98.5878 86.2352 98.6391 85.6452 98.6796 85.0502C98.7957 84.0327 98.7903 83.0065 98.6634 81.9902C98.5203 81.3735 98.439 80.7457 98.4204 80.1152C98.4447 79.5277 98.3529 77.2727 98.8551 76.7852C99.6929 77.1085 100.591 77.2785 101.498 77.2852C103.532 77.2702 105.146 76.1152 106.234 74.6377C106.634 74.5167 107.05 74.446 107.471 74.4277C108.702 74.5977 105.027 77.6652 106.226 77.3177C105.446 77.5402 104.876 78.6252 104.509 79.2452C103.969 80.2052 103.656 81.3352 104.185 82.3502C104.703 83.3202 105.789 84.1552 106.558 84.9527C107.596 85.9612 108.566 87.0275 109.463 88.1452C110.884 89.9752 111.92 92.2227 111.637 94.4827Z" fill="#3FBDF1"/>
<path d="M92.9502 85.5548C94.8837 85.6661 96.7799 86.0961 98.55 86.8248C100.07 87.4508 101.415 88.3918 102.481 89.5748C104.698 92.0548 105.4 95.4073 105.592 98.6298C105.643 99.4973 105.667 100.38 105.659 101.24C105.619 108.87 104.247 116.42 101.995 123.802C108.988 123.802 115.622 123.802 122.38 123.802H139.352L140.13 122L140.751 120.55H143.37C143.778 120.55 144.179 120.643 144.539 120.821C144.899 121 145.205 121.258 145.431 121.572C145.657 121.886 145.796 122.248 145.835 122.624C145.874 123 145.812 123.379 145.654 123.727L143.438 128.637C142.768 130.115 141.707 131.413 140.353 132.412C139 133.41 137.397 134.078 135.691 134.352L135.456 134.392L134.838 134.492C131.56 135.12 124.232 136.212 117.08 137.227C110.538 138.165 104.139 139.032 101.112 139.435C99.9648 139.59 98.793 139.705 97.6023 139.775C90.5364 140.177 83.241 138.722 81.351 131.275C80.1198 126.505 80.3898 121.362 80.4465 116.397" stroke="black" stroke-width="4.65" stroke-miterlimit="10"/>
<path d="M126.779 142.125C131.352 141.93 135.451 142.557 137.209 145.207C138.094 146.547 137.878 151.272 136.966 157.862" stroke="black" stroke-width="4.65" stroke-miterlimit="10"/>
<path d="M50.1552 168.483C50.1652 168.494 50.1733 168.507 50.1795 168.52C52.137 172.215 55.5795 175.405 59.9832 177.638C75.5001 185.498 98.8389 176.288 107.233 172.455C107.568 172.302 107.94 172.231 108.313 172.249C108.686 172.266 109.047 172.371 109.364 172.554C109.681 172.737 109.942 172.992 110.123 173.294C110.304 173.597 110.398 173.937 110.398 174.283V233.225L128.355 237.438C128.633 237.504 128.923 237.517 129.207 237.477C129.49 237.437 129.763 237.344 130.006 237.203C130.25 237.063 130.461 236.879 130.626 236.661C130.791 236.444 130.907 236.198 130.966 235.938C131.084 235.432 130.984 234.904 130.687 234.467C130.39 234.029 129.919 233.717 129.376 233.598L121.63 231.235C121.989 228.905 127.243 207.598 131.709 186.353" stroke="black" stroke-width="4.65" stroke-miterlimit="10"/>
<path d="M121.46 136.59C126.05 140.19 129.346 145.725 132.432 150.427C139.952 161.885 145.576 174.355 149.945 187.115C151.265 190.97 152.48 194.865 153.627 198.76L162.397 197.092C162.895 196.942 163.436 196.979 163.905 197.194C164.374 197.409 164.733 197.785 164.907 198.242C165.08 198.7 165.053 199.202 164.832 199.641C164.61 200.08 164.212 200.421 163.723 200.592L144.917 207.092C144.917 207.092 139.415 197.575 131.725 186.342C120.455 169.862 99.63 144.462 94.1328 149.88" stroke="black" stroke-width="4.65" stroke-miterlimit="10"/>
<path d="M105.054 80.1947C105.054 80.1947 123.495 79.0122 136.137 55.8397C136.137 55.8397 140.133 58.3922 145.703 66.3772C145.703 66.3772 130.075 95.7447 105.592 103.495" stroke="black" stroke-width="4.65" stroke-miterlimit="10"/>
<path d="M103.386 53.0995L104.466 54.6195L105.116 55.5445C105.777 56.9685 106.357 58.423 106.855 59.902L106.888 60.007L108.124 64.382C108.126 64.387 108.126 64.3922 108.124 64.397C108.54 65.0305 109.113 65.5627 109.796 65.9495C109.957 66.0302 110.107 66.1285 110.244 66.242C110.986 66.932 109.029 67.132 108.624 67.3595C108.445 67.4732 108.298 67.625 108.197 67.802C108.095 67.9792 108.04 68.1765 108.038 68.377C105.713 77.3345 107.209 74.982 106.21 76.9745C107.077 76.2945 109.231 74.132 109.231 74.132C109.501 73.9695 109.755 73.482 109.931 73.2395C110.488 72.4475 110.968 71.6107 111.364 70.7395C112.596 68.1372 112.881 65.2347 112.174 62.4695C111.059 58.172 108.459 53.872 103.386 53.0995Z" fill="#3FBDF1"/>
<path d="M103.164 55.8025C102.967 56.732 102.49 57.5915 101.79 58.2825C101.029 59.0522 100.144 59.7077 99.1656 60.225C97.3242 61.24 95.2749 62.0075 93.7278 63.3775C92.1788 64.7567 91.2516 66.628 91.1331 68.615C91.0251 70.65 91.8108 72.7575 92.2887 74.6625C93.8034 80.82 93.3174 86.7375 92.4804 92.935C91.6866 98.7825 89.9964 104.505 86.7186 109.595C82.8522 115.595 76.5045 120.397 69.3603 122.862C63.4203 124.915 51.8778 126.735 47.5119 121.025C46.7586 119.222 46.7505 117.16 47.0421 115.217C48.7566 103.822 58.1931 92.1275 69.4521 87.3875C75.4839 84.8475 85.32 80.945 82.1421 73.1825C81.1296 70.735 79.7121 68.6225 79.4421 66.065C79.4178 65.8325 79.3935 65.6 79.3692 65.3525C78.9156 59.3525 82.6875 53.6575 88.7949 51.6025C90.7929 50.9037 92.9291 50.6092 95.0603 50.7387C97.1914 50.868 99.2677 51.4182 101.15 52.3525C101.818 52.6817 102.417 53.1205 102.916 53.6475C102.95 53.6832 102.981 53.7217 103.008 53.7625C103.046 53.851 103.076 53.942 103.1 54.035C103.249 54.6142 103.271 55.2152 103.164 55.8025Z" fill="#3FBDF1"/>
<path d="M105.673 100.983C108.934 100.285 111.796 98.1225 112.614 94.9625C113.376 92.035 112.172 89.03 110.306 86.675C108.575 84.5 104.971 82.675 105.254 79.59C105.346 78.59 105.881 77.715 106.577 76.94C106.828 76.67 107.087 76.42 107.371 76.165" stroke="black" stroke-width="4.65" stroke-miterlimit="10"/>
<path d="M98.9469 76.7147L98.7957 86.9222" stroke="black" stroke-width="4.65" stroke-miterlimit="10"/>
<path d="M80.9649 71.5973C79.9578 69.1473 78.5349 67.0348 78.2649 64.4798C78.2379 64.2448 78.2136 64.0098 78.1947 63.7598C77.7384 57.7598 81.513 52.0673 87.6177 50.0098C89.6163 49.3118 91.7528 49.0176 93.8844 49.1471C96.0158 49.2763 98.0926 49.8263 99.9756 50.7598C100.642 51.0903 101.239 51.5301 101.736 52.0573L101.863 52.1998C102.304 52.6988 102.624 53.2793 102.803 53.9023C102.981 54.5256 103.013 55.1768 102.897 55.8123C102.7 56.7393 102.227 57.5968 101.531 58.2873C100.768 59.0586 99.8806 59.7163 98.901 60.2373C97.0596 61.2523 95.013 62.0148 93.4605 63.3848C91.9107 64.7678 90.986 66.6446 90.8739 68.6348C90.7632 70.6698 91.5516 72.7748 92.0214 74.6848C93.5361 80.8423 93.0528 86.7573 92.2158 92.9523C91.422 98.7998 89.7345 104.525 86.4513 109.615C82.5849 115.615 76.2399 120.42 69.093 122.882C63.0369 124.972 51.1623 126.822 46.9908 120.705C45.5895 118.652 45.4977 116.055 45.8595 113.65C47.574 102.257 57.0159 90.5573 68.2695 85.8198C74.3121 83.2498 84.1482 79.3573 80.9649 71.5973Z" stroke="black" stroke-width="4.65" stroke-miterlimit="10"/>
<path d="M104.15 64.6695C104.73 64.6695 105.2 64.2342 105.2 63.697C105.2 63.16 104.73 62.7245 104.15 62.7245C103.57 62.7245 103.1 63.16 103.1 63.697C103.1 64.2342 103.57 64.6695 104.15 64.6695Z" fill="black"/>
<path d="M103.904 60.5625C103.904 60.5625 100.348 62.0475 101.474 64.935" stroke="black" stroke-width="4.65" stroke-miterlimit="10"/>
<path d="M107.19 76.2128C108.081 75.9128 109.031 74.9628 109.679 74.3403C110.396 73.632 111.036 72.861 111.591 72.0378C113.153 69.723 113.969 67.0433 113.943 64.3138C113.917 61.5845 113.049 58.9188 111.442 56.6303C110.33 55.0403 108.848 53.6303 106.99 52.8303C105.442 52.1548 103.709 51.9283 102.02 52.1803C102.964 52.894 103.811 53.7118 104.541 54.6153C105.642 55.9525 106.412 57.4973 106.798 59.1403C106.858 59.4278 106.909 59.7128 106.963 60.0028C107.233 61.5478 107.384 63.1128 108.202 64.3778C108.62 65.0163 109.196 65.5538 109.882 65.9453C110.043 66.0258 110.194 66.124 110.33 66.2378C111.073 66.9278 109.115 67.1253 108.71 67.3528C107.671 67.9153 108.057 69.5303 107.919 70.4653C107.753 71.5565 107.4 72.6165 106.874 73.6053C106.688 73.9565 106.476 74.2955 106.24 74.6203C105.16 76.1028 103.54 77.2628 101.504 77.2728C100.598 77.2653 99.7021 77.0953 98.8659 76.7728C97.4317 76.233 96.1489 75.3978 95.1156 74.3303" stroke="black" stroke-width="4.65" stroke-miterlimit="10"/>
<path d="M105.235 71.04C105.235 71.04 102.786 72.3325 101.725 69.3575" stroke="black" stroke-width="4.65" stroke-miterlimit="10"/>
<path d="M140.594 60.6246L146.696 57.8946C147.254 57.6456 147.742 57.2791 148.119 56.8246L150.968 53.4021C151.296 52.9866 151.436 52.4693 151.36 51.9596C151.283 51.4498 150.994 50.9878 150.556 50.6716C150.117 50.3551 149.563 50.2093 149.01 50.2651C148.458 50.3208 147.95 50.5733 147.596 50.9696L147.074 51.5321L148.173 49.1246C148.248 48.9591 148.283 48.7808 148.277 48.6016C148.271 48.4223 148.222 48.2463 148.136 48.0858C148.05 47.9253 147.927 47.7838 147.777 47.6711C147.626 47.5583 147.451 47.4768 147.263 47.4321L145.527 47.6446L150.954 40.7821C151.724 39.8096 150.976 38.6346 149.85 38.3021C148.554 37.9196 147.355 38.7096 146.551 39.5846C143.24 43.1946 140.732 47.3696 138.402 51.5696C137.619 52.9813 136.864 54.4046 136.137 55.8396" stroke="black" stroke-width="4.65" stroke-linejoin="round"/>
<path d="M145.53 47.6445C145.53 47.6445 141.99 51.722 147.077 51.532" stroke="black" stroke-width="4.65" stroke-miterlimit="10"/>
<path d="M135.675 134.349C135.675 134.349 133.051 138.292 136.107 139.259C139.163 140.227 140.835 135.677 140.835 135.677H134.935" stroke="black" stroke-width="4.65" stroke-miterlimit="10"/>
<path d="M136.615 139.375H124.443" stroke="black" stroke-width="4.65" stroke-miterlimit="10"/>
<path d="M148.902 112.592C148.899 112.87 148.842 113.145 148.735 113.405L147.515 116.347H142.312L144.118 111.802C144.318 111.298 144.703 110.876 145.206 110.608C145.709 110.341 146.297 110.246 146.868 110.34C147.439 110.435 147.955 110.712 148.328 111.124C148.699 111.535 148.903 112.055 148.902 112.592Z" stroke="black" stroke-width="4.65" stroke-miterlimit="10"/>
<path d="M123.498 116.348L120.528 123.8L125.137 112.142C125.35 111.603 125.737 111.138 126.246 110.81C126.755 110.482 127.36 110.306 127.98 110.307H146.432" stroke="black" stroke-width="4.65" stroke-miterlimit="10"/>
<path d="M139.358 123.8L142.312 116.348" stroke="black" stroke-width="4.65" stroke-miterlimit="10"/>
<path d="M45.7893 117.402C37.6488 137.695 41.3802 157.862 41.3802 157.862C53.676 164.197 71.1099 163.647 83.5975 158.08C88.0147 156.105 92.7775 153.13 94.7053 148.77C96.1201 145.577 97.5916 142.41 98.8039 139.172" stroke="black" stroke-width="4.65" stroke-miterlimit="10"/>
<path d="M38.7693 180.718H110.408" stroke="black" stroke-width="4.65" stroke-miterlimit="10"/>
<path d="M102.001 123.807L101.228 126.225" stroke="black" stroke-width="4.65" stroke-miterlimit="10"/>
<path d="M50.1795 168.52C50.1795 168.52 47.0259 163.31 45.9999 159.843" stroke="black" stroke-width="4.65" stroke-miterlimit="10"/>
<path d="M65.745 21.2871V73.132H44.7066C45.3997 71.0805 45.9802 69.0055 46.4481 66.907C47.8845 60.447 48.3111 53.777 48.087 47.0395C47.6685 34.112 53.3655 26.9945 60.9336 23.2071C62.4729 22.4366 64.0832 21.7941 65.745 21.2871Z" stroke="#CCDDE2" stroke-width="4.65" stroke-miterlimit="10"/>
<path d="M60.9336 23.207V66.907H46.44C47.8764 60.447 48.303 53.777 48.0789 47.0395C47.6685 34.112 53.3655 26.9995 60.9336 23.207Z" stroke="#CCDDE2" stroke-width="4.65" stroke-miterlimit="10"/>
</g>
</g>
<defs>
<clipPath id="clip0_302_1583">
<rect width="270" height="250" fill="white"/>
</clipPath>
</defs>
</svg>
